<svg xmlns="http://www.w3.org/2000/svg" viewBox="0 0 80 80"><g fill="none" fill-rule="evenodd"><path fill="#031E2F" d="M40.13 68.578l-.87-.68c-.823-.035-1.923-.333-2.177-.413l-.491-.155.813-2.225a27.224 27.224 0 0 1-13.593-5.347 27.353 27.353 0 0 1-9.037-11.931c-.162-.418.088-1.053.324-1.29.039-.038.071-.07.284-.182a1.947 1.947 0 0 1-.86-.579c-.25-.28-.46-.62-.62-1.012a6.963 6.963 0 0 1-.338-1.063c-.054-.23-.105-.482-.157-.772l-.085-.527a17.3 17.3 0 0 1-.055-.412l-.05-.488a15.86 15.86 0 0 1-.035-.436l-.025-.481c-.006-.157-.01-.313-.013-.476l.006-.547c.018-.303.059-.733.064-.781l.014-.15.097-.117c.084-.1.839-.978 1.694-.978.077 0 .198.01.367.029-.125-.608-.16-1.393-.07-1.708l.28-.997.06.085c.18-1.18.447-2.351.793-3.485-.033-.625.09-1.543.252-1.863l.466-.93.164.369a24.835 24.835 0 0 1 1.836-3.515c.076-.718.72-1.859 1.01-2.124l.768-.7.017.328a25.113 25.113 0 0 1 2.48-2.624c.012-.058.022-.108.032-.15.17-.717 1.103-1.84 1.472-2.068l.884-.543-.126.923a24.876 24.876 0 0 1 3.487-2.1c.054-.095.1-.17.138-.228.386-.587 1.595-1.29 2.002-1.373l1.018-.208-.328.622c.933-.325 1.89-.596 2.849-.805.639-1.092 2.02-1.897 3.798-2.21l.537-.095v.016c.108-.01.214-.02.315-.027l.508-.04.001.016.05-.002c.12-.005.21-.004.308 0l.067.003v-.005l.103-.001.364.02v.009l.065.005c.084.007.168.014.252.023l.001-.006.108.009.35.051.001.01.079.014c1.788.316 3.172 1.126 3.806 2.227.967.214 1.93.49 2.868.82l-.346-.655 1.019.209c.406.083 1.615.786 2.002 1.373.045.07.1.161.167.281a24.878 24.878 0 0 1 3.383 2.048l-.112-.823.884.545c.353.217 1.247 1.293 1.409 1.978l.017.08c.937.851 1.815 1.781 2.613 2.767l.022-.412.767.698c.307.279.986 1.502 1.017 2.206l.002.052a24.903 24.903 0 0 1 1.79 3.468l.203-.455.466.929c.171.342.314 1.373.234 2.058a24.9 24.9 0 0 1 .748 3.378l.123-.176.28 1c.083.298.057 1.03-.055 1.623.41.014.93.078 1.288.29.296.177.729.598.777.646l.133.13.078 1.117-.004.595-.019.501-.036.54-.038.411-.066.544-.058.386-.11.596c0 .002-.057.282-.09.42a6.975 6.975 0 0 1-.337 1.064 3.54 3.54 0 0 1-.62 1.011 1.965 1.965 0 0 1-.831.57c.196.105.24.144.276.175.441.383.465.875.34 1.206a27.337 27.337 0 0 1-9.083 12.068 27.211 27.211 0 0 1-13.737 5.367l.812 2.236-.54.157c-.825.244-1.606.38-2.319.405l-.77.663z"/><path fill="#FFF" d="M40.22 49.88c-.358-.244-.463-.497-.493-.66a1.437 1.437 0 0 1-.005-.129c-.024-.893.136-3.978.136-3.978s-1.25-.201-2.366-.745l-.073 4.683s.003.004.003.01a.1.1 0 0 0-.004.03c-.001.038-.002.083-.005.13-.03.162-.137.415-.491.659-.44.298-.48.477-.438 1.1.04.622.283.91.783.89h.122s.507-.006 1.181-.009c.677.003 1.18.01 1.18.01v-.002l.122.002c.501.02.746-.269.787-.89.04-.624 0-.803-.44-1.101zm9.021-8.207c-.541-.375-.9.045-.973.151 0 0-1.954 4.22-6.791 4.01 0 0-.04-.006-.101 0-.433-.028-1.048-.08-1.133-.14l-.074 2.132s.498.054.984.082c.055.008.118.011.188.011.481.017 5.29.335 8.129-5.24 0 0 .313-.63-.229-1.006zm-2.435-6.725s.055-.499-.88-2.41c0 0-.272-.661-1.045-.87-.59-.16-1.35-.348-1.35-.348s-.702-.376-1.483-.556l.004-.01s-.977-.244-1.889-.26l-.032 2.115s.249-.092 1.214-.068c.46.045 1.284.055 2.452.934 1.417 1.065 1.93 1.888 1.93 1.888s.415.623.792.5c.371-.128.287-.915.287-.915zm-13.01 3.528c.15 1.305 1.711 5.094 5.404 6.089 3.694.995 6.305-.83 7.076-1.95 0 0 .663-.642.104-1.14-.561-.497-1.017.122-1.038.103-.022-.021-3.9 2.925-6.908.642-3.009-2.28-2.184-5.956-1.883-6.682 0 0 .268-.78.593-1.189l.02-3.02s-2.519 1.46-3.217 4.535h.001c-.244.894-.294 1.37-.153 2.612zm3.212 8.92l.03-2.537c-.262-.082-.61-.296-.96-.549-.049-.04-.096-.08-.15-.119-1.113-.789-4.194-3.486-3.136-8.556 1.058-5.07 6.907-6.939 10.612-5.817 3.701 1.12 4.323 3.668 4.666 4.261.212.367.467.777.934.715.466-.063.28-1.058.28-1.058l-.906-3.291s-.208-.886-1.207-1.23c-.824-.286-1.06-.397-1.585-.66 0 0-5.948-4.071-12.638 1.232 0 0-2.366 2.114-3.05 4.57 0 0-.367 1.352-.387 1.852-.033.726-.078 1.635.075 2.662.149.968.993 5.494 5.39 7.827v.006c.078.037.152.073.224.11.188.093.377.185.578.27 0 0 .083.045.201.074.78.302 1.029.237 1.029.237zm2.769-17.281s-1.422-.042-2.191.662l-.041 9.745s.788 1.41 2.322 1.95l-.042-3.339s-.144-.643.686-.6c.83.042.677.104 1.342.884.48.562.962.532 1.236.43.427-.16.597-.452.48-.942-.235-.991-.9-2.923-.9-2.923s-.095-.714-.797-.647c-.676.066-.679.522-.679.522s.044.601-.7.58c-.75-.02-.687-.767-.687-.767l-.03-5.555zm-2.323-4.116v1.012s1.078-.363 2.286-.363c0 0-.243-.714 1.797-.6 2.043.113 2.324.21 3.45 1.06.14.095.707.783 1.336.597.66-.195.262-.744.262-.744l-1.334-2.248s-.238-.471-.898-.55c-.582-.072-1.107-.08-1.966-.091l-5.035-.017s-.557-.028-.576.84c-.02.898.434.81.678 1.104z"/><path fill="#FFF" d="M65.104 46.844c-.277-.24-4.712-2.226-4.712-2.226.089.357.005.565-.027.645-3.235 7.936-11.023 13.534-20.122 13.534-9.044 0-16.793-5.528-20.064-13.388-.089-.213-.166-.47-.133-.697 0 0-4.461 2.03-4.6 2.17-.14.139-.287.577-.214.764 3.891 10.013 13.622 17.11 25.01 17.11 11.443 0 21.21-7.164 25.066-17.252.02-.053.133-.367-.204-.66"/><path fill="#FFF" d="M66.28 43.407a.132.132 0 0 1-.182-.027.13.13 0 0 1 .027-.181c.005-.005.211-.168.528-.635.02-.124.038-.248.056-.373-.197.243-.319.336-.328.343a.13.13 0 0 1-.182-.027.13.13 0 0 1 .027-.181c.006-.005.22-.175.548-.664.014-.135.026-.272.037-.408-.28.383-.46.52-.47.53a.131.131 0 0 1-.183-.027.13.13 0 0 1 .027-.182c.006-.006.27-.213.66-.837.01-.163.015-.325.02-.487-.322.577-.549.78-.561.791a.13.13 0 0 1-.184-.011.13.13 0 0 1 .012-.184c.008-.008.325-.302.736-1.176-.008-.279-.07-.905-.07-.905s-.021.1-.086.261c-.152.384-.54 1.122-1.436 1.753-.726.513-1.612.9-3.034 1.07-1.46.177-3.538.232-4.594 1.417-.233.261-.436.6-.534.936-.077.262-.042.775.315.854.392.088.833-.161 1.13-.424.707-.623 1.322-.673 2.153-.31.78.34 1.73.752 2.513 1.086.43.183.863.413 1.298.47.37.05.763-.11 1.092-.479.229-.256.4-.554.532-.872.132-.319.233-.651.313-.988.032-.134.06-.27.088-.405-.161.19-.26.265-.268.272m-42.89.84a2.542 2.542 0 0 0-.535-.935c-1.056-1.185-3.133-1.24-4.594-1.416-1.422-.171-2.308-.558-3.034-1.07-.895-.632-1.284-1.37-1.436-1.754-.065-.162-.087-.261-.087-.261s-.045.47-.064.778c.341.653.588.879.591.882a.13.13 0 0 1 .011.183.13.13 0 0 1-.182.012c-.01-.01-.177-.159-.424-.558.002.15.006.301.012.453.32.472.528.635.531.637a.131.131 0 0 1 .026.182.133.133 0 0 1-.105.052.129.129 0 0 1-.077-.026 2.194 2.194 0 0 1-.35-.37c.01.138.02.278.033.417.264.364.43.494.432.496a.13.13 0 0 1 .025.181.13.13 0 0 1-.104.053.126.126 0 0 1-.076-.026 1.745 1.745 0 0 1-.227-.222c.016.13.033.261.052.392.263.363.428.493.431.495a.13.13 0 0 1 .025.181.129.129 0 0 1-.18.027 1.554 1.554 0 0 1-.192-.184c.044.249.094.497.15.739.08.336.182.668.314.988.13.318.303.616.533.872.327.368.72.528 1.09.479.436-.057.87-.287 1.298-.47.783-.334 1.734-.747 2.514-1.087.83-.362 1.446-.313 2.152.31.298.264.739.513 1.13.425.357-.08.393-.592.316-.854"/><path fill="#C1C6C8" d="M59.986 44.571c-.292-.197-.696-.032-1.093.352-.395.382-.913.646-1.323.692.909 1.016 1.574 1.215 1.574 1.215s.235-.405.418-.747c.181-.342.762-1.283.424-1.512m-44.969-6.547c-.519.044-.784.202-1.004.486 0 0 .064.584.414 1.069.243.337.676.72.676.72s-.302-1.323-.086-2.275m50.476 0c.216.952-.086 2.275-.086 2.275s.433-.383.676-.72c.35-.485.415-1.07.415-1.07-.22-.283-.486-.441-1.005-.485m-44.976 6.592c-.338.23.242 1.17.425 1.512.182.341.416.747.416.747s.667-.199 1.575-1.215c-.41-.046-.929-.31-1.323-.692-.397-.385-.801-.55-1.093-.352m19.775 20.5c-.154 0-.305-.007-.458-.01l-.398 2.304.678.53.622-.536-.315-2.29-.13.002m.527-.011l.394 2.297c.265-.024.527-.06.786-.104l-.562-2.207c-.205.008-.411.01-.618.014m.97-.036l.61 2.138c.243-.051.483-.113.72-.182l-.742-1.99c-.195.015-.391.024-.588.034m-2.938.004l-.563 2.21c.242.048.489.085.737.116l.444-2.3a33.824 33.824 0 0 1-.618-.026m-.9-.062l-.72 2.002c.225.07.456.132.688.187l.607-2.146a26.296 26.296 0 0 1-.576-.043M15.79 35.987c-.08.286-.01 1.551.263 2.034.273.484 1.494 2.07 1.494 2.07s.09-.964-.088-1.47c-.177-.505-1.67-2.634-1.67-2.634m2.18 2.033c-.154.292-.177 1.45-.177 1.45s1.452-1.365 1.778-1.824c.325-.46.516-1.745.516-1.745s-1.785 1.488-2.117 2.12m-1.261-1.276c.278.653.906 1.53.906 1.53s.13-1.793.125-2.266c-.004-.473-.554-1.757-.554-1.757s-.783 1.78-.477 2.493m1.206.767s.725-.663 1.099-1.254c.41-.645.21-2.167.21-2.167s-1.07 1.083-1.147 1.548c-.078.466-.162 1.873-.162 1.873m.165-3.334s.274-.928.197-1.458c-.078-.53-1.135-2.906-1.135-2.906-.133.266-.307 1.52-.132 2.048.177.527 1.07 2.316 1.07 2.316m3.295-3.625s-2.036 1.118-2.483 1.675c-.208.256-.452 1.389-.452 1.389s1.687-1.062 2.095-1.45c.407-.389.84-1.614.84-1.614m-2.88 1.858s.471-1.735.556-2.2c.087-.467-.207-1.832-.207-1.832s-1.109 1.596-.946 2.356c.147.694.597 1.676.597 1.676m1.759-1.713c.525-.555.621-2.086.621-2.086s-1.258.857-1.423 1.3c-.165.441-.517 1.806-.517 1.806s.839-.512 1.319-1.02m.274-3.821c.117-.523-.018-3.12-.018-3.12-.22.2-.832 1.31-.856 1.865-.025.555.167 2.546.167 2.546s.59-.768.707-1.291m-.169.896s1.956-.387 2.475-.603c.52-.217 1.363-1.205 1.363-1.205s-2.302.313-2.919.673c-.285.165-.919 1.135-.919 1.135m1.792-2.961c.247-.404.463-1.785.463-1.785s-1.608 1.094-1.728 1.86c-.11.701-.044 1.78-.044 1.78s1.063-1.451 1.309-1.855m-.65 1.366s.967-.178 1.598-.48c.689-.33 1.327-1.725 1.327-1.725s-1.481.35-1.793.704c-.314.353-1.132 1.501-1.132 1.501m3.112-4.35c.225-.517.592-3.23.592-3.23-.267.165-1.116 1.193-1.25 1.762-.135.57-.324 2.666-.324 2.666s.759-.679.982-1.197m.824-.101c-.328.115-1.173.994-1.173.994s2.098-.017 2.679-.14c.579-.122 1.644-.98 1.644-.98s-2.442-.125-3.15.126m1.259-1.718c.335-.37.827-1.756.827-1.756s-1.876.818-2.15 1.587c-.252.703-.393 1.832-.393 1.832s1.382-1.294 1.716-1.663m.524-.046c-.392.304-1.462 1.332-1.462 1.332s1.034.005 1.745-.184c.777-.207 1.71-1.525 1.71-1.525s-1.6.072-1.993.377m4.211-4.624c-.29.06-1.385.698-1.69 1.162-.306.465-1.16 2.273-1.16 2.273s.898-.358 1.268-.747c.368-.389 1.582-2.688 1.582-2.688m-.815 2.867c-.33-.005-1.37.504-1.37.504s1.877.67 2.433.75c.558.08 1.789-.336 1.789-.336s-2.138-.91-2.852-.918m.56-1.704c-.455.545-.949 1.506-.949 1.506s1.655-.702 2.073-.923c.42-.22 1.311-1.296 1.311-1.296s-1.94.116-2.436.713m1.608.713c-.449.144-1.74.711-1.74.711s.921.342 1.617.405c.762.07 2.024-.801 2.024-.801s-1.451-.46-1.9-.315m30.213 21.406c-.177.505-.087 1.468-.087 1.468s1.22-1.584 1.494-2.068.344-1.749.263-2.035c0 0-1.492 2.13-1.67 2.635m-2.626-2.72s.19 1.285.516 1.744c.325.459 1.778 1.824 1.778 1.824s-.023-1.158-.177-1.45c-.332-.631-2.117-2.119-2.117-2.119m2.9-1.649s-.549 1.284-.553 1.757c-.007.473.124 2.267.124 2.267s.63-.878.907-1.53c.305-.715-.477-2.494-.477-2.494m-.73 3.26s-.083-1.407-.16-1.873c-.078-.465-1.148-1.548-1.148-1.548s-.2 1.522.21 2.167c.374.59 1.098 1.254 1.098 1.254m-.164-3.334s.894-1.789 1.07-2.316c.174-.527.001-1.782-.132-2.048 0 0-1.057 2.376-1.135 2.906-.078.53.197 1.458.197 1.458m-.812-1.95c-.447-.557-2.483-1.675-2.483-1.675s.433 1.225.84 1.614c.407.388 2.095 1.45 2.095 1.45s-.245-1.133-.452-1.39m.397.184s.45-.982.597-1.676c.162-.76-.946-2.356-.946-2.356s-.294 1.365-.207 1.831c.085.466.556 2.2.556 2.2m-2.38-3.798s.096 1.531.62 2.086c.48.508 1.32 1.02 1.32 1.02s-.352-1.365-.518-1.807c-.164-.442-1.423-1.3-1.423-1.3m1.054-.443s.193-1.99.168-2.546c-.025-.555-.637-1.664-.856-1.865 0 0-.135 2.597-.018 3.12.118.523.706 1.291.706 1.291m-.537-.395s-.634-.97-.92-1.135c-.617-.36-2.918-.673-2.918-.673s.844.988 1.362 1.205c.52.216 2.476.603 2.476.603m-.483-1.106s.067-1.079-.044-1.78c-.12-.766-1.728-1.86-1.728-1.86s.215 1.381.462 1.785c.248.404 1.31 1.855 1.31 1.855m-2.257-.969c.63.302 1.597.48 1.597.48s-.818-1.148-1.13-1.502c-.313-.354-1.795-.703-1.795-.703s.64 1.395 1.328 1.725m-.672-2.791s-.18-1.992-.307-2.533c-.128-.54-.935-1.517-1.187-1.673 0 0 .348 2.576.56 3.069.213.492.934 1.137.934 1.137m-1.716-1.233c-.672-.239-2.992-.12-2.992-.12s1.012.815 1.562.931c.552.117 2.545.133 2.545.133s-.803-.835-1.115-.944m.434-.053s-.133-1.072-.373-1.74c-.26-.73-2.042-1.507-2.042-1.507s.466 1.316.785 1.667c.318.351 1.63 1.58 1.63 1.58m-2.396-.533c.675.18 1.658.176 1.658.176s-1.017-.977-1.39-1.267c-.372-.289-1.893-.357-1.893-.357s.886 1.252 1.625 1.448m-1.132-2.313s-.854-1.808-1.16-2.272c-.306-.464-1.4-1.103-1.69-1.163 0 0 1.213 2.299 1.582 2.688.37.389 1.268.747 1.268.747m-3.099.686c.557-.08 2.435-.75 2.435-.75s-1.041-.508-1.372-.504c-.713.007-2.85.918-2.85.918s1.23.416 1.787.336m-.62-2.375c.418.22 2.073.923 2.073.923s-.494-.96-.948-1.506c-.497-.597-2.437-.713-2.437-.713s.891 1.076 1.311 1.296m-.36 1.247c.696-.064 1.618-.406 1.618-.406s-1.291-.568-1.74-.71c-.45-.145-1.902.314-1.902.314s1.263.871 2.024.802m-7.574.584c2.888 0 5.23-1.41 5.23-3.152 0-1.432-1.588-2.64-3.76-3.023l-.044.64a.181.181 0 0 1-.362 0l-.05-.708c-.102-.012-.207-.02-.312-.029l-.046 1.041a.19.19 0 0 1-.38 0l-.048-1.065c-.076-.003-.15-.007-.228-.007-.064 0-.125.004-.189.005l-.043 1.067a.195.195 0 0 1-.389 0l-.042-1.044c-.12.009-.237.018-.353.032l-.051.708a.178.178 0 0 1-.355 0l-.046-.64c-2.172.382-3.76 1.59-3.76 3.023 0 1.741 2.34 3.152 5.228 3.152M53.33 38.74c-.018-.008-.013-.009 0 0m1.765.64a6.804 6.804 0 0 0-.362-.803c-.153-.267-.296-.54-.64-.827-.09-.071-.2-.144-.353-.198a.993.993 0 0 0-.533-.035 1.052 1.052 0 0 0-.443.213c-.11.088-.185.176-.25.26l-.035.047a.64.64 0 0 0 .973.827c.068.083.146.196.21.31.115.199.22.421.314.648.092.22.168.452.236.69.132.474.21.958.227 1.441a5.73 5.73 0 0 1-.148 1.453c-.422 1.95-1.753 3.634-3.309 4.996-1.57 1.372-3.41 2.453-5.203 3.63-.446.29-.902.606-1.329.903-.44.294-.9.596-1.325.951-.214.178-.42.37-.612.586-.189.216-.37.461-.475.771a1.29 1.29 0 0 0-.067.502 1.184 1.184 0 0 0 .32.71c.073.071.176.142.305.168a.589.589 0 0 0 .355-.041.786.786 0 0 0 .252-.177l.007-.007a.267.267 0 0 0-.393-.36l-.005.005a.279.279 0 0 1-.074.05c-.025.011-.032.01-.035.01-.002.007-.068-.04-.11-.127a.64.64 0 0 1-.036-.556c.149-.4.538-.767.936-1.078.405-.316.847-.59 1.304-.875.46-.3.89-.578 1.348-.858 1.808-1.11 3.708-2.143 5.407-3.535.844-.694 1.64-1.48 2.303-2.375a8.628 8.628 0 0 0 1.485-3.04 6.865 6.865 0 0 0 .227-1.72c0-.585-.078-1.165-.217-1.725a7.367 7.367 0 0 0-.255-.833m-28.402-.64c.013-.01.018-.01 0 0m10.734 17.882a.616.616 0 0 0 .305-.167 1.176 1.176 0 0 0 .254-1.213c-.107-.31-.287-.555-.476-.771a5.479 5.479 0 0 0-.612-.586c-.426-.355-.885-.657-1.325-.95a53.81 53.81 0 0 0-1.329-.904c-1.793-1.177-3.633-2.258-5.203-3.63-1.555-1.362-2.887-3.046-3.309-4.996a5.681 5.681 0 0 1 .079-2.894c.068-.238.144-.47.236-.69.093-.227.199-.45.315-.648a2.33 2.33 0 0 1 .21-.312.638.638 0 0 0 .97-.828l-.033-.044a1.427 1.427 0 0 0-.25-.26 1.052 1.052 0 0 0-.443-.213.993.993 0 0 0-.533.035 1.227 1.227 0 0 0-.354.198c-.343.288-.486.56-.64.827a6.804 6.804 0 0 0-.36.804 7.594 7.594 0 0 0-.472 2.557 6.841 6.841 0 0 0 .226 1.72 8.623 8.623 0 0 0 1.485 3.041c.664.894 1.46 1.681 2.303 2.375 1.699 1.392 3.6 2.425 5.407 3.535.458.28.889.559 1.349.858.456.285.898.56 1.304.875.397.31.786.678.935 1.078a.64.64 0 0 1-.035.556c-.043.087-.109.134-.11.126-.004 0-.011.002-.036-.008a.267.267 0 0 1-.074-.051l-.004-.006c-.003-.001-.005-.004-.007-.006a.267.267 0 0 0-.38.374c.081.083.15.13.252.177a.589.589 0 0 0 .355.041M26.256 31.62a.377.377 0 0 0-.208-.257.36.36 0 0 0-.244-.022.365.365 0 0 0-.258.206.402.402 0 0 0-.032.236c.06.284.38.425.639.465.33.052.65-.046.933-.21.143-.082.278-.178.406-.28a2.91 2.91 0 0 0 .825-1.051c.2-.433.281-.89.266-1.336a3.054 3.054 0 0 0-.041-.41 1.6 1.6 0 0 0-.167-.5 1.21 1.21 0 0 0-.631-.547c-.207-.077-.489-.067-.598.17a.377.377 0 0 0 .55.472.936.936 0 0 1-.288 1.66c-.034.009-.067.018-.104.022a.93.93 0 0 1-1.048 1.382m3.302-5.65c.266.201.594.265.922.255.165-.005.328-.025.49-.056.43-.08.85-.254 1.224-.535.38-.287.668-.65.866-1.052.06-.123.115-.25.158-.38.055-.167.09-.345.09-.52a1.205 1.205 0 0 0-.298-.78c-.146-.166-.4-.29-.607-.134a.376.376 0 0 0 .26.677.934.934 0 0 1-1.14 1.297.934.934 0 0 1-.37.795.931.931 0 0 1-1.207-.073.378.378 0 0 0-.062-.325.359.359 0 0 0-.204-.135.365.365 0 0 0-.326.06.411.411 0 0 0-.14.193c-.081.278.136.554.344.712m23.432 2.587a.377.377 0 0 0 .364.03.388.388 0 0 0 .192-.201.377.377 0 0 0-.006-.302c-.11-.236-.391-.246-.598-.169a1.21 1.21 0 0 0-.632.547 1.629 1.629 0 0 0-.166.5 3.053 3.053 0 0 0-.041.41c-.016.447.066.904.266 1.336.196.423.484.776.825 1.05.128.103.263.199.406.281.284.164.603.262.933.21.258-.04.58-.18.64-.465a.415.415 0 0 0-.032-.236.366.366 0 0 0-.26-.206.363.363 0 0 0-.243.022.38.38 0 0 0-.208.257.932.932 0 0 1-1.048-1.382c-.037-.005-.07-.014-.104-.023a.935.935 0 0 1-.289-1.66m-5.363-3.973a2.913 2.913 0 0 0 2.089 1.587c.163.03.327.051.49.056.33.01.657-.054.923-.256.208-.158.425-.434.344-.712a.412.412 0 0 0-.14-.193.367.367 0 0 0-.326-.06.365.365 0 0 0-.204.135.383.383 0 0 0-.062.325.931.931 0 0 1-1.577-.722c-.035.013-.068.02-.102.028a.934.934 0 0 1-1.039-1.325.377.377 0 0 0 .336-.147c.06-.08.08-.174.073-.266a.376.376 0 0 0-.148-.264c-.207-.156-.46-.032-.606.133a1.205 1.205 0 0 0-.298.78 1.64 1.64 0 0 0 .089.52c.043.13.097.258.158.381"/><path fill="#031E2F" d="M20.227 49.309a.51.51 0 0 1 .165-.009c.027.008.054.037.08.089l.238.464a.082.082 0 0 1 0 .074.145.145 0 0 1-.07.065c-.036.018-.065.023-.087.015a.282.282 0 0 1-.078-.049c-.027-.026-.053-.037-.08-.035a.334.334 0 0 0-.11.039l-1.5.764c-.087.045-.136.088-.144.13l-.006.04c-.01.053-.034.088-.067.105-.071.037-.128.014-.17-.067l-.24-.473c-.04-.079-.025-.137.046-.173.026-.013.046-.018.062-.015a.307.307 0 0 1 .064.023l.034.018c.04.018.103.004.19-.04l1.348-.687-1.451.232c-.077.01-.127.017-.149.018a.12.12 0 0 1-.068-.018.184.184 0 0 1-.066-.081.288.288 0 0 1-.042-.132c.002-.03.026-.07.072-.121l1.05-1.09-1.315.671a.808.808 0 0 0-.093.068.123.123 0 0 0-.031.045.135.135 0 0 0-.007.046v.047a.118.118 0 0 1-.069.117c-.065.032-.125-.008-.184-.122l-.11-.216c-.057-.111-.053-.184.012-.217.048-.024.093-.022.132.01.03.022.054.038.069.046.014.009.037.01.065.004a.8.8 0 0 0 .11-.036l1.489-.758a.265.265 0 0 0 .062-.042.164.164 0 0 0 .062-.155.32.32 0 0 1 .004-.093c.006-.021.026-.041.06-.058.07-.037.13-.007.18.089l.246.484c.027.053.03.095.007.129a1.09 1.09 0 0 1-.145.152l-.936.913 1.37-.21zm-.528 2.47a.967.967 0 0 0-.207.17.146.146 0 0 0-.022.14c.018.054.063.136.138.25a.69.69 0 0 0 .153.172.405.405 0 0 0 .21.06c.067 0 .12.002.158.007.038.003.066.019.085.046a.093.093 0 0 1 .01.077.115.115 0 0 1-.05.07 1.44 1.44 0 0 1-.296.13c-.07.025-.117.035-.143.027-.026-.008-.058-.037-.093-.09l-.765-1.134c-.051-.076-.044-.136.023-.18.024-.017.043-.024.058-.022a.373.373 0 0 1 .07.018l.036.013c.041.014.103-.008.184-.063l1.38-.931c.086-.058.13-.108.134-.151l-.004-.035c.004-.058.022-.099.056-.121.034-.023.067-.029.099-.016a.16.16 0 0 1 .077.062l.73 1.081c.044.066.06.118.049.155-.023.052-.105.126-.248.223-.083.055-.142.055-.18 0-.02-.031-.016-.085.014-.164a.329.329 0 0 0 .02-.224.965.965 0 0 0-.132-.248c-.068-.1-.12-.16-.154-.176a.103.103 0 0 0-.124 0l-.534.36.236.349c.031.046.059.074.083.084.024.01.055.018.091.024.037.005.062.018.076.037.037.056-.01.128-.143.217a.88.88 0 0 1-.191.106c-.047.018-.083.008-.106-.026-.014-.02-.018-.05-.01-.087a.436.436 0 0 0 .01-.091c0-.024-.016-.059-.047-.105l-.235-.349-.496.335zm3.067 1.583a.87.87 0 0 0 .077-.083c.023-.041.025-.09.004-.147a.137.137 0 0 1 .047-.13c.055-.047.124-.02.207.077l.156.185c.08.096.094.167.038.214a.135.135 0 0 1-.135.025c-.054-.03-.1-.036-.143-.018a.517.517 0 0 0-.098.06l-1.443 1.217c-.08.067-.137.102-.171.107-.035.005-.079-.024-.131-.086-.043-.051-.061-.098-.053-.14.008-.038.057-.17.147-.394l.583-1.634-1.117.941a.887.887 0 0 0-.075.088.124.124 0 0 0-.02.05c-.001.015 0 .031.004.047l.01.045a.118.118 0 0 1-.04.13c-.055.047-.124.02-.207-.077l-.156-.185c-.08-.096-.093-.167-.038-.214.042-.035.086-.042.131-.022.035.016.06.026.077.03.017.005.039.002.065-.01a.824.824 0 0 0 .099-.06l1.177-.993.084-.073a.492.492 0 0 0 .068-.071.205.205 0 0 0 .034-.074.17.17 0 0 0-.01-.087.28.28 0 0 1-.017-.091c0-.022.016-.046.045-.07.061-.052.126-.036.195.045l.245.29a.344.344 0 0 1 .062.092.286.286 0 0 1-.009.115c-.018.08-.044.17-.077.272-.033.1-.066.196-.098.286l-.135.374-.263.712.88-.743zm.953 1.722c.097.174.146.32.147.435a.711.711 0 0 1-.214.514.879.879 0 0 1-.656.295.878.878 0 0 1-.612-.263 1.093 1.093 0 0 1-.295-.465.933.933 0 0 1-.02-.312.429.429 0 0 1 .11-.265.236.236 0 0 1 .124-.07c.046-.01.083-.002.11.025.045.043.052.11.021.203l-.023.09-.022.09a.755.755 0 0 0-.006.15.55.55 0 0 0 .172.337.468.468 0 0 0 .286.13c.114.01.215-.031.304-.124.087-.09.115-.188.083-.291a1.107 1.107 0 0 0-.171-.338 1.174 1.174 0 0 1-.189-.45.712.712 0 0 1 .21-.575.88.88 0 0 1 .625-.268.795.795 0 0 1 .544.245c.163.156.27.343.32.56.008.052.002.093-.019.125a1.403 1.403 0 0 1-.2.24c-.067.07-.125.08-.175.032-.023-.021-.026-.059-.012-.111l.055-.198a.51.51 0 0 0 .013-.232.421.421 0 0 0-.135-.223.365.365 0 0 0-.236-.103.307.307 0 0 0-.248.105c-.077.08-.11.159-.1.237.01.078.043.17.098.274l.11.201zm2.686 2.158c.123.158.193.294.212.408a.712.712 0 0 1-.135.54.876.876 0 0 1-.603.39.876.876 0 0 1-.645-.166 1.093 1.093 0 0 1-.362-.415.941.941 0 0 1-.068-.305.429.429 0 0 1 .07-.28.245.245 0 0 1 .11-.088c.045-.016.083-.013.115.009.05.035.067.101.05.197 0 .02-.004.051-.008.093a1.08 1.08 0 0 0-.008.093.498.498 0 0 0 .017.148c.036.127.11.23.22.308.089.062.19.09.303.084a.362.362 0 0 0 .282-.168c.072-.103.085-.203.038-.3a1.114 1.114 0 0 0-.22-.308 1.177 1.177 0 0 1-.256-.416.71.71 0 0 1 .12-.6.881.881 0 0 1 .577-.36.797.797 0 0 1 .576.16c.184.129.318.297.4.504.017.05.017.092.001.126a1.39 1.39 0 0 1-.162.27c-.055.078-.11.097-.168.057-.025-.018-.035-.054-.028-.109l.024-.204a.496.496 0 0 0-.023-.231.419.419 0 0 0-.166-.2.362.362 0 0 0-.25-.065.304.304 0 0 0-.229.14c-.063.09-.084.174-.062.25a.832.832 0 0 0 .138.256l.14.182zm1.617 1.551l.014-.051.172-.905-.73.647.544.31zm-1.447.458a.359.359 0 0 1-.119-.094c-.02-.028-.018-.064.007-.107.015-.026.048-.047.098-.063a.231.231 0 0 0 .131-.056l.28-.287c.191-.199.503-.482.935-.853.137-.12.282-.237.438-.354.048-.035.087-.051.116-.05a.3.3 0 0 1 .118.045c.067.037.106.075.12.114a.432.432 0 0 1-.004.193l-.327 1.736-.094.36a.222.222 0 0 0-.008.066.57.57 0 0 0 .023.073.11.11 0 0 1 0 .112c-.04.07-.1.081-.182.034l-.41-.233c-.101-.057-.133-.118-.096-.185.02-.034.054-.053.103-.056.05-.003.08-.015.092-.036.03-.052.075-.21.137-.474l.016-.056-.68-.386c-.01.012-.043.046-.101.104a4.418 4.418 0 0 0-.142.148.665.665 0 0 0-.08.103.143.143 0 0 0-.023.078.236.236 0 0 0 .021.073c.013.026.02.048.024.068.004.02-.001.041-.016.066-.022.041-.053.059-.09.054a.435.435 0 0 1-.152-.06l-.135-.077zm4.424-.12a.84.84 0 0 0 .033-.11c.003-.047-.017-.091-.06-.132a.139.139 0 0 1-.016-.138c.03-.066.103-.073.22-.022l.222.098c.114.05.156.11.127.175a.135.135 0 0 1-.11.082c-.061-.004-.107.012-.136.047a.498.498 0 0 0-.063.096l-.764 1.726c-.041.095-.077.153-.107.172-.029.02-.08.013-.155-.02-.061-.027-.097-.062-.108-.103a4.148 4.148 0 0 1-.041-.419l-.193-1.724-.59 1.336a.994.994 0 0 0-.03.111c-.002.022 0 .04.005.054a.125.125 0 0 0 .023.04l.03.037a.119.119 0 0 1 .02.134c-.029.066-.102.073-.219.021l-.222-.098c-.114-.05-.157-.109-.128-.174.023-.05.059-.076.109-.077a.553.553 0 0 0 .083-.008c.017-.002.034-.015.053-.037a.889.889 0 0 0 .063-.098l.622-1.408.044-.102a.465.465 0 0 0 .03-.095.19.19 0 0 0-.002-.08.165.165 0 0 0-.047-.074.291.291 0 0 1-.055-.075c-.009-.02-.006-.048.01-.082.032-.073.097-.088.195-.045l.348.154c.05.022.082.04.095.055.014.015.028.05.043.107.018.08.034.172.05.278.013.105.026.205.036.3l.043.395.075.756L31 59.13zm1.453 1.586l.003-.054-.009-.92-.589.777.595.197zm-1.33.733a.364.364 0 0 1-.134-.07c-.025-.024-.03-.059-.015-.106.01-.029.038-.056.085-.08a.237.237 0 0 0 .117-.082l.218-.336c.148-.232.399-.572.75-1.02.11-.143.23-.288.36-.433.04-.043.075-.067.104-.072.029-.003.07.004.124.021.073.024.12.054.14.088.02.035.033.099.034.191l.02 1.766-.021.371a.22.22 0 0 0 .005.066.508.508 0 0 0 .036.068.11.11 0 0 1 .022.11c-.025.076-.082.098-.172.07l-.447-.148c-.11-.037-.154-.09-.13-.163.012-.037.042-.062.09-.076.048-.013.075-.03.083-.054.019-.056.032-.22.04-.49l.006-.058-.742-.245a4.537 4.537 0 0 1-.08.12 5.479 5.479 0 0 0-.11.174.587.587 0 0 0-.057.116.137.137 0 0 0-.008.08.21.21 0 0 0 .035.068c.017.024.03.045.037.063.007.018.007.04-.002.068-.015.044-.041.067-.08.07a.437.437 0 0 1-.16-.029l-.147-.048zm4.09-1.026c.022-.106.018-.173-.01-.2l-.024-.022c-.038-.044-.053-.086-.045-.125.015-.08.068-.11.158-.092l.52.104a.16.16 0 0 1 .089.046c.023.024.03.057.022.098-.008.04-.037.073-.089.098l-.035.01c-.037.02-.066.081-.087.182l-.323 1.634c-.02.096-.015.16.012.193l.028.029c.038.044.053.084.046.12-.016.078-.068.108-.158.09l-.52-.103c-.09-.018-.127-.066-.112-.144.006-.029.014-.047.027-.056a.436.436 0 0 1 .062-.037l.03-.017c.037-.014.067-.073.087-.175l.323-1.633zm2.611.4a.919.919 0 0 0 0-.113c-.01-.046-.042-.083-.095-.11a.136.136 0 0 1-.055-.128c.01-.072.077-.1.204-.083l.241.03c.124.015.182.059.173.13a.134.134 0 0 1-.082.11c-.06.015-.099.043-.117.085a.52.52 0 0 0-.033.11l-.233 1.873c-.013.102-.03.168-.053.195-.022.027-.074.035-.155.026-.066-.009-.11-.031-.133-.068a3.972 3.972 0 0 1-.16-.389l-.68-1.595-.181 1.449a.94.94 0 0 0 .003.116c.004.02.011.037.02.05.01.012.02.023.034.031a.624.624 0 0 1 .039.027c.045.029.065.07.059.122-.01.072-.077.1-.204.084l-.24-.03c-.125-.015-.183-.059-.174-.13.007-.055.034-.09.082-.105.036-.013.062-.023.077-.03.015-.01.028-.026.04-.053a.796.796 0 0 0 .032-.111l.19-1.528.013-.11a.48.48 0 0 0 0-.1.188.188 0 0 0-.024-.076.159.159 0 0 0-.067-.058.292.292 0 0 1-.073-.055c-.015-.017-.02-.044-.015-.082.01-.079.068-.112.175-.099l.376.048c.055.006.09.014.108.025.017.01.04.04.071.09.041.07.083.155.127.251.045.097.086.19.123.277l.155.366.29.702.142-1.143zm3.487 0a.415.415 0 0 0-.304-.126c-.201.004-.36.117-.479.339-.102.2-.152.439-.146.716.005.275.058.51.16.704.11.223.283.332.518.327.181-.003.34-.095.475-.277l.05-.068a.334.334 0 0 1 .057-.059.104.104 0 0 1 .065-.024c.026 0 .049.011.068.035a.14.14 0 0 1 .03.088.362.362 0 0 1-.088.228 1.08 1.08 0 0 1-.196.194.903.903 0 0 1-.555.193 1.006 1.006 0 0 1-.551-.15 1.124 1.124 0 0 1-.41-.444 1.445 1.445 0 0 1-.161-.662c-.004-.19.023-.37.081-.54.059-.169.14-.317.245-.444a1.17 1.17 0 0 1 .363-.3.95.95 0 0 1 .432-.112.98.98 0 0 1 .654.22c.05.033.08.07.094.113.019.062.03.19.034.382 0 .04-.01.073-.031.1a.107.107 0 0 1-.085.04.079.079 0 0 1-.074-.04 1.085 1.085 0 0 1-.066-.135.778.778 0 0 0-.18-.298m2.627.712a2.337 2.337 0 0 0-.111-.485 1.008 1.008 0 0 0-.228-.383.403.403 0 0 0-.351-.123c-.197.023-.331.167-.404.432a1.782 1.782 0 0 0-.031.67c.02.164.056.325.11.483.055.16.131.29.227.391a.39.39 0 0 0 .345.13.412.412 0 0 0 .315-.199.959.959 0 0 0 .133-.418 2.236 2.236 0 0 0-.005-.498m-1.238 1.096c-.235-.223-.375-.526-.422-.91a1.604 1.604 0 0 1 .022-.533c.036-.17.098-.319.184-.45a1.05 1.05 0 0 1 .316-.316 1.016 1.016 0 0 1 .852-.102c.144.048.274.123.39.228.115.104.21.234.286.39.076.154.125.328.149.52.03.25.005.482-.071.697a1.195 1.195 0 0 1-.352.521.97.97 0 0 1-.963.187 1.087 1.087 0 0 1-.39-.232m2.866-1.45a.846.846 0 0 0 .41-.231c.113-.115.15-.262.11-.44-.03-.139-.09-.236-.179-.289a.408.408 0 0 0-.307-.041c-.1.022-.163.06-.186.111-.022.04-.02.118.005.233l.147.658zm.197.868c.021.096.052.154.09.173l.036.014c.049.024.078.055.086.093.018.078-.018.126-.108.146l-.518.116c-.09.02-.143-.01-.16-.088-.006-.028-.005-.048.001-.062a.437.437 0 0 1 .043-.058l.022-.028c.028-.028.03-.093.007-.194l-.36-1.62c-.023-.106-.054-.166-.09-.18l-.032-.015a.407.407 0 0 1-.064-.036c-.012-.009-.02-.028-.027-.056-.017-.077.018-.126.108-.146l.968-.221c.2-.045.357-.046.472-.006a.52.52 0 0 1 .23.164c.066.08.112.173.135.28.062.275-.028.525-.269.75.18.154.368.403.564.744a.937.937 0 0 0 .084.118c.02.021.05.041.092.06a.389.389 0 0 1 .064.033c.011.007.02.024.026.052.014.066-.026.111-.12.132l-.533.118a.31.31 0 0 1-.124.007c-.033-.006-.054-.034-.065-.081-.008-.035.004-.071.036-.11.032-.038.045-.073.037-.105-.017-.08-.087-.2-.207-.363a2.581 2.581 0 0 0-.303-.354l-.256.116.135.607zm2.117-1.363a.956.956 0 0 0 .36-.31c.088-.127.103-.28.047-.455a.5.5 0 0 0-.214-.296.37.37 0 0 0-.313-.032c-.085.027-.135.065-.151.114-.016.041-.008.11.023.21l.248.769zm.242.756c.022.05.04.084.052.103.018.025.034.038.048.043.015.004.042.01.082.016a.12.12 0 0 1 .1.088c.022.068-.026.122-.146.16l-.496.16c-.088.028-.143.004-.168-.072-.008-.027-.01-.046-.005-.059a.416.416 0 0 1 .034-.064l.023-.031c.025-.03.022-.096-.01-.194l-.508-1.586c-.034-.104-.07-.16-.108-.17l-.034-.006c-.053-.022-.086-.052-.097-.09-.025-.076.007-.127.094-.156l.819-.262c.21-.068.39-.082.543-.043.106.028.198.08.277.157a.708.708 0 0 1 .176.297c.047.148.053.29.017.428a.945.945 0 0 1-.196.373c-.078.09-.17.166-.28.23a2.954 2.954 0 0 1-.377.178l.16.5zm2.787-1.956c-.068-.156-.15-.3-.247-.434a.992.992 0 0 0-.327-.3.403.403 0 0 0-.372-.018c-.181.079-.269.256-.262.53.005.198.06.415.162.65.066.152.148.296.246.432s.207.24.33.31a.39.39 0 0 0 .366.024.41.41 0 0 0 .245-.281.973.973 0 0 0 .007-.439c-.03-.16-.08-.318-.148-.474m-.87 1.405c-.29-.146-.511-.396-.666-.751a1.59 1.59 0 0 1-.133-.517 1.32 1.32 0 0 1 .047-.483c.045-.15.116-.282.212-.393a1.018 1.018 0 0 1 .788-.342c.15.003.296.038.436.105.142.066.27.163.387.29.118.126.215.279.292.457.101.23.145.46.133.686a1.188 1.188 0 0 1-.187.601c-.113.173-.261.3-.446.38a.964.964 0 0 1-.422.076 1.091 1.091 0 0 1-.441-.11m2.328-2.218a.845.845 0 0 0 .325-.341c.074-.143.067-.294-.023-.452-.07-.125-.156-.2-.256-.226a.408.408 0 0 0-.306.051c-.09.052-.138.105-.145.161-.01.045.015.119.073.222l.332.585zm.443.772c.049.085.095.132.136.139l.04.003c.053.008.09.03.109.063.04.07.02.127-.06.172l-.462.262c-.08.045-.14.033-.179-.036-.014-.025-.02-.045-.016-.06a.416.416 0 0 1 .023-.07l.012-.031c.019-.035.003-.099-.048-.189l-.82-1.443c-.053-.095-.1-.143-.14-.145l-.034-.006a.462.462 0 0 1-.071-.016c-.014-.004-.028-.02-.043-.044-.039-.07-.019-.127.061-.173l.86-.494c.179-.101.329-.15.451-.144a.52.52 0 0 1 .267.09.645.645 0 0 1 .212.228c.14.245.127.51-.038.796.217.095.47.277.757.547.052.043.09.072.115.087.025.014.06.025.105.031a.346.346 0 0 1 .071.012c.013.004.026.018.04.042.033.06.009.114-.077.162l-.473.27a.305.305 0 0 1-.116.042c-.034.004-.063-.016-.087-.06-.018-.03-.017-.068.002-.114.02-.046.021-.084.005-.112-.04-.071-.141-.166-.304-.286a2.51 2.51 0 0 0-.394-.25l-.211.186.307.541zm1.965-1.449c.073.104.131.172.172.203.042.031.09.038.142.02a1.2 1.2 0 0 0 .246-.142.672.672 0 0 0 .17-.157.394.394 0 0 0 .058-.211c-.002-.067-.001-.12.002-.158a.108.108 0 0 1 .046-.085.091.091 0 0 1 .076-.012c.03.006.054.023.071.048.036.05.08.15.135.295.027.068.037.116.03.142-.007.026-.036.058-.088.094l-1.12.785c-.075.053-.136.047-.182-.018-.016-.024-.023-.044-.022-.06a.436.436 0 0 1 .017-.07l.013-.036c.012-.04-.01-.102-.067-.183l-.956-1.363c-.06-.084-.11-.128-.153-.13l-.036.004c-.057-.003-.098-.02-.121-.054-.024-.034-.03-.066-.018-.098a.164.164 0 0 1 .062-.08l1.067-.747c.064-.046.116-.063.154-.052.052.021.127.102.226.244.058.081.059.141.004.18-.03.02-.085.017-.165-.01a.324.324 0 0 0-.224-.017.971.971 0 0 0-.246.136c-.099.07-.156.122-.173.157a.104.104 0 0 0 .003.125l.37.526.344-.242c.046-.032.074-.06.083-.084a.4.4 0 0 0 .022-.092c.005-.037.016-.062.036-.076.055-.038.128.008.22.139a.911.911 0 0 1 .11.189c.017.047.01.083-.025.106-.021.015-.05.019-.087.012a.462.462 0 0 0-.091-.01c-.025.002-.06.019-.104.05l-.345.241.344.491zm2.462-3.238c.179-.09.326-.132.441-.128.19.006.359.085.504.236.189.198.278.421.266.668a.88.88 0 0 1-.289.6 1.106 1.106 0 0 1-.477.275.946.946 0 0 1-.313.007.423.423 0 0 1-.26-.123.233.233 0 0 1-.065-.125c-.008-.047.002-.084.03-.11.045-.043.113-.047.204-.012.02.005.049.015.088.027l.09.025a.493.493 0 0 0 .149.013.548.548 0 0 0 .345-.156.463.463 0 0 0 .14-.281.359.359 0 0 0-.109-.31c-.086-.09-.182-.122-.287-.094-.084.014-.2.066-.345.156-.178.101-.33.158-.458.169a.712.712 0 0 1-.565-.234.867.867 0 0 1-.187-.3.809.809 0 0 1-.054-.336.794.794 0 0 1 .269-.534c.163-.156.353-.254.572-.295.052-.007.094.002.124.024.048.028.125.099.233.211.066.069.074.128.023.176-.022.021-.06.023-.112.007A11.582 11.582 0 0 1 57 54.25a.51.51 0 0 0-.232-.023.433.433 0 0 0-.228.125.367.367 0 0 0-.112.232.306.306 0 0 0 .093.252c.077.08.154.117.233.11a.813.813 0 0 0 .278-.086l.206-.102zm1.834-1.294l-.049-.023-.856-.339.499.84.406-.478zm.178 1.508a.355.355 0 0 1-.115.099c-.032.014-.066.005-.104-.027-.024-.02-.037-.056-.043-.108a.239.239 0 0 0-.03-.14l-.23-.328c-.16-.225-.38-.585-.661-1.079a7.031 7.031 0 0 1-.268-.496c-.025-.054-.033-.095-.027-.124a.317.317 0 0 1 .066-.107c.05-.059.095-.091.135-.097a.423.423 0 0 1 .189.041l1.643.647.336.159c.03.013.051.02.064.02a.427.427 0 0 0 .076-.008.112.112 0 0 1 .11.02c.06.053.06.115 0 .186l-.305.36c-.076.088-.142.107-.2.058-.03-.025-.042-.062-.036-.112.006-.049 0-.081-.019-.097-.045-.038-.192-.112-.44-.223l-.051-.027-.507.596c.01.012.037.052.083.119.045.067.085.123.118.167a.59.59 0 0 0 .087.098c.026.022.05.034.071.037a.23.23 0 0 0 .076-.007.291.291 0 0 1 .072-.01c.02 0 .04.009.062.028.036.03.047.063.036.099a.44.44 0 0 1-.088.137l-.1.12zm.694-4.382a.873.873 0 0 0-.102-.052c-.046-.01-.093.001-.141.037-.05.022-.097.019-.138-.01-.06-.04-.054-.113.017-.22l.135-.2c.07-.104.135-.136.195-.096.042.029.063.07.061.124-.014.06-.007.106.022.141.013.018.04.044.083.08l1.567 1.052c.086.059.136.104.15.136.014.033-.001.082-.046.15-.038.056-.078.085-.12.088a4.005 4.005 0 0 1-.42-.032l-1.731-.113 1.211.815a.852.852 0 0 0 .105.05c.021.005.038.007.054.004a.129.129 0 0 0 .043-.016l.041-.022c.047-.028.092-.028.136.002.06.04.055.114-.017.22l-.135.201c-.07.104-.135.136-.195.096-.045-.031-.064-.071-.056-.12a.554.554 0 0 0 .007-.083c0-.017-.01-.037-.028-.06a.817.817 0 0 0-.085-.078l-1.277-.86-.093-.06a.424.424 0 0 0-.088-.046.193.193 0 0 0-.08-.013.162.162 0 0 0-.081.034.305.305 0 0 1-.083.041c-.022.005-.048-.003-.08-.024-.066-.045-.069-.111-.01-.2l.213-.315a.336.336 0 0 1 .07-.085.304.304 0 0 1 .113-.024 3.87 3.87 0 0 1 .282 0c.107.005.208.01.303.017.095.005.227.015.396.027l.758.058-.956-.644zm1.919-1.752a2.312 2.312 0 0 0-.467-.176 1.003 1.003 0 0 0-.444-.022.402.402 0 0 0-.297.225c-.09.176-.044.368.137.575.131.149.31.281.54.396.148.075.303.133.465.176.163.042.312.051.45.027a.389.389 0 0 0 .299-.216.408.408 0 0 0 .009-.372.96.96 0 0 0-.274-.342 2.236 2.236 0 0 0-.418-.27m.228 1.636c-.315.074-.646.023-.991-.152a1.594 1.594 0 0 1-.433-.312 1.317 1.317 0 0 1-.272-.402 1.054 1.054 0 0 1-.089-.438 1.005 1.005 0 0 1 .387-.767c.118-.093.253-.16.404-.198.151-.038.312-.046.483-.024a1.6 1.6 0 0 1 .516.165c.225.113.406.26.542.444.136.182.216.376.24.581a.999.999 0 0 1-.101.578.958.958 0 0 1-.276.328c-.12.094-.257.16-.41.197M36.934 16.73c0-.033.008-.064.022-.09.014-.028.033-.041.056-.041h.056c.048 0 .083-.017.106-.05.016-.023.024-.07.024-.142v-1.097a.266.266 0 0 0-.016-.109c-.016-.015-.04-.023-.071-.023h-.157c-.042 0-.067-.005-.075-.015a1.102 1.102 0 0 1-.008-.197c.003-.01.043-.02.12-.03a.8.8 0 0 0 .207-.049.602.602 0 0 0 .191-.115c.053-.047.099-.071.139-.071.069 0 .102.054.102.162v1.544c0 .064.01.11.027.138.022.036.049.054.08.054h.059c.06 0 .09.044.09.131 0 .096-.029.144-.087.144h-.778c-.058 0-.087-.048-.087-.144m2.451-1.528a.182.182 0 0 0-.081-.163.383.383 0 0 0-.215-.054c-.223.006-.334.086-.334.241 0 .08.047.141.142.185.094.044.16.067.196.067a.426.426 0 0 0 .169-.072.23.23 0 0 0 .123-.204m-.48.595a.465.465 0 0 0-.098.054.609.609 0 0 0-.16.147.368.368 0 0 0-.076.221c0 .11.04.196.12.257a.48.48 0 0 0 .3.092.548.548 0 0 0 .279-.082.278.278 0 0 0 .126-.222c0-.162-.06-.277-.184-.345a.986.986 0 0 0-.307-.122m-.26-.122a.49.49 0 0 1-.259-.199.467.467 0 0 1-.072-.27c.011-.196.089-.33.232-.404.144-.075.312-.112.504-.112.196.003.359.048.49.135.13.088.195.212.195.372-.004.23-.114.374-.33.433a.55.55 0 0 1 .287.182.57.57 0 0 1 .125.349c0 .26-.066.446-.199.557-.132.112-.336.17-.611.175-.254 0-.446-.06-.576-.177-.13-.117-.195-.282-.195-.492a.605.605 0 0 1 .063-.267.543.543 0 0 1 .346-.282m2.321.068a.332.332 0 0 0-.268.127.458.458 0 0 0-.097.29c0 .112.032.208.097.29a.332.332 0 0 0 .268.128.337.337 0 0 0 .271-.122.438.438 0 0 0 .095-.281.527.527 0 0 0-.043-.209.387.387 0 0 0-.126-.161.32.32 0 0 0-.197-.062m.428-.884a1.105 1.105 0 0 1-.117.033.798.798 0 0 0-.445.285.84.84 0 0 0-.177.399l.045-.044a.341.341 0 0 1 .128-.068.74.74 0 0 1 .236-.03c.205 0 .37.065.494.195.125.13.187.328.187.595-.011.22-.09.388-.237.5a.892.892 0 0 1-.558.168.753.753 0 0 1-.427-.117.735.735 0 0 1-.268-.318 1.075 1.075 0 0 1-.083-.576 1.42 1.42 0 0 1 .185-.618c.1-.162.212-.284.336-.363a1.25 1.25 0 0 1 .611-.21c.04 0 .07.01.092.028.023.02.034.04.034.066 0 .03-.012.054-.036.075m1.598.457c0-.066-.013-.099-.04-.099-.059 0-.168.103-.326.31-.144.19-.217.343-.217.462.011.02.043.029.096.029h.487v-.702zm.429.962v.129c0 .064.009.11.027.137.02.037.048.054.083.054h.054c.027 0 .048.012.066.035a.158.158 0 0 1 .025.093c0 .099-.03.147-.087.147h-.774c-.053 0-.08-.042-.08-.127 0-.098.028-.148.083-.148h.043a.133.133 0 0 0 .11-.048.333.333 0 0 0 .021-.143v-.13h-.83c-.058 0-.092-.013-.102-.042a.22.22 0 0 1-.013-.074c0-.09.04-.214.116-.369.077-.155.178-.314.302-.476a2.078 2.078 0 0 1 .601-.539.514.514 0 0 1 .221-.076c.09 0 .134.043.134.127v1.19h.24c.048 0 .075.043.078.128 0 .088-.025.132-.075.132h-.243z"/><path d="M0 0h80v80H0z"/></g></svg>
