<svg xmlns="http://www.w3.org/2000/svg" xmlns:xlink="http://www.w3.org/1999/xlink" viewBox="0 0 50 50"><defs><path id="a" d="M0 .009v31.51h32.673V.009z"/><path id="c" d="M11.381 7.132H.018V.02h11.363z"/></defs><g fill="none" fill-rule="evenodd"><g transform="translate(8.5 11.331)"><mask id="b" fill="#fff"><use xlink:href="#a"/></mask><path fill="#FFF" d="M32.43 14.08a.948.948 0 0 0-.584-.305 4.86 4.86 0 0 0 .445-1.42.949.949 0 0 0-.539-1.01 4.76 4.76 0 0 0 .132-.874.95.95 0 0 0-.475-.881l-.03-.014c.053-.26.081-.537.08-.833a.949.949 0 0 0-.776-.927 3.937 3.937 0 0 0-.05-.453.948.948 0 0 0-.813-.783 3.402 3.402 0 0 0-.173-.867.947.947 0 0 0-.716-.63v-.475c-.546-.49-5.34-4.6-12.57-4.6-7.284 0-11.99 4.068-12.573 4.599v.467a.948.948 0 0 0-.762.64c-.1.3-.157.588-.174.866a.948.948 0 0 0-.813.783 3.937 3.937 0 0 0-.05.453.949.949 0 0 0-.775.927c-.001.296.026.573.08.833l-.03.014a.95.95 0 0 0-.476.88c.02.31.064.602.132.874a.949.949 0 0 0-.538 1.012 4.86 4.86 0 0 0 .445 1.419.947.947 0 0 0-.76 1.291c.151.38.323.705.507.986A.947.947 0 0 0 .2 17.308c.236.46.495.84.764 1.153a.94.94 0 0 0-.233 1.222c.303.52.63.933.965 1.263a.944.944 0 0 0-.069 1.24c.5.643 1.014 1.1 1.517 1.424a.946.946 0 0 0-.007 1.456 6.6 6.6 0 0 0 1.583 1.005.948.948 0 0 0 .119 1.567c.832.475 1.59.724 2.272.83a.948.948 0 0 0 .424 1.49c.84.294 1.58.41 2.232.41.525 0 .989-.077 1.4-.197.076.105.159.186.251.237l.003.002c1.47.756 3.038 1.109 4.94 1.11 1.898-.001 3.467-.354 4.94-1.112a.784.784 0 0 0 .243-.225c.401.113.853.186 1.362.186.65 0 1.393-.117 2.232-.412a.949.949 0 0 0 .424-1.49c.681-.105 1.44-.354 2.272-.83a.949.949 0 0 0 .118-1.566 6.596 6.596 0 0 0 1.583-1.005.949.949 0 0 0-.006-1.456c.503-.324 1.017-.781 1.516-1.423a.949.949 0 0 0-.068-1.241c.335-.33.661-.743.965-1.263a.949.949 0 0 0-.233-1.222c.269-.314.528-.692.763-1.153a.949.949 0 0 0-.374-1.256c.185-.281.356-.607.507-.986a.949.949 0 0 0-.176-.985" mask="url(#b)"/></g><path fill="#FFF" d="M30.219 41.217l.028-.07-.029.07m-.048.091l.001-.003-.001.003M30.39 37.948l-.023-.094.023.094M19.357 37.852l-.023.096.023-.096m-.03.167"/><path fill="#000" d="M19.178 39.296c0-.023.006-.513.094-1.057a4.39 4.39 0 0 1 .143-.617c-3.404-2.406-7.127-6.089-7.127-10.694V16.633a.725.725 0 0 0-.55.482 2.997 2.997 0 0 0-.165 1.018.726.726 0 0 0-.813.598 3.49 3.49 0 0 0-.05.626.723.723 0 0 0-.773.719c-.002.37.043.689.117.967a.726.726 0 0 0-.543.746c.024.392.09.733.182 1.032a.723.723 0 0 0-.59.83c.12.743.36 1.305.648 1.734a.726.726 0 0 0-.976.93c.189.475.411.861.651 1.178a.724.724 0 0 0-.527 1.045c.28.548.594.976.92 1.31a.724.724 0 0 0-.395 1.054c.35.599.731 1.05 1.119 1.391a.723.723 0 0 0-.24 1.088c.549.706 1.159 1.23 1.819 1.576l-.035.006a.725.725 0 0 0-.306 1.264c.668.56 1.355.95 2.054 1.168a1.278 1.278 0 0 0-.309.082.726.726 0 0 0-.076 1.298c1.078.616 2.03.841 2.84.858a1.4 1.4 0 0 0-.34.154.726.726 0 0 0 .159 1.291c.809.284 1.523.397 2.15.396.48 0 .907-.066 1.287-.172-.117-.236-.209-.553-.274-.951a7.818 7.818 0 0 1-.094-1.055m21.585-13.734a.726.726 0 0 0-.841-.177c.288-.429.527-.991.648-1.734a.725.725 0 0 0-.59-.83c.092-.3.158-.64.181-1.032a.725.725 0 0 0-.542-.746c.074-.278.118-.598.116-.967a.726.726 0 0 0-.772-.719c.003-.2-.014-.409-.05-.626a.725.725 0 0 0-.814-.599 2.997 2.997 0 0 0-.164-1.017.726.726 0 0 0-.504-.472v10.285c0 4.61-3.722 8.293-7.127 10.697.057.178.105.38.142.614a7.81 7.81 0 0 1 .095 1.055c0 .022-.006.513-.095 1.057-.065.405-.16.725-.28.963.37.099.785.16 1.248.16.626 0 1.341-.112 2.15-.396a.725.725 0 0 0 .159-1.29 1.393 1.393 0 0 0-.34-.155c.81-.017 1.762-.242 2.84-.858a.726.726 0 0 0-.076-1.298 1.292 1.292 0 0 0-.316-.083c.638-.196 1.333-.557 2.06-1.168a.725.725 0 0 0-.306-1.263c-.011-.003-.022-.004-.034-.006.596-.31 1.218-.804 1.818-1.576a.726.726 0 0 0-.24-1.088 5.57 5.57 0 0 0 1.12-1.391.726.726 0 0 0-.396-1.053c.326-.335.64-.763.92-1.311a.726.726 0 0 0-.527-1.045c.24-.317.463-.703.652-1.178a.726.726 0 0 0-.135-.753"/><path fill="#A39161" d="M16.953 36.441c.282-.118.523-.156.708-.164-.387-.322-.768-.66-1.139-1.013-.816-.188-1.619.116-2.373.27-1.215.245-1.71.094-1.902.137 2.29 1.92 4.081 1.034 4.706.77m-1.84-1.842c.312-.06.564-.04.74-.003a17.282 17.282 0 0 1-1.096-1.26c-.674-.24-1.408-.139-2.079-.147-1.183-.014-1.615-.255-1.802-.253 1.75 2.25 3.6 1.784 4.236 1.663m-1.384-2.024c.196-.01.36.009.497.038a12.7 12.7 0 0 1-.79-1.296c-.559-.245-1.193-.247-1.765-.33-1.082-.157-1.448-.43-1.62-.451 1.33 2.275 3.08 2.072 3.678 2.04m-.832-2.26c.026 0 .05.004.075.005a9.649 9.649 0 0 1-.414-1.26c-.482-.207-1.024-.246-1.513-.345-1.01-.204-1.34-.48-1.5-.51 1.131 2.21 2.788 2.11 3.352 2.11m-.627-2.097c.043.004.082.01.121.017a8.594 8.594 0 0 1-.096-1.03c-.456-.338-1.038-.423-1.547-.577-.885-.268-1.157-.543-1.298-.582.825 2.072 2.316 2.124 2.82 2.172m-.317-2.138c.137.045.247.1.336.157v-.932c-.342-.5-.922-.71-1.403-.98-.753-.422-.946-.727-1.066-.791.334 2.054 1.683 2.401 2.133 2.546m-.048-1.877c.179.078.302.175.384.256v-.886c-.255-.495-.764-.738-1.175-1.028-.632-.444-.776-.733-.877-.801.112 1.858 1.28 2.29 1.668 2.46m-.016-2.036c.303.157.398.368.4.373v-.711c-.14-.518-.598-.765-.955-1.053-.49-.395-.591-.638-.67-.698-.008 1.517.92 1.93 1.225 2.089m.36-1.325l.04.034V19.9c-.108-.12-.224-.232-.327-.347-.372-.413-.426-.64-.486-.703-.221 1.32.528 1.812.772 1.993m23.277 14.69c-.734-.15-1.515-.441-2.308-.284-.376.36-.763.703-1.155 1.03.177.012.401.053.658.161.625.264 2.417 1.15 4.706-.77-.19-.044-.686.108-1.901-.138m-.541-2.22c-.345.442-.716.866-1.104 1.273.172-.029.401-.04.681.013.636.12 2.486.588 4.236-1.663-.187-.002-.618.239-1.802.253-.648.008-1.356-.087-2.011.124m1.316-2.022c-.236.451-.502.888-.794 1.31.125-.022.27-.035.44-.026.597.033 2.348.236 3.677-2.04-.171.022-.537.295-1.62.452-.55.08-1.159.086-1.703.304m.869-2.252a9.65 9.65 0 0 1-.418 1.28l.027-.002c.563 0 2.22.098 3.35-2.11-.16.029-.49.305-1.498.509-.472.096-.992.136-1.461.323m3.056-2.992c-.141.039-.413.314-1.299.582-.491.15-1.05.233-1.5.543-.01.358-.042.71-.095 1.057.025-.003.047-.008.074-.01.504-.048 1.995-.1 2.82-2.172m-.37-2.512c-.12.064-.313.369-1.066.792-.46.258-1.01.461-1.357.915v.966c.08-.046.176-.09.29-.127.45-.145 1.798-.492 2.133-2.546m-.417-1.79c-.101.068-.245.357-.877.801-.388.273-.862.504-1.129.943v.927c.08-.07.19-.147.338-.212.387-.17 1.556-.6 1.668-2.459m-1.653.424c.306-.159 1.234-.572 1.226-2.09-.08.061-.18.304-.67.7-.325.26-.732.488-.909.915v.77a.981.981 0 0 1 .353-.295m.413-3.318c-.06.064-.114.29-.485.703-.088.099-.187.195-.28.296v.99c.249-.185.985-.678.765-1.99m-6.715 20.692c-.318-.2-.631-.439-.96-.652.017.233.019.392.019.404 0 .023-.006.513-.095 1.057a5.461 5.461 0 0 1-.051.273c.747.19 1.708.198 2.929-.23-.174-.115-.725-.15-1.842-.852m2.416-1.902c-.82-.327-1.668-.849-2.646-.712-.317.243-.633.474-.948.696.022.068.042.14.06.217.131.051.273.12.424.218.605.395 2.313 1.663 5.075.086-.192-.081-.74-.017-1.965-.505m-14.626 2.71a7.818 7.818 0 0 1-.094-1.054c0-.013.003-.187.022-.438-.347.222-.676.475-1.01.684-1.117.702-1.667.737-1.841.851 1.245.437 2.219.42 2.972.219a5.433 5.433 0 0 1-.049-.261m.144-2.73a28.72 28.72 0 0 1-.932-.684c-1.005-.169-1.87.37-2.71.703-1.225.488-1.773.424-1.965.505 2.762 1.577 4.47.31 5.075-.086.171-.112.33-.185.475-.236a3.47 3.47 0 0 1 .057-.202"/><path fill="#000" d="M23.331 35.827V14.534c-1.11.111-2.127.338-3.043.625v19.785c.58.424 1.153.8 1.691 1.13.435-.109.884-.192 1.352-.247m9.157-3.65c1.502-1.756 2.262-3.574 2.262-5.43v-8.692c-.236-.207-1.023-.865-2.262-1.562v15.684zM14.969 18.054v8.692c0 1.854.76 3.672 2.262 5.428V16.482c-1.244.7-2.028 1.364-2.262 1.572m12.773 18.021a25.29 25.29 0 0 0 1.69-1.127V15.167a15.292 15.292 0 0 0-3.044-.632v21.293c.47.055.92.138 1.354.247"/><path fill="#000" d="M24.86 11.629c-7.14 0-11.754 3.988-12.325 4.508V26.91c0 4.506 3.636 8.113 6.968 10.472.113-.262.25-.441.415-.532a9.604 9.604 0 0 1 1.764-.699 24.345 24.345 0 0 1-2.18-1.524c-3.154-2.489-4.754-5.14-4.754-7.88v-8.792l.036-.033c.415-.377 4.22-3.687 10.076-3.687 5.801 0 9.654 3.31 10.074 3.688l.037.033v8.79c0 2.743-1.598 5.394-4.75 7.881a24.482 24.482 0 0 1-2.178 1.526 9.587 9.587 0 0 1 1.755.696c.167.091.306.273.419.536 3.332-2.358 6.967-5.964 6.967-10.475V16.138c-.535-.48-5.235-4.51-12.324-4.51"/><path fill="#FFF" d="M38.715 38.233c-.076-.524-.297-1.052-.505-1.501l-.023-.042-.182-.277c-.237-.373-.51-.784-.942-.991l-.356-.674a.187.187 0 0 0-.022-.034c-.464-.58-.999-1.112-1.516-1.626l-.207-.206c-.059-.33-.255-.57-.436-.782a2.024 2.024 0 0 1-.303-.415.21.21 0 0 0-.088-.092c-.345-.19-.737-.743-.944-1.19l-.342-.58c.107.046.214.097.317.148l.226.11c.916.376 1.698.79 2.602 1.27l.273.145.254.16c.153.105.297.203.525.26.18.053.515-.003.632-.297l.013-.048c.056-.397-.224-.809-.448-1.14l-.07-.103-.266-.383c-.535-.77-1.088-1.568-1.849-2.211-.002-.004-.437-.443-.437-.443a.223.223 0 0 0-.027-.023c-1.205-.868-2.06-1.952-2.965-3.1-.765-.97-1.557-1.973-2.575-2.825l-.016-.012c-1.248-.854-2.349-2.024-3.414-3.155l-1.294-1.345c-.58-.5-1.101-.93-1.685-1.257l-.424-.404c-.719-.67-1.404-1.308-1.404-2.156 0-.169.027-.346.087-.533l.023-.071c.26-.802.527-1.631 1.261-2.144a.217.217 0 0 0 .045-.042l.75-.938c.917-.678 2.15-1.497 3.581-1.855a.025.025 0 0 0 .013-.008l.164-.183c.035-.121-.026-.219-.056-.265l-.01-.017a.295.295 0 0 0-.064-.074c-.49-.356-1.081-.45-1.597-.509a12.712 12.712 0 0 0-3.098-.004c-.71-.214-2.962-.772-4.687.111-.613.326-.829.91-1.002 1.378-.091.245-.177.477-.299.613-1.382 1.302-1.958 2.8-2.568 4.384l-.273.702-.112.247c-.344.762-.804 1.8-1.333 2.46a1.077 1.077 0 0 0-.063.11c-.081.192-.29.763-.317 1.014-.062.553.043 1.097.213 1.46.196.418.542.768.728 1.04.51.799.944 1.342 1.41 2.16.906 1.583 1.8 3.192 3.036 4.677l.015.016a8.079 8.079 0 0 0 3.957 2.168c.613.646 1.036 1.645 1.51 2.374 0 0 .505.867.527.899.058.1.048.2.048.306 0 .138.04.29-.012.48a2.3 2.3 0 0 0-.107.61v.012c.004.077.007.152.007.226 0 .467.176.894-.026 1.423a11.38 11.38 0 0 1-.335.768c.401-.09.815-.156 1.246-.201l.355-.687c.164-.33.405-.6.617-.837.26-.292.485-.544.518-.842.021-.483.07-1.087.248-1.64a.957.957 0 0 0 .264-.239c.068-.09.09-.19.09-.287 0-.106-.026-.211-.049-.305a.984.984 0 0 1-.037-.199c0-.035.013-.045.03-.053.292-.094.637-.056.872.095.138.147.226.323.316.51.083.172.174.347.303.513.062.24.08.501.1.778.033.517.076 1.048.414 1.481a.937.937 0 0 1 .047.297c0 .33-.147.669-.272.955l-.071.166a6.568 6.568 0 0 1-.19.409c.36.063.71.141 1.049.24.22-.387.434-.784.624-1.204.104-.27.133-.55.154-.827.065.108.13.216.195.328.228.39.465.79.787 1.156.29.497.66 1.23.837 1.803a.2.2 0 0 0 .046.08c.307.32.786.47 1.349.424.88-.128 1.062.032 1.183.138a.51.51 0 0 0 .264.144l2.015.028c.606-.033 1.232-.066 1.87.003l1.047.238a.216.216 0 0 0 .26-.241"/><path fill="#000" d="M34.318 33.354c-.378-.085-.624-.485-.938-.725-.166-.193-.294-.4-.45-.598-.087-.042-.145.002-.149.107-.16.548.896 1.531 1.281 2.326.075.208.214.443.129.662-.209.123-.843-.024-1.006-.084-.37-.222-.585-1.155-1.065-1.752-.096-.047-.09-.192-.213-.17-.155.139.015.299.02.449.135.335.433.628.406 1.002l-.192-.021c-.406-.555-.758-1.153-1.218-1.665-.193.144 0 .342 0 .512.166.427.476.79.534 1.26 0 .149-.197.074-.277.063-.77-.714-1.004-1.728-1.644-2.54-.097-.005-.129.086-.171.15.128.72.624 1.292.555 2.092-.038.02-.054.085-.107.064-.48-.7-1.233-1.478-.748-2.39.246-.78-.393-1.51-.02-2.263.24-.25.592-.214.917-.17.166-.225.08-.567.406-.705.277-.187.71-.107.983.043 1.052 1.302 1.921 2.678 2.946 3.99.005.124.176.273.021.363m-5.807-7.32c-.22-.182-.416-.422-.683-.491-.114.013-.1.099-.1.147.133.192.638.266.484.493-.347.214-.65-.181-.96-.32-.956-.737-1.873-1.601-2.775-2.412-.233-.222-.41-.519-.342-.576.052-.072.406.146.525.205.118.06.116-.077.116-.077-.801-.876-2.327-1.49-2.242-2.86a.443.443 0 0 1 .214-.278c.311-.238 2.86.547 3.927 1.174 1.153.619 2.177 1.649 2.924 2.753.011.054.027.107.022.171-.07.11-.233.007-.384-.107-.187-.128-.353-.299-.555-.384l-.064.064c.432.566 1.354.923 1.349 1.723l-.134.015c-.382-.252-.751-.596-1.151-.735-.102.048 0 .129.042.171.397.283.813.564 1.196.897a.5.5 0 0 1 .064.427h-.128c-.32-.23-.586-.433-1.004-.598-.084.17.106.254.3.384.296.166.962.359.682.704-.523.411-.964-.212-1.323-.49m-5.832-9.119l-.064-.234c.63.336 1.23.796 1.751 1.344.56.505 1.198 1.335 1.195 1.43-.1.083-.528-.39-.876-.384-.218.052.064.363-.106.427-.23.084-1.34-.432-1.75-1.004.059-.026.185-.023.17-.106.056-.093-.429-.258-.362-.427 0 0 .11.094.192.064.203-.192-.367-.397-.043-.555.017-.192-.202-.334-.276-.467.047-.029.121-.04.17-.088m-2.877-9.366c-.175.019-.54-.261-.684.043-.064.176.064.491-.192.534-.15.016-.355.006-.362-.15-.038-.208-.047-.443.085-.619.132-.282.502-.476.908-.405a.59.59 0 0 1 .437.384c.037.133-.067.18-.192.213m-3.522 2.668c.207.31-.72.464-.085.598.118.481-.742.613-1.068.96.011.06-.015.159.107.129.298-.027.739-.534.811-.278.064.347-.336.384-.534.512-.246.118-.539.256-.661.534-.048.136.165.09.235.064.255-.075.606-.506.704-.363.042.133-.059.262-.15.363-.352.267-.923.213-1.089.704-.015.124.209.192.342.129.224-.102.517-.568.64-.385.054.16-.074.32-.213.406-.608.544-1.25 1.008-1.984 1.238-.092-.129-.017-.3.02-.427a20.545 20.545 0 0 1 2.177-4.589c.198-.23.625-.39.833-.107-.011.31-.448.235-.491.512.123.096.273 0 .406 0m4.418-.832c.463-1.006.55-.848 1.238-.768.3-.045.475-.235.64-.449l-.043-.064c-.389.09-.773.39-1.194.214-.166-.123-.204-.326-.15-.513.363-.437 1.19-.054 1.628-.396.141-.176-.22-.244-.305-.308-.08-.043-.234.01-.234-.128.16-.123.405-.06.592-.075.306-.003.722-.158.73.096 0 .454-.766.61-.682.918.111.208.322.114.49.043.416-.182.758-.545 1.196-.683.09-.022.144.027.15.107v.063c-1.18.614-2.269 1.463-3.373 2.263-.203.119-.4.24-.64.17-.176-.106-.027-.325-.043-.49m.085-2.22c.139-.144.358-.165.534-.15v.107c-.087.111-.278.262-.47.17-.032-.036-.085-.068-.064-.127m17.228 29.649c-.294-.416-.578-1.031-1.111-1.24l-.384-.726c-.529-.661-1.142-1.248-1.75-1.856-.043-.512-.518-.767-.737-1.21-.4-.223-.815-.816-1.034-1.287-.172-.305-.419-.714-.597-1.011.341 0 .756.252 1.082.4 1.009.415 1.854.875 2.887 1.422.301.165.432.327.73.401.103.03.312 0 .38-.166.05-.352-.277-.782-.484-1.093-.634-.902-1.215-1.824-2.075-2.55l-.45-.456c-2.29-1.649-3.39-4.125-5.553-5.934-1.76-1.205-3.18-2.972-4.738-4.525-.534-.458-1.073-.912-1.665-1.238-.939-.933-2.284-1.851-1.814-3.33.268-.829.549-1.755 1.366-2.326l.768-.96c1.131-.838 2.31-1.559 3.651-1.9.1-.048.031-.112 0-.17-.433-.315-.952-.407-1.495-.47a12.475 12.475 0 0 0-3.095 0c-1.393-.427-3.234-.598-4.567.085-.853.454-.835 1.494-1.239 1.943-1.563 1.473-2.081 3.208-2.801 5.022-.345.756-.878 2.006-1.489 2.768-.25.597-.576 1.307-.035 2.444.161.34.37.538.54.786 1.855 2.564 2.649 4.716 4.512 6.952a7.862 7.862 0 0 0 3.927 2.134c1.195.963 1.34 2.236 2.146 3.351.293.507-.09.998-.086 1.516.038.65.18 1.17-.033 1.728-.072.188-.167.408-.275.641.237-.047.48-.086.727-.117.186-.358.341-.66.42-.817.371-.743 1.066-1.166 1.114-1.606.026-.609.09-1.206.277-1.75.096-.065.184-.112.277-.235.186-.248-.266-.742.128-.918.353-.117.79-.075 1.09.128.324.33.389.768.682 1.11.202.741-.01 1.654.513 2.262.197.571-.137 1.185-.3 1.58a6.504 6.504 0 0 1-.168.369c.208.041.412.089.613.143.228-.4.449-.806.644-1.238.16-.417.128-.913.192-1.366.475.635.768 1.38 1.323 1.998.311.534.681 1.275.86 1.853.315.325.787.385 1.17.353 1.307-.19 1.266.248 1.5.284 1.263.186 2.52-.118 3.883.03l1.063.242c-.073-.501-.293-1.023-.49-1.45"/><g transform="translate(19.16 35.719)"><mask id="d" fill="#fff"><use xlink:href="#c"/></mask><path fill="#FFF" d="M11.287 2.52c-.123-.753-.34-1.22-.65-1.39C9.169.374 7.6.02 5.698.02 3.8.02 2.23.374.76 1.131c-.307.168-.524.636-.646 1.39a7.826 7.826 0 0 0-.095 1.056c0 .02.006.51.095 1.055.122.753.34 1.22.646 1.389l.002.001c1.47.757 3.038 1.11 4.94 1.11 1.899 0 3.467-.353 4.94-1.111.306-.168.523-.636.646-1.39a7.79 7.79 0 0 0 .094-1.056c0-.02-.006-.51-.094-1.055" mask="url(#d)"/></g><path fill="#000" d="M24.085 39.43h-.074c-.089 0-.185.066-.185.247v.383c0 .182.096.247.185.247h.074c.089 0 .185-.065.185-.247v-.383c0-.181-.096-.247-.185-.247m0-1.148h-.074c-.089 0-.185.066-.185.248v.29c0 .181.096.247.185.247h.074c.089 0 .185-.066.185-.247v-.29c0-.182-.096-.248-.185-.248m1.576 0c-.131 0-.208.047-.208.232v.518c0 .186.077.232.208.232.116 0 .209-.054.209-.232v-.518c0-.185-.077-.232-.209-.232"/><path fill="#000" d="M29.234 41.104l-.017.012c-1.298.666-2.68.973-4.356.973-1.682 0-3.065-.308-4.355-.97l-.017-.011c-.255-.207-.398-1.184-.405-1.812.007-.623.15-1.597.4-1.81l.019-.013c1.296-.665 2.678-.972 4.355-.973 1.68 0 3.064.31 4.355.97l.017.012c.256.208.399 1.185.405 1.811-.007.624-.15 1.598-.4 1.81m.463-4.067c-1.436-.74-2.974-1.084-4.837-1.085-1.867 0-3.405.346-4.843 1.086-.499.274-.622 1.724-.628 2.259.006.533.129 1.98.63 2.257 1.437.74 2.975 1.085 4.837 1.086 1.867 0 3.405-.346 4.844-1.087.499-.274.622-1.723.628-2.258-.006-.533-.13-1.983-.63-2.258"/><path fill="#000" d="M27.91 38.785c0 .34-.224.487-.479.734-.224.216-.37.363-.37.51v.247h.85v.371h-1.284v-.626c0-.344.282-.564.553-.823.205-.197.297-.278.297-.421v-.263c0-.185-.088-.232-.212-.232s-.205.047-.205.232v.394h-.425v-.44c0-.402.224-.557.634-.557h.007c.41 0 .634.155.634.557v.317zm-1.607 1.337c0 .402-.217.556-.626.556h-.008c-.41 0-.626-.154-.626-.556v-.255h.433v.208c0 .186.066.232.197.232s.197-.046.197-.232v-.556c-.062.066-.135.12-.317.12-.31 0-.533-.155-.533-.557v-.614c0-.402.228-.557.638-.557h.007c.41 0 .638.155.638.557v1.654zm-1.6-1.306c0 .17-.039.39-.263.425.236.046.263.32.263.467v.398c0 .38-.201.572-.595.572h-.12c-.394 0-.595-.193-.595-.572v-.398c0-.147.027-.42.263-.467-.224-.035-.263-.255-.263-.425v-.333c0-.378.201-.572.595-.572h.12c.394 0 .595.194.595.572v.333zm-1.62 1.831H21.81v-.378h.44v-1.867l-.44.135v-.401l.556-.194h.317v2.327h.402v.378zm5.952-2.977c-1.236-.633-2.563-.928-4.177-.928-1.61 0-2.935.294-4.169.925-.14.13-.315.878-.324 1.628.01.736.182 1.503.32 1.625 1.234.633 2.56.928 4.173.928h.003c1.61 0 2.935-.294 4.169-.925.14-.13.315-.878.324-1.63-.008-.734-.181-1.5-.32-1.623z"/><path d="M0 0h50v50H0z"/></g></svg>
