<svg xmlns="http://www.w3.org/2000/svg" viewBox="0 0 80 80"><g fill="none" fill-rule="evenodd"><path fill="#FFF" d="M32.668 60.184h-3.453v-2.1c0-.611-.038-.993-.112-1.144-.073-.151-.235-.227-.487-.227-.284 0-.464.092-.54.277-.077.184-.115.582-.115 1.194v5.615c0 .588.038.971.115 1.15.076.18.248.27.516.27.257 0 .424-.091.504-.271.079-.18.119-.601.119-1.265v-1.521h3.453v.471c0 1.25-.098 2.137-.292 2.66-.193.523-.623.98-1.288 1.375-.663.393-1.482.59-2.455.59-1.012 0-1.845-.166-2.501-.5-.657-.333-1.091-.795-1.305-1.383-.214-.59-.32-1.476-.32-2.66v-3.53c0-.87.033-1.521.099-1.957.065-.435.26-.854.586-1.257.325-.403.776-.72 1.353-.951.577-.232 1.24-.348 1.99-.348 1.016 0 1.855.18 2.517.538.661.357 1.096.802 1.304 1.336.208.534.312 1.364.312 2.49v1.148zm5.216 2.508a142.736 142.736 0 0 1-.524-5.071c-.348 2.313-.568 4.003-.658 5.071h1.182zm1.826-7.763l1.981 12.073h-3.53l-.186-2.173H36.74l-.198 2.173h-3.58l1.755-12.073h4.994zM48.17 54.929v2.657h-2.058v9.415h-3.454v-9.415h-2.04v-2.657z"/><path fill="#FFF" d="M55.293 58.585h-3.205v-.899c0-.418-.042-.686-.124-.8-.081-.116-.219-.173-.41-.173a.536.536 0 0 0-.473.232c-.106.154-.16.39-.16.703 0 .405.06.71.18.914.112.205.436.451.972.738 1.538.827 2.505 1.507 2.904 2.04.4.531.599 1.39.599 2.575 0 .86-.111 1.495-.332 1.902-.222.41-.65.751-1.283 1.027-.634.277-1.373.415-2.214.415-.925 0-1.713-.16-2.366-.478-.653-.32-1.08-.725-1.283-1.217-.202-.493-.302-1.192-.302-2.099v-.79H51v1.473c0 .455.045.745.136.876.09.13.25.195.48.195.23 0 .4-.083.514-.247.111-.165.168-.41.168-.734 0-.712-.107-1.178-.319-1.397-.218-.22-.756-.584-1.616-1.095-.859-.517-1.429-.891-1.707-1.125-.279-.234-.51-.558-.693-.97-.184-.413-.275-.94-.275-1.582 0-.927.13-1.603.39-2.03.26-.428.679-.763 1.26-1.004.578-.241 1.279-.363 2.1-.363.896 0 1.66.132 2.292.397.631.263 1.05.595 1.254.996.205.4.308 1.082.308 2.043v.477zM16.562 15.861l-.776.293.576.597a5.895 5.895 0 0 1-1.906 9.51l-.407.175.09.435c2.88 14.097 12.446 26.07 25.59 32.029l.225.102.225-.102c13.144-5.96 22.71-17.932 25.59-32.029l.089-.435-.407-.175a5.895 5.895 0 0 1-1.908-9.508l.576-.597-.776-.293c-7.469-2.82-15.339-4.25-23.392-4.25-8.052 0-15.921 1.429-23.39 4.248"/><path fill="#024" d="M61.343 20.846c0-1.738.69-3.313 1.808-4.472-.293-.11-.588-.219-.883-.325a7.308 7.308 0 0 0 1.915 11.16c-2.926 13.14-12.092 23.926-24.23 29.088-12.137-5.162-21.303-15.949-24.229-29.089a7.308 7.308 0 0 0 1.913-11.161c-.295.106-.59.214-.883.325a6.443 6.443 0 0 1-2.082 10.39c2.889 14.133 12.466 25.83 25.282 31.64 12.814-5.81 22.393-17.507 25.28-31.64a6.443 6.443 0 0 1-3.89-5.916"/><path fill="#024" d="M22.798 24.407c-.259-.177-.71-.401-.666-.545.101-.338 2.513-.346 2.96 1.408.368 1.44.75 3.271 1.579 3.57.872.312 1.392 0 1.769-.262 0 0 1.342-1.128 2.484-1.15 1.006-.02 1.721.29 2.591.754 0 0 1.677 1.044 2.857 1.005 1.18-.039 1.856-.715 2.417-1.083.56-.367 2.09-1.303 3.074-.83.483.23.096.947-.097 1.294-.13.236-.643 1.308.232 1.683 1.191.51 4.466-2.824 7.173-2.824 1.143 0 2.485 1.151 2.485 1.151.377.261.899.58 1.769.261.825-.302 1.266-2.185 1.567-3.523.406-1.81 2.795-1.77 2.82-1.45.014.155-.345.346-.612.506-.285.17-.301.244.258.421 1.252.398 2.47.845 3.612 1.3a8.477 8.477 0 0 1-1.814-5.247c0-1.968.671-3.78 1.795-5.225a65.595 65.595 0 0 0-21.1-3.462 65.63 65.63 0 0 0-21.096 3.46 8.485 8.485 0 0 1 1.797 5.227 8.48 8.48 0 0 1-1.805 5.237 43.65 43.65 0 0 1 3.615-1.29c.584-.177.524-.256.336-.386m22.8 20.186c-.405.467-1.919 2.791-2.587 3.586-.68.807-1.759 1.586-3.063 1.586-1.303 0-2.382-.78-3.062-1.586-.669-.795-2.183-3.119-2.587-3.586-.81-.934-2.042-.9-4.183-.376a27.83 27.83 0 0 0-3.59 1.16 40.322 40.322 0 0 0 13.43 9.626A40.309 40.309 0 0 0 53.38 45.38a27.95 27.95 0 0 0-3.6-1.164c-2.141-.524-3.373-.558-4.183.376"/><path fill="#024" d="M41.126 38.295c-.38.3-.821.675-1.198.675-.376 0-.819-.375-1.198-.675-.138-.116-.112-.275.232-.328.234-.036.54-.06.966-.06.425 0 .732.024.967.06.343.053.369.212.23.328zm.011 7.365l.402.406s.305-.489.319-1.286c0 0 .34.711.251 1.33-.014.1-.047.352-.3.43-.25.08-.86.302-1.846.302-.986 0-1.595-.222-1.847-.302-.251-.078-.285-.33-.299-.43-.088-.619.251-1.33.251-1.33.015.797.32 1.286.32 1.286l.4-.406.354.512.463-.445.358.502.357-.502.465.445.352-.512zm12.227-14.914c-1.061-.297-1.717-.488-2.515-.62a1.14 1.14 0 0 0-1.329.881c-.205.861-.797 2.121-2.369 2.383-2.238.373-2.78-1.477-3.337-1.3 0 0 .799-.74 2.046-1.47-.076.193-.13.408-.13.635 0 .823.69 1.49.69 1.49s.69-.667.69-1.49c0-.437-.195-.83-.378-1.103 1.355-.74 2.7-.897 2.7-.897s-1.478-.825-4.04.543c-.695.372-1.529.84-2.638 1.812-.264.232-1.184.935-1.047 1.942.08.583.77.99.422 1.42-.306.378-.876-.215-2.18-.215-1.305 0-1.876.593-2.18.215-.35-.43.34-.837.42-1.42.138-1.007-.783-1.71-1.046-1.942a12.836 12.836 0 0 0-2.638-1.812c-2.562-1.368-4.04-.543-4.04-.543s1.345.156 2.7.897c-.183.273-.378.666-.378 1.103 0 .823.69 1.49.69 1.49s.69-.667.69-1.49c0-.227-.054-.442-.13-.634a12.82 12.82 0 0 1 2.046 1.47c-.558-.178-1.1 1.672-3.337 1.299-1.572-.262-2.164-1.522-2.37-2.383a1.141 1.141 0 0 0-1.329-.88c-.797.131-1.453.322-2.515.62a54.44 54.44 0 0 0-7.577 2.763 40.118 40.118 0 0 0 3.507 6.644 20.669 20.669 0 0 1 1.507-.643c1.257-.462 2.705-1.115 5.07-.022 2.506 1.16 4.514 3.41 4.514 3.41.141-.088.099-.408-.039-.672-.243-.467-.788-1.006-1.087-1.305-1.534-1.535-.128-1.7.427-1.694.973.008 1.977.362 1.977.362-1.5-1.502-5.873-1.566-5.873-1.566 3.107-.85 6.925.98 6.925.98-3.079-2.739-9.81-2.082-9.81-2.082 5.02-1.384 9.57.935 9.57.935-2.347-2.085-6.357-2.225-6.357-2.225 4.31-.481 7.352 1.647 8.302 2.878.751.974.941 1.302 1.007 1.427.074.137.387.715.038 1.121-.347.406-1.121.329-1.121.329s-.232.948-.173 1.314c0 0-.446-.29-.523-1.314 0 0-.618-.097-1.12-.407-.504-.308-1.297-.811-1.683-.444-.387.368.058.948.25 1.238.195.29 2.668 4.558 3.065 5.134.469.681 1.276 1.429 2.62 1.429 1.345 0 2.152-.748 2.62-1.429.397-.576 2.871-4.845 3.064-5.134.194-.29.639-.87.252-1.238-.386-.367-1.18.136-1.682.444-.503.31-1.121.407-1.121.407-.078 1.025-.523 1.314-.523 1.314.059-.366-.173-1.314-.173-1.314s-.774.077-1.122-.329c-.348-.406-.035-.984.039-1.121.065-.125.256-.453 1.006-1.427.95-1.23 3.993-3.359 8.302-2.878 0 0-4.01.14-6.356 2.225 0 0 4.55-2.319 9.569-.935 0 0-6.73-.657-9.81 2.081 0 0 3.818-1.83 6.926-.979 0 0-4.373.064-5.874 1.566 0 0 1.005-.354 1.978-.362.555-.005 1.961.16.427 1.694-.3.3-.845.838-1.088 1.305-.137.264-.18.584-.038.673 0 0 2.007-2.252 4.514-3.411 2.365-1.093 3.813-.44 5.07.022.432.16.958.388 1.518.65a40.147 40.147 0 0 0 3.508-6.646 54.448 54.448 0 0 0-7.59-2.769z"/><path fill="#FFF" d="M26.807 20.72c-.326.083-.862.547-1.825.793-1.642.42-2.748-.194-3.117-1.634-.363-1.417.37-2.623 2.179-3.086.636-.163 1.13-.162 1.412-.234a3.3 3.3 0 0 0 .415-.155l-.013 1.212a3.101 3.101 0 0 0-1.646-.047c-1.05.269-1.492 1.01-1.223 2.062.248.97.863 1.353 1.79 1.116.803-.206 1.155-.606 1.021-1.129l-.103-.403-.984.253a.857.857 0 0 0-.511.321l.005-.613c.006-.336.072-.408.434-.5l2.012-.516c-.09.158-.06.278-.016.45l.533 2.08a2.106 2.106 0 0 0-.363.03m1.166-.835l-.482-2.973c-.066-.41-.216-.635-.494-.715l4.601-.746a.317.317 0 0 0-.044.195c.015.09.183.384.432.936-.545-.231-1.073-.224-1.67-.127l-1.748.283.171 1.056 1.932-.313c.258-.042.433-.132.57-.216l-.265.698a.512.512 0 0 1-.415.332l-1.696.275.185 1.14 1.843-.299c.73-.118 1.281-.402 1.624-.817-.14.686-.252 1.07-.233 1.185.01.061.05.117.113.184l-4.667.756c.24-.155.31-.424.243-.834m5.265-.805l-.222-3.002c-.03-.415-.16-.652-.43-.756l4.648-.345a.314.314 0 0 0-.06.19c.006.093.148.399.348.97-.522-.277-1.05-.315-1.653-.27l-1.765.13.08 1.067 1.95-.144c.261-.019.443-.094.587-.167l-.324.673a.513.513 0 0 1-.443.295l-1.713.127.085 1.152 1.862-.138c.737-.055 1.312-.29 1.688-.673-.198.67-.342 1.044-.333 1.16.004.061.038.12.096.193l-4.715.35c.252-.135.345-.397.314-.812m4.934-4.155l1.86.03c-.264.112-.403.379-.41.78l-.048 3.01 1.262.02c.71.012 1.265-.125 1.749-.518-.257.65-.442 1.01-.444 1.125-.001.061.035.124.086.202l-4.13-.067c.263-.12.38-.371.387-.78l.049-3.01c.006-.416-.102-.664-.361-.792"/><path fill="#FFF" d="M46.112 17.467c.07-.952-.403-1.528-1.282-1.593-.969-.072-1.556.478-1.634 1.523-.07.937.404 1.513 1.283 1.578.961.071 1.556-.479 1.633-1.508m-1.636 2.357c-1.661-.123-2.532-1.107-2.426-2.536.108-1.45 1.166-2.376 2.782-2.256 1.662.124 2.541 1.085 2.429 2.59-.102 1.383-1.169 2.322-2.785 2.202m4.21-.477c-.06.42-.018.668.248.852l-1.733-.283c.285-.078.43-.312.498-.73l.48-2.941c.07-.418.007-.686-.238-.851l2.145.35a.297.297 0 0 0-.063.108.5.5 0 0 0 .032.177l1.152 3.691.46-2.905c.068-.418-.015-.697-.254-.853l1.688.276c-.376.118-.425.375-.48.717l-.007.038-.543 3.321c-.026.16-.031.284.04.404l-1.762-.287a.288.288 0 0 0 .073-.129c.006-.03-.009-.08-.033-.161l-1.283-3.823-.42 3.03zm8.254 2.363c-.326-.083-1.02.066-1.982-.179-1.643-.418-2.32-1.488-1.953-2.928.361-1.418 1.582-2.124 3.392-1.664.636.162 1.07.4 1.351.471.087.022.236.045.439.064l-.593 1.057a3.104 3.104 0 0 0-1.422-.83c-1.05-.268-1.794.17-2.061 1.223-.247.97.109 1.601 1.035 1.837.804.205 1.305.022 1.438-.5l.102-.403-.985-.25a.855.855 0 0 0-.602.037l.298-.536c.167-.292.26-.324.622-.232l2.012.512c-.155.096-.186.215-.23.387l-.53 2.082a2.029 2.029 0 0 0-.331-.148"/><path d="M0 0h80v80H0z"/></g></svg>
