<svg xmlns="http://www.w3.org/2000/svg" viewBox="0 0 50 50"><g fill="none" fill-rule="evenodd"><path fill="#007CBB" d="M19.306 23.372a10.32 10.32 0 0 1-1.167-.615 8.423 8.423 0 0 1-1.217-.906 6.23 6.23 0 0 1-.982-1.118 4.54 4.54 0 0 1-.66-1.46 3.905 3.905 0 0 1-.072-1.495 4.258 4.258 0 0 1 .535-1.52c.24-.419.553-.822.93-1.199.35-.35.758-.68 1.21-.98.36-.239.756-.463 1.173-.665.376-.182.783-.35 1.21-.5a13.513 13.513 0 0 1 2.14-.563c.302-.058.622-.105.95-.143.336-.039.668-.068.985-.086.31-.017.616-.025.909-.025h.005c.316 0 .644.01.977.03.303.017.616.045.93.083h.015c.14.017.282.037.422.058a15.847 15.847 0 0 0-2.92-.269h-.005a15.797 15.797 0 0 0-1.884.111 14.69 14.69 0 0 0-2.013.375c-.365.095-.72.203-1.06.322-.422.148-.825.314-1.206.497-.417.201-.808.422-1.168.66a7.75 7.75 0 0 0-1.204.97 5.692 5.692 0 0 0-.924 1.187l-.021.034a4.261 4.261 0 0 0-.513 1.472 3.935 3.935 0 0 0 .072 1.481c.125.507.348.991.657 1.448.265.391.594.763.977 1.108.358.322.763.622 1.21.897.362.221.75.424 1.162.61.342.155.702.296 1.076.423a10.95 10.95 0 0 1-.53-.222"/><path fill="#E13210" d="M34.214 18.304c0 2.797-4.011 5.064-8.96 5.064-4.946 0-8.958-2.267-8.958-5.064 0-2.796 4.012-5.064 8.959-5.064 4.948 0 8.959 2.268 8.959 5.064"/><path fill="#FCD800" d="M24.816 17.2v.012-.001a3.23 3.23 0 0 0-.564-.148 5.212 5.212 0 0 0-.45-.055 8.846 8.846 0 0 0-.804-.034h-1.574c-.033 0-.065 0-.095.003-.033 0-.065.003-.099.003-.769 0-1.11.23-1.26.85-.028.12-.05.258-.068.423l-.064.593c-.024.22-.016.394-.01.53l.003.068c.027.749.605.749 1.217.749h1.646c.135 0 .25-.007.352-.023.484-.08.81-.172.917-.731.004-.017.008-.033.01-.05l.05-.49h-2.96l.044-.54h3.621l-.109 1.193a2.343 2.343 0 0 1-.1.483c-.086.254-.194.429-.317.506a1.147 1.147 0 0 1-.387.146 3.422 3.422 0 0 1-.546.065c-.163.01-.356.015-.626.016h-1.971l-.042-.001h-.005c-.568-.006-.945-.082-1.182-.241-.179-.12-.297-.364-.334-.688a2.398 2.398 0 0 1 .004-.507l.154-1.42.003-.017v-.007c.037-.334.116-.595.241-.802.165-.27.39-.445.688-.535.261-.08.596-.12 1.022-.12h2.18c.113 0 .223.006.356.015.15.009.285.027.402.052.11.023.207.053.29.09a.624.624 0 0 1 .225.155c.08.09.13.253.142.458m9.812 2.804c-.21.426-.502.842-.87 1.235-.35.374-.76.72-1.222 1.034a9.329 9.329 0 0 1-1.233.702 11.51 11.51 0 0 1-1.287.526c-.359.123-.744.234-1.14.33a14.696 14.696 0 0 1-2.16.358c-.343.032-.694.053-1.043.06a13.793 13.793 0 0 1-.95-.001 15.37 15.37 0 0 1-3.063-.41c-.36-.087-.713-.186-1.05-.297a13.587 13.587 0 0 1-.49-.177 10.523 10.523 0 0 1-1.818-.877 8.038 8.038 0 0 1-1.172-.872 5.884 5.884 0 0 1-.93-1.06 4.214 4.214 0 0 1-.615-1.358 3.508 3.508 0 0 1-.067-1.372 3.98 3.98 0 0 1 .477-1.375l.005-.007.016-.028a5.41 5.41 0 0 1 .877-1.13 7.477 7.477 0 0 1 1.162-.94 9.95 9.95 0 0 1 1.136-.644c.366-.176.762-.341 1.18-.488a13.776 13.776 0 0 1 3.021-.69c.33-.037.654-.066.966-.082.304-.018.604-.026.892-.026h.004a16.078 16.078 0 0 1 1.877.111h.01a14.411 14.411 0 0 1 2.088.404c.413.113.816.244 1.195.388.417.159.817.338 1.187.53.465.244.897.517 1.282.809.417.317.782.663 1.087 1.028.206.248.384.502.526.754.111.197.206.405.286.618.156.422.235.852.235 1.28 0 .029-.002.062-.004.099l-.002.057a3.82 3.82 0 0 1-.393 1.51m-.1-1.697c0-.45-.098-.901-.287-1.34a4.496 4.496 0 0 0-.952-1.363 6.754 6.754 0 0 0-1.169-.928A9.46 9.46 0 0 0 30.84 14a11.484 11.484 0 0 0-1.117-.417c-.35-.112-.716-.21-1.084-.292a13.71 13.71 0 0 0-.915-.176 15.968 15.968 0 0 0-2.47-.193h-.032a17.058 17.058 0 0 0-1.568.08 14.564 14.564 0 0 0-2.631.506c-.377.113-.743.24-1.087.38a9.956 9.956 0 0 0-1.1.52 7.66 7.66 0 0 0-1.206.816c-.396.33-.728.69-.988 1.07-.32.465-.526.955-.613 1.456a2.982 2.982 0 0 0-.044.415c-.002.029-.008.093-.007.195h2.088l-.043.538H16.04c.02.105.047.222.082.35l.021.066c.142.44.378.87.7 1.274.28.35.621.68 1.015.979.351.269.75.52 1.181.745.34.177.7.339 1.073.482.34.13.701.25 1.074.354.31.088.623.165.926.227a14.963 14.963 0 0 0 1.755.254 15.974 15.974 0 0 0 1.387.059l.216-.002.065-.002c.295-.005.593-.017.885-.038a14.719 14.719 0 0 0 2.888-.492c.412-.117.817-.252 1.198-.404.43-.171.837-.362 1.208-.57.482-.27.916-.574 1.29-.902l.013-.013.496-.497h-6.139c-.196 0-.378-.008-.543-.026a1.876 1.876 0 0 1-.59-.148c-.34-.16-.495-.536-.46-1.12l.002-.033.007-.11.154-1.427V17.9l.005-.025.001-.007a2.162 2.162 0 0 1 .084-.427c.105-.352.281-.587.552-.74a1.83 1.83 0 0 1 .672-.232c.183-.025.394-.038.64-.038h2.18c.503 0 .861.059 1.092.178.208.107.308.292.322.607a2.776 2.776 0 0 0-.2-.068c-.397-.116-.942-.174-1.619-.174H28.1l-.11-.001h-.11c-.377 0-.766.033-1.023.424a1.427 1.427 0 0 0-.2.526c-.02.1-.035.207-.048.328l-.064.595-.008.077-.002.03a2.617 2.617 0 0 0-.005.327c.002.048.004.09.002.129-.005.243.057.432.184.564.195.2.491.228.755.228.067 0 .13-.002.194-.003.055-.001.11-.004.158-.004h6.128l.093-.16a3.476 3.476 0 0 0 .474-1.533l.002-.024c.004-.054.008-.11.008-.171"/><path fill="#FEFEFE" d="M25.13 17.182c-.017-.284-.09-.503-.219-.65a.963.963 0 0 0-.335-.236 1.714 1.714 0 0 0-.354-.11 3.509 3.509 0 0 0-.444-.058 5.77 5.77 0 0 0-.378-.014h-2.179c-.457 0-.82.044-1.113.132-.37.112-.66.339-.865.673-.15.248-.244.556-.287.938l-.155 1.44a2.714 2.714 0 0 0-.004.576c.048.426.212.743.473.917.291.195.723.289 1.358.295h2.017c.276-.001.473-.006.641-.015a3.74 3.74 0 0 0 .594-.073 1.47 1.47 0 0 0 .49-.187c.187-.118.336-.345.446-.673.055-.162.092-.342.115-.553l.142-1.541h-4.256l-.096 1.175h2.953l-.014.137c0 .004 0 .006-.002.007l-.003.013c-.066.349-.19.405-.659.48-.085.015-.184.02-.302.02h-1.646c-.754 0-.89-.066-.903-.443l-.004-.068a2.987 2.987 0 0 1 .01-.483l.063-.594c.016-.151.036-.276.062-.382.101-.42.263-.607.954-.607.041 0 .08-.002.112-.004l.082-.002h1.574c.278 0 .531.01.777.032.161.015.304.03.424.052a3.086 3.086 0 0 1 .502.132c.06.024.11.048.154.073l.26.146.014-.3c.004-.09.004-.17 0-.245zm-.315.029a3.23 3.23 0 0 0-.563-.148 5.212 5.212 0 0 0-.45-.055 8.846 8.846 0 0 0-.804-.034h-1.574c-.033 0-.065 0-.095.003-.033 0-.065.003-.099.003-.769 0-1.11.23-1.26.85-.028.12-.05.258-.068.423l-.064.594c-.024.22-.016.393-.01.53l.003.067c.027.749.605.749 1.217.749h.045a.955.955 0 0 0 .054 0h1.547c.135 0 .25-.007.352-.023.484-.08.81-.172.917-.731.004-.017.008-.033.01-.05l.05-.49h-2.96l.044-.54h3.621l-.109 1.193a2.368 2.368 0 0 1-.1.484c-.086.253-.194.428-.317.505a1.147 1.147 0 0 1-.387.146 3.422 3.422 0 0 1-.546.065c-.163.01-.356.015-.626.016h-1.971l-.042-.001h-.005c-.568-.006-.945-.082-1.182-.241-.179-.12-.297-.364-.334-.688a2.398 2.398 0 0 1 .004-.507l.154-1.42.003-.017v-.007c.037-.334.116-.595.241-.802.165-.27.39-.445.688-.535.261-.08.596-.118 1.022-.118h2.18c.113 0 .223.004.356.013.15.009.285.028.402.052.11.023.207.053.29.09a.614.614 0 0 1 .225.156c.08.089.13.252.142.457v.012-.001zm8.474-1.608a6.754 6.754 0 0 0-1.169-.928A9.574 9.574 0 0 0 30.84 14a11.75 11.75 0 0 0-1.117-.417A14.378 14.378 0 0 0 26.822 13a16.28 16.28 0 0 0-1.568-.078h-.032a17.058 17.058 0 0 0-1.568.08 14.564 14.564 0 0 0-2.631.506c-.377.113-.743.24-1.087.38a9.955 9.955 0 0 0-1.1.52 7.73 7.73 0 0 0-1.206.816c-.396.33-.728.69-.988 1.07-.32.465-.526.955-.613 1.456a2.982 2.982 0 0 0-.044.415c-.002.029-.008.093-.007.195h2.088l-.043.538H16.04c.02.105.047.222.082.35l.021.066c.142.44.378.87.7 1.274.28.35.621.68 1.015.979.351.269.75.52 1.181.745.34.177.7.339 1.073.482.34.13.701.25 1.074.354.31.088.623.165.926.227a14.963 14.963 0 0 0 1.755.254 16.033 16.033 0 0 0 1.388.059l.215-.002.065-.002c.295-.005.593-.017.885-.038a14.719 14.719 0 0 0 2.888-.492c.412-.117.817-.252 1.198-.404.43-.171.837-.362 1.208-.57.482-.27.916-.574 1.29-.902l.013-.013.496-.497h-6.139c-.196 0-.378-.008-.543-.026a1.903 1.903 0 0 1-.59-.148c-.34-.16-.495-.536-.46-1.12l.002-.033.007-.11.154-1.427V17.9l.005-.025.001-.006a2.162 2.162 0 0 1 .084-.428c.106-.352.281-.587.552-.738.232-.13.445-.205.672-.234.183-.025.394-.037.64-.037h2.18c.503 0 .861.058 1.092.177.208.107.308.292.322.607a2.363 2.363 0 0 0-.2-.068c-.397-.116-.942-.174-1.619-.174H27.88c-.377 0-.766.032-1.023.423a1.427 1.427 0 0 0-.2.526c-.02.1-.035.207-.048.328l-.064.595-.008.077-.002.03a2.617 2.617 0 0 0-.005.327c.002.048.004.09.002.129-.005.243.057.432.184.564.195.2.491.228.755.228.067 0 .13-.002.194-.003.055-.001.11-.004.158-.004h5.934l.194-.001.093-.157c.283-.493.443-1.01.474-1.535l.002-.024c.004-.054.008-.11.008-.171 0-.45-.098-.901-.287-1.34a4.496 4.496 0 0 0-.952-1.363zm.918 2.852v.026c-.03.477-.177.946-.435 1.395h-5.949c-.054 0-.109.003-.168.004-.06.002-.122.003-.184.003-.187 0-.417-.015-.529-.131-.067-.07-.1-.18-.095-.336 0-.047 0-.096-.004-.147-.002-.084-.006-.18.004-.288l.002-.031.007-.07.065-.595c.012-.111.026-.208.043-.3.036-.175.084-.306.156-.413.155-.238.378-.282.76-.282h.108l.112.002h1.572c.648 0 1.164.055 1.532.16.128.038.238.083.328.132l.26.143.013-.297.001-.056c.01-.336-.03-.81-.495-1.048-.276-.143-.68-.212-1.234-.212h-2.18c-.26 0-.484.013-.682.039a2.19 2.19 0 0 0-.783.272c-.346.194-.569.487-.7.925a2.962 2.962 0 0 0-.073.318c-.006.04-.016.1-.023.16v.003l-.003.017-.003.022-.152 1.426a1.379 1.379 0 0 0-.01.128l-.003.033c-.054.903.32 1.273.642 1.425.184.086.408.144.69.175.175.02.37.029.576.029h5.368a7.27 7.27 0 0 1-1.18.817 9.765 9.765 0 0 1-1.17.552 12.284 12.284 0 0 1-2.165.63c-.317.063-.647.117-.979.159-.28.036-.566.063-.85.085-.287.02-.579.033-.868.039h-.067a14.982 14.982 0 0 1-3.288-.305 12.914 12.914 0 0 1-1.95-.566 9.755 9.755 0 0 1-1.04-.467 7.792 7.792 0 0 1-1.138-.716 5.462 5.462 0 0 1-.959-.926 3.69 3.69 0 0 1-.646-1.172h1.872l.093-1.174h-2.099c.008-.082.017-.16.031-.237.08-.455.268-.902.562-1.33.245-.355.557-.694.93-1.006a7.45 7.45 0 0 1 1.156-.781 9.59 9.59 0 0 1 1.066-.505 12.067 12.067 0 0 1 1.963-.6 14.06 14.06 0 0 1 1.671-.264c.266-.026.536-.046.8-.058.267-.013.507-.02.74-.02l.012-.001h.016c.24 0 .491.006.766.02a14.598 14.598 0 0 1 2.552.34c.358.082.715.177 1.057.286.377.12.744.256 1.086.406.448.195.864.413 1.238.65.425.272.8.569 1.115.886.394.398.693.824.886 1.265.173.4.26.806.26 1.213 0 .05-.003.098-.007.149zm.88-1.51a4.868 4.868 0 0 0-.307-.662 5.435 5.435 0 0 0-.56-.803 6.979 6.979 0 0 0-1.138-1.077 9.284 9.284 0 0 0-1.328-.836c-.38-.2-.79-.383-1.218-.546-.39-.15-.803-.281-1.226-.397a14.762 14.762 0 0 0-2.134-.413h-.013a15.567 15.567 0 0 0-1.909-.113h-.004c-.294 0-.599.008-.91.025-.317.018-.649.047-.984.086a13.53 13.53 0 0 0-.95.142 13.78 13.78 0 0 0-2.138.562c-.43.15-.836.32-1.213.5-.417.204-.812.428-1.172.667a7.842 7.842 0 0 0-1.21.979 5.78 5.78 0 0 0-.93 1.2l-.012.019-.009.016a4.258 4.258 0 0 0-.515 1.485 3.955 3.955 0 0 0 .073 1.494c.122.5.344.993.66 1.46.263.392.594.768.981 1.118.358.324.768.63 1.218.907a10.469 10.469 0 0 0 1.87.903c.15.057.324.122.503.182a14.488 14.488 0 0 0 3.161.654 15.358 15.358 0 0 0 1.581.078 18.699 18.699 0 0 0 1.491-.07 14.356 14.356 0 0 0 2.204-.366 12.427 12.427 0 0 0 2.49-.877c.46-.221.89-.465 1.273-.726a7.543 7.543 0 0 0 1.274-1.08c.39-.414.7-.856.923-1.312.257-.524.4-1.075.425-1.637.002-.018.002-.036.003-.055a4.027 4.027 0 0 0-.25-1.506zm-.064 1.49l-.002.059a3.82 3.82 0 0 1-.393 1.51c-.21.427-.502.843-.87 1.235-.35.374-.76.72-1.222 1.034a9.329 9.329 0 0 1-1.233.702 11.51 11.51 0 0 1-1.287.526c-.359.123-.744.234-1.14.33a14.696 14.696 0 0 1-2.16.358c-.342.032-.694.053-1.043.06a13.793 13.793 0 0 1-.95-.002 15.357 15.357 0 0 1-1.99-.191 14.56 14.56 0 0 1-2.123-.515 13.587 13.587 0 0 1-.49-.177 10.2 10.2 0 0 1-1.817-.877 8.038 8.038 0 0 1-1.173-.872 5.884 5.884 0 0 1-.93-1.06 4.214 4.214 0 0 1-.615-1.358 3.64 3.64 0 0 1-.067-1.372c.068-.468.228-.931.477-1.374l.005-.008.016-.028c.225-.392.52-.773.878-1.13a7.42 7.42 0 0 1 1.161-.94 9.95 9.95 0 0 1 1.136-.644c.366-.176.762-.341 1.18-.488a13.776 13.776 0 0 1 3.021-.69c.33-.037.654-.066.966-.082.304-.018.604-.026.892-.026h.004c.31 0 .632.01.96.03.296.017.605.044.917.08l.01.002a14.643 14.643 0 0 1 2.087.404c.414.112.817.243 1.196.387.417.158.817.338 1.187.53.465.244.897.517 1.282.809.417.317.782.663 1.087 1.028.206.248.384.5.526.754.111.197.206.405.286.618.156.422.235.853.235 1.28 0 .029-.002.062-.004.099z"/><path fill="#E13210" d="M10.556 25.854c-.118-1.471-.892-1.897-1.55-1.897-.938 0-1.455.616-1.455 1.683 0 2.919 5.916 4.317 5.916 8.967 0 2.823-1.879 4.388-4.6 4.388-2.7 0-4.25-2.183-4.367-4.744l2.77-.404c.117 1.731.798 2.586 1.736 2.586 1.01 0 1.691-.545 1.691-1.565 0-3.393-5.916-4.294-5.916-9.204 0-2.728 1.643-4.27 4.507-4.27 1.126 0 2.018.404 2.7 1.068.751.735 1.196 1.803 1.337 3.083l-2.769.309zm12.97 7.147l-.023 1.439c0 2.942-1.69 4.555-4.46 4.555s-4.46-1.613-4.46-4.555l.062-10.926 2.86 1.189-.012 9.856c0 1.257.494 1.874 1.55 1.874s1.549-.617 1.549-1.874l.026-9.033 2.932.512c.024.047 2.183.23 2.183.23v.537c-1.55.07-2.233-.037-2.233 2.05L23.526 33zM35.1 34.559l-.024 1.993c0 1.566.938 1.611 2.582 1.683v.594s-2.49 0-2.582-.072H32.54l-3.707-9.993-.047.235v9.758h-2.63V26.235l4.273-.782 1.97 5.974h.048v-6.673l2.629-.97.024 10.774z"/><path fill="#E13210" d="M42.536 25.854c-.118-1.471-.892-1.897-1.55-1.897-.938 0-1.454.616-1.454 1.683 0 2.919 5.914 4.317 5.914 8.967 0 2.823-1.878 4.388-4.6 4.388-2.7 0-4.248-2.183-4.366-4.744l2.77-.404c.117 1.73.798 2.586 1.736 2.586 1.01 0 1.69-.545 1.69-1.565 0-3.393-5.914-4.294-5.914-9.204 0-2.728 1.642-4.27 4.505-4.27 1.127 0 2.02.404 2.701 1.068.751.735 1.197 1.803 1.338 3.083l-2.77.309z"/><path d="M0 0h50v50H0z"/></g></svg>
