<svg xmlns="http://www.w3.org/2000/svg" viewBox="0 0 80 80"><g fill="none" fill-rule="evenodd"><path fill="#FFC400" d="M27.384 23.36l.899-3.57c.215-.833.273-1.613.273-1.613h.04s.058.8.235 1.632l.79 3.552h-2.237zm3.837-9.126h-4.994L23.21 24.351V14.234h-4.675v5.084H16.73v-5.084h-4.676v13.149h4.676v-5.18h1.806v5.18h7.87l.402-1.617h3.357l.217 1c1.46-.236 2.93-.422 4.409-.559l-3.57-11.973zm35.692 4.912c-1.103-.535-1.465-.86-1.465-1.414 0-.497.381-.726 1.063-.726.763 0 1.465.267 1.947.535l.943-2.695c-.743-.42-1.926-.802-3.632-.802-2.99 0-4.875 1.987-4.875 4.414 0 1.28.561 2.771 2.568 3.745 1.083.516 1.424.86 1.424 1.357 0 .42-.38.708-1.083.708-.803 0-1.666-.364-2.026-.63l-.488 1.484-2.322-4.906 3.09-5.981h-4.715l-2.488 5.77h-.04v-5.77H46.28l-1.158 6.032c-.14.747-.178 1.467-.178 1.467h-.04s-.02-.72-.162-1.467l-1.214-6.032h-3.75l-1.27 6.032a12.88 12.88 0 0 0-.186 1.467h-.04s-.036-.72-.174-1.467l-1.102-6.032H32.26l3.368 11.9a67.009 67.009 0 0 1 5.075-.21l.722-2.889c.156-.631.195-1.27.195-1.27h.04s.059.658.216 1.27l.765 2.91c1.671.043 3.333.147 4.984.313l2.514-8.932v9.234c1.563.218 3.114.492 4.651.821h.025v-6.23h.04l2.328 6.23h5.176l-.012-.025c.671.142 1.473.217 2.42.217 3.03 0 5.096-1.911 5.096-4.358 0-1.529-.36-2.828-2.949-4.07M19.47 30.579c.36 16.348 8.187 26.435 21.472 37.053C54.226 57.014 62.053 46.927 62.415 30.58c-6.86-2.423-14.083-3.65-21.475-3.65-7.39 0-14.614 1.227-21.471 3.65M57.814 52.737l-.001.001z"/><path fill="#562500" d="M64.353 36.969c.408-2.38.391-3.803.391-3.803-25.695-10.009-32.027 1.436-32.027 1.436-5.754 1.233-10.337 4.79-8.596 10.35.525 1.677 1.736 3.234 3.355 4.425a2.855 2.855 0 0 1-.336-2.165c.44-1.896 2.985-3.162 6.807-2.994 5.95.26 7.705 1.333 7.705 1.333s-9.951-2.2-12.697.078a8.793 8.793 0 0 1 2.108-.255c5.963 0 10.796 4.019 10.796 13.419 0 3.416-.639 6.118-1.737 8.178l-.032-.026.02.095c-.225.452-.47.885-.731 1.295a38.658 38.658 0 0 0 1.556 1.109s1.856-1.221 3.001-2.063c2.017-6.15 1.457-12.997-1.752-18.8 3.827 5.168 4.912 11.69 3.326 17.62a60.482 60.482 0 0 0 4.142-3.512 23.733 23.733 0 0 0-4.762-15.55c3.895 3.845 5.99 9.055 6.01 14.352a53.697 53.697 0 0 0 3.254-3.51 24.183 24.183 0 0 0-7.021-13.082 20.687 20.687 0 0 1 7.99 11.903 49.572 49.572 0 0 0 2.68-3.698 26.545 26.545 0 0 0-9.12-10.813 22.747 22.747 0 0 1 9.878 9.62 46.468 46.468 0 0 0 1.993-3.585 29.08 29.08 0 0 0-11.115-9.073 24.9 24.9 0 0 1 11.676 7.907 43.316 43.316 0 0 0 1.573-3.863c-3.892-3.534-8.526-6.037-13.566-7.324 5.156.656 9.968 2.758 13.983 6.079a39.06 39.06 0 0 0 1.004-3.808 33.613 33.613 0 0 0-15.899-5.29 30.038 30.038 0 0 1 16.143 4.015"/><path fill="#FFC400" d="M28.377 38.784c-.117.853.042 2.226 2.147 3.467 1.666.983 4.27 1.14 6.004 1.375 2.12.28 4.407.831 5.124 1.925-.717-1.93-4.626-2.124-7.122-2.878-2.732-.826-2.613-3.495-2.159-4.91.256-.795.753-1.692.286-2.198-.381-.413-1.136-.145-1.136-.145-1.395.403-2.64.944-3.685 1.595.526.26.648 1 .541 1.77"/><path fill="#562500" d="M31.562 38.495c-.043-.27-.337-.454-.654-.397-.828.148-1.46.792-1.46.792-.103.096-.14.23-.078.32.065.095.218.104.352.027l.001.001s.219-.127.454-.19c.305-.08.63.02.63.02v-.002a.67.67 0 0 0 .257.01c.318-.05.541-.31.498-.58"/><path fill="#212121" d="M42.251 35.059s1.502-.942 3.01-1.268a3.717 3.717 0 1 1-6.675 2.608c.735-.101 1.453-.284 1.972-.49a10.243 10.243 0 0 0 1.693-.85"/><path fill="#FFC400" d="M44.39 34.04c-.761.267-1.439.618-1.818.831a1.5 1.5 0 1 1-1.674.897c-.112.049-.225.096-.34.142a7.953 7.953 0 0 1-1.155.342 2.89 2.89 0 1 0 4.987-2.212"/><path fill="#FFF" d="M42.483 35.008a.648.648 0 1 0 .946-.575c-.4.186-.73.365-.938.485a.633.633 0 0 0-.008.09"/><path fill="#212121" d="M35.749 36.085a30.111 30.111 0 0 1 11.689-3.095c-.155.182-.616.525-1.946.755-1.582.272-3.241 1.314-3.241 1.314-.496.313-1.068.604-1.693.85-1.305.516-3.87.893-4.809.176m.779 7.541c2.12.28 4.407.831 5.124 1.925 0 0-1.756-1.077-7.705-1.333-3.821-.164-6.367 1.098-6.807 2.994a2.86 2.86 0 0 0 .335 2.165c-1.619-1.192-2.83-2.748-3.354-4.425-.988-3.158.062-5.67 2.208-7.475 0 0 .84-.721 1.431-.497.591.224.729.998.617 1.804-.117.853.042 2.226 2.146 3.467 1.667.983 4.271 1.14 6.005 1.375"/><path fill="#FFF" d="M29.697 36.506c-2.04.88-3.765 2.781-3.65 2.92.084.1.946-1.168 3.908-2.323a.32.32 0 0 0 .17-.428.326.326 0 0 0-.428-.169"/><path fill="#000" d="M40.11 67.04c-.225.452-.47.885-.731 1.295-5.217-3.88-21.786-17.57-22.112-35.221.748-.302 1.504-.59 2.267-.864.825 15.03 8.24 24.692 20.556 34.695l.02.095"/><path d="M0 0h80v80H0z"/></g></svg>
