<svg xmlns="http://www.w3.org/2000/svg" viewBox="0 0 80 80"><g fill="none" fill-rule="evenodd"><path fill="#061A33" d="M67.106 20.155a81.654 81.654 0 0 0-2.92-.957v-2.31s-8.044-3.734-23.363-3.734c-15.318 0-23.363 3.733-23.363 3.733v2.31c-.977.301-1.95.62-2.92.958v15.662l3.502 3.867c3.202 21.875 18.685 29.211 22.242 30.03.233.054.54.108.54.108s.305-.054.54-.109c3.552-.819 18.97-8.125 22.219-29.885l3.523-4.01V20.154z"/><path fill="#DE0316" d="M61.434 34.54l-.033-.01C60.525 58.546 44.71 66.31 41.3 67.118c-.207.048-.477.098-.477.098s-.27-.05-.475-.098c-3.41-.805-19.233-8.57-20.103-32.6l-.033.009c.304 25.107 16.663 33.15 20.136 33.97.206.05.475.1.475.1s.27-.05.477-.1c3.477-.822 19.824-8.864 20.134-33.958"/><path fill="#DE0316" d="M35.922 43.264l3.603 10.254.002-5.143-2.211-6.501-.001.001-1.092-3.213-.301-.886h-2.616l.816 1.153-.001 19.073-.765 1.14h3.323l-.757-1.141z"/><path fill="#DE0316" d="M32.764 52.126a6.89 6.89 0 0 1-1.143-1.551 5.59 5.59 0 0 1-.618-1.893 5.417 5.417 0 0 1 .258-2.488c.208-.593.515-1.15.89-1.653a7.84 7.84 0 0 1 1.574-1.565v-2.428l-.073.04v-.001c-.21.125-.425.24-.634.364-.19.114-.37.24-.545.374a9.592 9.592 0 0 0-2.382 2.61c-.39.63-.717 1.306-.964 2.004-.126.355-.246.713-.369 1.07a53 53 0 0 1-.317.897c-.008.018-.026.049-.026.069 0 .024.022.059.03.08l.117.32a1758.493 1758.493 0 0 0 .527 1.523c.194.566.439 1.115.725 1.64A9.688 9.688 0 0 0 32 54.242c.324.279.663.546 1.031.765.205.121.416.233.62.356v-.001c.025.014.05.026.073.04v-2.427a8.502 8.502 0 0 1-.96-.849m11.008 2.785c-.892.196-1.802.299-2.715.312a13.8 13.8 0 0 1-2.55-.195 12.647 12.647 0 0 1-2.189-.58v2.058c.868.25 1.758.423 2.655.523a16.93 16.93 0 0 0 3.113.057 16.136 16.136 0 0 0 3.25-.572v-2.055c-.51.185-1.034.336-1.564.452m-4.246-14.125v-1.918c-.067.006-.134.01-.2.017a16.21 16.21 0 0 0-2.47.414l.627 1.842c.67-.172 1.354-.29 2.043-.355"/><path fill="#DE0316" d="M47.536 38.929l.815-1.153h-2.616l-.301.885-1.091 3.214-.002-.001-2.21 6.502.001 5.143 3.603-10.255v14.737l-.757 1.14h3.323l-.764-1.139z"/><path fill="#DE0316" d="M49.391 44.17c.284.332.543.688.755 1.07l.682-.627.927-.853.273-.25c-.47-.392-.929-.797-1.396-1.192-.267-.228-.53-.46-.81-.674a11.675 11.675 0 0 0-.86-.602c-.17-.109-.346-.214-.521-.317a4.957 4.957 0 0 0-.447-.24l-.061-.032v2.388c.535.386 1.03.828 1.458 1.329m1.007 6.77l-.252-.231c-.457.827-1.12 1.54-1.855 2.128a8.836 8.836 0 0 1-.358.271v2.388c.02-.011.041-.02.062-.032.295-.134.575-.312.85-.483.298-.185.587-.382.867-.592.283-.212.547-.443.818-.67.26-.22.52-.443.778-.665.239-.205.477-.412.72-.614l-.604-.554-1.026-.945M40.823 59.141l1.514-1.613h-3.029zM41.73 54.822l-.001-14.036s1.178.049 2.439.373l.634-1.867a16.103 16.103 0 0 0-3.077-.452l.004-2.31s1.442.01 1.99.07c.547.061 1.451.365 1.451.365l.043-2.203h-6.06l.688 1.145.082.677v18.23c.643.046 1.045.04 1.806.008M16.715 21.88a70.086 70.086 0 0 1 2.441-.75l.555 5.097.093 1.291.108-1.347c.195-1.806.39-3.61.587-5.416a71.425 71.425 0 0 1 2.482-.626V31.75c-.74.174-1.11.266-1.847.458V25.04l-.109 1.832-.603 5.526c-.526.142-.788.215-1.312.367l-.6-5.172-.108-1.787v7.167c-.676.204-1.013.309-1.687.528V21.879zm7.035-1.927a77.388 77.388 0 0 1 3.882-.767v1.897c-.78.134-1.169.205-1.945.359v2.902a66.31 66.31 0 0 1 1.898-.352v1.867c-.76.131-1.14.201-1.898.351v3.152a65.643 65.643 0 0 1 1.945-.359v1.804c-1.3.221-2.594.481-3.882.768V19.952zm4.657-.897c.78-.125 1.171-.183 1.954-.289v9.818c.7-.095 1.05-.137 1.752-.216v1.803c-1.239.147-2.472.316-3.706.507V19.055zM35.2 28.13c.54-.038.57-.4.57-1.638 0-1.24-.03-1.553-.57-1.514l-.475.035v3.153l.475-.036zm-.032-5.032c.507-.037.54-.273.54-1.527 0-1.255-.016-1.522-.54-1.484-.177.012-.266.019-.443.033v3.012l.443-.034zm-2.375-4.622c.858-.09 1.72-.165 2.581-.223 1.903-.204 2.189 1.28 2.205 2.81.009.798.12 2.125-.746 2.59 1.067.344.825 2.126.826 2.943.001 1.607-.375 3.2-2.269 3.277a71.22 71.22 0 0 0-2.597.225V18.476zm11.311 7.985v-8.329c.787.034 1.181.055 1.967.108v8.376c0 1.239.032 1.522.586 1.563.555.042.587-.236.587-1.475v-8.375c.766.064 1.15.1 1.915.182v8.329c.04 1.903-.408 3.29-2.55 3.155-2.107-.133-2.518-1.67-2.505-3.534m8.1-1.695c.552.082.544-.456.568-1.953.009-.56.194-1.875-.567-2.078l-.457-.066v4.03l.457.067zm-2.35-6.177c.87.1 1.738.217 2.603.35 2.072.335 2.252 2.313 2.248 4.058-.003 1.06.108 2.666-.927 3.35l.864 4.575c-.76-.138-1.14-.201-1.901-.319a4614.07 4614.07 0 0 0-.756-4.065l-.237-.034v3.952a65.151 65.151 0 0 0-1.894-.245V18.59zm5.45.833c.828.156 1.24.24 2.064.42l.811 3.913.327 1.738v-5.395c.729.17 1.092.26 1.817.446v11.622c-.731-.189-1.098-.279-1.832-.45l-1.045-4.721-.327-1.608v6.022a66.625 66.625 0 0 0-1.815-.365V19.422zm5.783 1.324c1.28.347 2.554.72 3.815 1.133v1.898a65.172 65.172 0 0 0-1.902-.592v2.902c.745.221 1.116.336 1.856.576v1.866c-.74-.24-1.111-.355-1.856-.575v3.152c.763.226 1.144.345 1.902.591v1.804a77.568 77.568 0 0 0-3.815-1.133V20.746zM41.49 23.913c0-3.796 0-4.015-.628-4.015-.611 0-.611.22-.611 4.015 0 3.827 0 4.03.611 4.03.628 0 .628-.203.628-4.03m-2.526 5.27c-.658-.784-.69-2.275-.69-5.317 0-2.917.032-4.407.644-5.223.376-.47 1.003-.674 1.944-.674.942 0 1.585.204 1.93.643.643.8.658 2.29.658 5.254 0 3.247-.015 4.658-.674 5.38-.346.392-.972.533-1.914.533-.925 0-1.552-.172-1.898-.596"/></g></svg>
