<svg xmlns="http://www.w3.org/2000/svg" viewBox="0 0 80 80"><g fill="none" fill-rule="evenodd"><path fill="#000" d="M70.735 36.83l2.83-11.731-11.199 3.22V14.533l-39.649-.005v28.306l-3.127.915 2 2.256-17.499 6.051 18.626-1.992v18.18l13.106.005h26.543V42.563l3.674-.418-3.674-4.182v-.182z"/><path fill="#008AAB" d="M25.131 42.132l.003-13.337h34.824v.216L49.581 31.99l2.191 2.427-2.679.764-.856-.917-3.325-1.347-1.601 1.107-1.965-.662-2.33 1.904-1.851-.182-1.758 1.796-1.629-.336-2.474 2.678.18 1.055z"/><path fill="#FFF" d="M27.518 21.331h.886v-2.088h-.886v2.088zm0 4.67v-2.74h2.052l1.242-1.147v-3.68l-1.195-1.124h-4.483v8.692h2.384zm6.813-1.93h.874v-4.84h-.874v4.84zm-1.177 1.93H36.4l1.193-1.134v-6.41l-1.193-1.147h-3.245l-1.191 1.146v6.41l1.191 1.136zM39.619 26.001h2.679l.575-4.614.574 4.614h2.678l1.142-8.69h-2.173l-.45 4.443-.533-4.443h-2.439l-.597 4.263-.438-4.263h-2.174zM53.112 26.001V23.83h-2.524v-1.207h2.336v-2.09h-2.336V19.4h2.55v-2.089h-4.931v8.69zM56.673 20.644h.938v-1.512h-.938v1.512zm0 5.358v-3.5h.938v3.5h2.37v-3.536l-.96-.905.974-.955v-2.15L58.79 17.31h-4.502v8.692h2.384zM27.542 49.55v16.292h-2.408l-.007-16.035zM32.173 49.058v16.784h-2.408V49.313zM35.953 65.842h-1.557l-.003-4.168zM34.393 59.257l-.007-7.822v-5.456l1.675 5.065 1.3.374zM50.694 49.131v10.04l-2.037-2.405-.818-5.165zM55.325 43.366v22.476h-2.083l-.324-1.538V43.638zM59.958 42.837v23.005h-2.41v-22.73zM71.23 27.377L69.278 35.5 58.92 36.649l3.796 4.346-9.798 1.077-.468-.68-4.157-2.142-.008-2.266 6.386-1.912-2.112-2.316z"/><path fill="#A7A9AC" d="M46.871 41.741l1.148-.757 3.229 1.666-1.331 4.074-3.26-3.572zM48.285 48.312l-2.963 1.538-3.61-1.16-3.752.686-1.772-3.772 4.118-.721-1.822 1.298.541.968 2.262-1.3 4.2-1.618zM41.434 43.377l-1.503-1.604.662-5.641 1.096-.896.993.335-.917 5.622-.909.228 1.384 1.854zM38.444 43.711l-1.875-1.275.261-4.627.968-.988 1.034.1-.325 5.075-.803.181 1.617 1.421zM34.719 44.133l-1.045-.68-.588-3.702 1.276-1.384.862.178.128 4.204-.843.201 1.144 1.075zM44.806 35.017l.312-.216 1.458.59-.626 4.755-1.378.38.289 2.452-.663.083-.912-2.043z"/><path fill="#FFF" d="M31.727 41.758l-9.256 2.679 2.041 2.219-8.535 2.59 15.033-1.922-2.312-2.504 3.506-.421z"/><path fill="#A7A9AC" d="M49.769 65.842l-.37-3.892-3.62-4.65-.27-4.955-3.682-1.68-2.695.76-2.133 9.316 2.796 5.101z"/><path fill="#000" d="M70.724 36.816l2.827-11.721-11.189 3.217V14.538l-39.614-.005v28.282l-3.126.913 1.999 2.254-17.484 6.045 18.611-1.989v18.165l13.094.004H62.362V42.543l3.67-.417-3.67-4.179v-.181z"/><path fill="#008AAB" d="M25.159 42.112l.003-13.324h34.794v.215L49.588 31.98l2.189 2.424-2.677.764-.855-.917-3.322-1.344-1.599 1.105-1.964-.661-2.327 1.902-1.851-.182-1.756 1.795-1.627-.337-2.472 2.677.179 1.054z"/><path fill="#FFF" d="M27.544 21.33h.885v-2.086h-.885v2.086zm0 4.666v-2.738h2.05l1.24-1.146v-3.677l-1.193-1.122h-4.48v8.683h2.383zm6.807-1.928h.873v-4.836h-.873v4.836zm-1.175 1.928h3.241l1.192-1.133v-6.405l-1.192-1.145h-3.241l-1.19 1.145v6.405l1.19 1.133zM39.634 25.996h2.677l.575-4.611.572 4.611h2.677l1.141-8.683h-2.171l-.45 4.44-.533-4.44h-2.436l-.597 4.259-.438-4.259h-2.172zM53.116 25.996v-2.169h-2.522v-1.206h2.334v-2.089h-2.334V19.4h2.548v-2.087h-4.927v8.683zM56.674 20.644h.937v-1.51h-.937v1.51zm0 5.352V22.5h.936v3.496h2.369v-3.532l-.96-.904.974-.954v-2.148l-1.203-1.145h-4.498v8.683h2.382zM27.568 49.524v16.279h-2.406l-.007-16.021zM32.195 49.032v16.77h-2.406V49.287zM35.972 65.802h-1.556l-.003-4.164zM34.413 59.223l-.007-7.815v-5.452l1.674 5.061 1.298.373zM50.701 49.106v10.032l-2.036-2.404-.817-5.16zM55.327 43.345v22.458h-2.081l-.325-1.537V43.618zM59.956 42.817v22.986h-2.408V43.092zM71.217 27.371l-1.949 8.116-10.349 1.147 3.791 4.344-9.789 1.076-.466-.68-4.155-2.141-.007-2.263 6.38-1.91-2.109-2.315z"/><path fill="#A7A9AC" d="M46.881 41.722l1.146-.756 3.226 1.664-1.33 4.071-3.256-3.568zM48.294 48.287l-2.961 1.537-3.607-1.159-3.75.686-1.769-3.769 4.114-.72-1.821 1.296.541.968 2.26-1.3 4.196-1.616zM41.447 43.357l-1.501-1.603.661-5.635 1.095-.896.993.335-.916 5.617-.909.228 1.383 1.852zM38.46 43.691l-1.873-1.274.261-4.623.968-.988 1.032.1-.325 5.071-.802.181 1.616 1.42zM34.739 44.112l-1.044-.68-.588-3.698 1.275-1.383.862.178.127 4.2-.842.201 1.142 1.075zM44.817 35.004l.312-.216 1.456.59-.625 4.751-1.377.379.289 2.45-.662.083L43.298 41z"/><path fill="#FFF" d="M31.75 41.739l-9.248 2.677 2.039 2.216-8.528 2.589L31.032 47.3l-2.309-2.501 3.503-.422z"/><path fill="#A7A9AC" d="M49.776 65.802l-.37-3.888-3.616-4.647-.271-4.95-3.679-1.679-2.693.761-2.131 9.306 2.793 5.097z"/><path fill="#000" d="M70.735 36.83l2.83-11.731-11.199 3.22V14.533l-39.649-.005v28.306l-3.127.915 2 2.256-17.499 6.051 18.626-1.992v18.18l13.106.005h26.543V42.563l3.674-.418-3.674-4.182v-.182z"/><path fill="#008AAB" d="M25.131 42.132l.003-13.337h34.824v.216L49.581 31.99l2.191 2.427-2.679.764-.856-.917-3.325-1.347-1.601 1.107-1.965-.662-2.33 1.904-1.851-.182-1.758 1.796-1.629-.336-2.474 2.678.18 1.055z"/><path fill="#FFF" d="M27.518 21.331h.886v-2.088h-.886v2.088zm0 4.67v-2.74h2.052l1.242-1.147v-3.68l-1.195-1.124h-4.483v8.692h2.384zm6.813-1.93h.874v-4.84h-.874v4.84zm-1.177 1.93H36.4l1.193-1.134v-6.41l-1.193-1.147h-3.245l-1.191 1.146v6.41l1.191 1.136zM39.619 26.001h2.679l.575-4.614.574 4.614h2.678l1.142-8.69h-2.173l-.45 4.443-.533-4.443h-2.439l-.597 4.263-.438-4.263h-2.174zM53.112 26.001V23.83h-2.524v-1.207h2.336v-2.09h-2.336V19.4h2.55v-2.089h-4.931v8.69zM56.673 20.644h.938v-1.512h-.938v1.512zm0 5.358v-3.5h.938v3.5h2.37v-3.536l-.96-.905.974-.955v-2.15L58.79 17.31h-4.502v8.692h2.384zM27.542 49.55v16.292h-2.408l-.007-16.035zM32.173 49.058v16.784h-2.408V49.313zM35.953 65.842h-1.557l-.003-4.168zM34.393 59.257l-.007-7.822v-5.456l1.675 5.065 1.3.374zM50.694 49.131v10.04l-2.037-2.405-.818-5.165zM55.325 43.366v22.476h-2.083l-.324-1.538V43.638zM59.958 42.837v23.005h-2.41v-22.73zM71.23 27.377L69.278 35.5 58.92 36.649l3.796 4.346-9.798 1.077-.468-.68-4.157-2.142-.008-2.266 6.386-1.912-2.112-2.316z"/><path fill="#A7A9AC" d="M46.871 41.741l1.148-.757 3.229 1.666-1.331 4.074-3.26-3.572zM48.285 48.312l-2.963 1.538-3.61-1.16-3.752.686-1.772-3.772 4.118-.721-1.822 1.298.541.968 2.262-1.3 4.2-1.618zM41.434 43.377l-1.503-1.604.662-5.641 1.096-.896.993.335-.917 5.622-.909.228 1.384 1.854zM38.444 43.711l-1.875-1.275.261-4.627.968-.988 1.034.1-.325 5.075-.803.181 1.617 1.421zM34.719 44.133l-1.045-.68-.588-3.702 1.276-1.384.862.178.128 4.204-.843.201 1.144 1.075zM44.806 35.017l.312-.216 1.458.59-.626 4.755-1.378.38.289 2.452-.663.083-.912-2.043z"/><path fill="#FFF" d="M31.727 41.758l-9.256 2.679 2.041 2.219-8.535 2.59 15.033-1.922-2.312-2.504 3.506-.421z"/><path fill="#A7A9AC" d="M49.769 65.842l-.37-3.892-3.62-4.65-.27-4.955-3.682-1.68-2.695.76-2.133 9.316 2.796 5.101z"/><path d="M27 0h80v80H27z"/></g></svg>
