<svg xmlns="http://www.w3.org/2000/svg" viewBox="0 0 80 80"><g fill="none" fill-rule="evenodd"><path fill="#FFF" d="M61.635 17.304l-.078-.324-.3-.15c-.145-.073-2.437-1.183-8.018-1.992.509-.898.848-1.998 1.024-3.333.078-.593-.047-1.08-.373-1.451-.368-.417-.96-.63-1.758-.63-2.389-.002-3.806-.135-5.52-.38A8.378 8.378 0 0 0 42.3 7.877c-1.086 0-1.929.202-2.315.315a10.532 10.532 0 0 0-2.499-.294c-2.458 0-4.403.803-4.967 1.063h-.182c-1.757 0-3.59-.109-4.778-.283l-.25-.04c-.366-.06-.683-.114-1.035-.114-.165 0-.326.012-.494.036-.25.037-.717.195-1.014.844-.49 1.075-.352 3.327.63 4.85.123.208.292.442.481.678-5.13.799-7.257 1.829-7.398 1.9l-.3.15-.077.323c-1.796 7.55-1.413 15.06 1.11 21.723 2.375 6.277 6.57 11.689 12.133 15.652 3.253 2.435 5.97 3.903 8.2 5.018l.32.16.322-.157c3.013-1.469 5.467-2.97 8.206-5.021 5.562-3.963 9.758-9.375 12.134-15.652 2.522-6.663 2.905-14.174 1.109-21.723"/><path fill="#000" d="M48.39 33.195s.002 0 0 0m4.458 5.097c.85.894 1.673 2.048 2.148 3.568.03.096.104.388.16.686a34.156 34.156 0 0 0 1.104-3.522c-.621-.855-1.637-1.71-2.288-2.298-1.513-1.363-2.786-2.63-2.867-4.7-.01-.242-.046-.673-.057-.81.315-.33.524-.582.735-.893.303.362.613.644.804.834 1.077 1.072 1.412 2.148 2.155 3.446.39.677 1.16 1.684 1.95 2.524.116-.579.217-1.16.306-1.744-1.019-.952-2.299-2.593-2.782-3.52.956.848 2.053 1.767 2.957 2.223.197-1.672.29-3.359.29-5.045 0-3.597-.3-7.926-1.32-12.962a55.672 55.672 0 0 0-4.18-.682c.658-.732 1.31-1.9 1.586-3.986.12-.91-.435-1.27-1.418-1.272-2.407-.002-3.853-.13-5.766-.406-3.204-1.965-6.36-.797-6.36-.797-3.863-1.034-7.321.738-7.321.738-1.803.015-3.851-.087-5.24-.29-.634-.1-1.03-.193-1.56-.117-.89.13-.955 2.95.125 4.612.232.398.75 1.024 1.291 1.575a54.68 54.68 0 0 0-3.743.625c-1.02 5.036-1.32 9.365-1.32 12.962 0 6.24 1.277 12.486 4.397 17.992-.242-2.416-.173-4.804.073-6.636a27.882 27.882 0 0 1 1.026-4.608s-.425.663-.778 1.294c.51-1.866 1.476-3.622 2.179-4.852.41.64.97 1.331 1.66 1.895-1.12 2.167-2.25 5.765-2.2 8.176.19-.757.443-1.312.443-1.312-.314 3.451.764 8.249 2.448 11.15.83 1.466 1.77 2.745 3.036 3.887.322.21.639.41.953.603-1.387-3.972-.833-6.141 1.41-11.535-1.637 1.627-2.907 2.312-3.681 4.933.039-.644.159-1.25.291-1.565-.899-1.065-1.517-2.341-1.841-4.18-.202.332-.39.684-.55 1.152.022-.768.14-1.14.446-1.847-.01-.074-.02-.145-.028-.221-.193.32-.377.625-.447.888-.762-2.223-1.113-5.711-.384-8.275.188 3.805 1.29 6.15 3.152 8.126.16-.247.338-.466.566-.687-.175.288-.3.55-.403.805-.148.317-.227.581-.386 1.14.358-.584.55-.896.766-1.212 1.84-2.548 4.444-3.389 6.186-5.12 0 0-.995.39-1.814 1.006 1.245-1.182 2.603-1.544 3.717-3.213.096-.142.21-.31.332-.506.016.223-.023.524-.101.767.47-.39.822-.834.958-1.117-.02.279-.185 1.022-.296 1.364.467-.406.738-.913.94-1.304.124.094.241.326.294.526a2.304 2.304 0 0 0 1.062-.906c.11.084.258.294.298.389.329-.232.616-.623.71-1.04.053.082.113.18.14.27.342-.087.753-.472.908-.652.416-.48.613-1.181.67-1.421a7.745 7.745 0 0 0 1.496-.9c-.084.2-.146.438-.173.719l-.01.146c-.17 2.19.619 2.88 2.093 4.139.339.29.698.62 1.053.993"/><path fill="#000" d="M43.703 49.053c4.208-4.406 5.136-8.148 3.52-12.378.038 3.455-7.59 8.566-8.765 10.459.406-.303 1.797-1.164 2.086-1.356-1.057.84-1.63 1.378-2.362 2.457.719-.708 1.384-1.07 1.956-1.458-2.845 2.474-3.684 6.553-2.834 10.93.85.475 1.68.908 2.5 1.319-.323-4.115 1.634-7.601 3.899-9.973"/><path fill="#FFD300" d="M21.417 31.163c-.347-5.756.269-10.523 1.053-14.844-.392.092-.75.183-1.074.27-2.726 12.174-.94 23.19 4.783 31.386-2.841-4.809-4.467-10.477-4.762-16.812"/><path fill="#000" d="M26.18 47.976c.002.005-.004-.006 0 0-5.723-8.198-7.51-19.213-4.784-31.387-1.809.488-2.594.88-2.594.88-3.342 14.044 1.183 26.336 9.935 34.202a30.818 30.818 0 0 1-2.558-3.695"/><path fill="#FFD300" d="M58.32 31.163c.346-5.756-.27-10.523-1.055-14.844.392.092.752.183 1.075.27 2.726 12.174.94 23.19-4.783 31.386 2.841-4.809 4.467-10.477 4.762-16.812"/><path fill="#000" d="M53.557 47.976c-.004.005.003-.006 0 0 5.722-8.198 7.51-19.213 4.783-31.387 1.809.488 2.594.88 2.594.88C64.276 31.513 59.75 43.805 51 51.671a30.88 30.88 0 0 0 2.558-3.695"/><path fill="#FFF" d="M32.672 68.79c.103 0 .296.01.445.01h.588c.117 0 .28 0 .381-.016.004 0 .01.006.01.009-.022.088-.04.288-.05.448-.015.012-.072.015-.087.01a.673.673 0 0 0-.064-.24c-.028-.055-.073-.07-.116-.076a4.125 4.125 0 0 0-.418-.003c-.015.003-.03.04-.03.051-.004.198 0 .416 0 .622 0 .011.012.024.017.024.08 0 .311.003.406-.003.064-.003.095-.036.12-.121a.623.623 0 0 0 .02-.097c.013-.006.08-.006.092.003-.003.075-.016.184-.016.288 0 .078.007.205.01.293-.012.01-.08.013-.091.003-.022-.091-.019-.078-.031-.118-.015-.046-.043-.088-.11-.094-.051-.006-.308-.006-.4-.006-.008 0-.018.018-.018.024v.576c0 .045.025.09.064.1.059.01.199.018.35.018.166 0 .202-.015.26-.082.064-.067.122-.182.168-.29.015-.004.077.015.085.027-.008.057-.076.34-.128.439-.015.03-.033.048-.164.048-.266 0-.555-.016-.84-.016-.16 0-.361.01-.523.01a.176.176 0 0 1 0-.081c.097-.013.17-.021.213-.034.058-.018.086-.054.086-.154.009-.17.009-.427.009-.754 0-.23 0-.473-.009-.582-.007-.085-.019-.11-.083-.13-.043-.012-.097-.018-.149-.025-.009-.015-.003-.072.003-.081m2.52 1.708a.507.507 0 0 0 .28.078c.15 0 .26-.093.26-.25 0-.156-.068-.252-.333-.415-.286-.185-.47-.327-.47-.625 0-.35.293-.541.638-.541.222 0 .35.04.484.048-.021.118-.04.248-.052.44-.012.008-.07.011-.082.003-.028-.182-.06-.274-.14-.33a.373.373 0 0 0-.235-.068.254.254 0 0 0-.268.264c0 .127.061.218.182.303.13.087.202.13.333.211.22.143.323.28.323.489 0 .326-.259.572-.716.572-.198 0-.39-.058-.454-.095-.03-.045-.083-.369-.089-.468.009-.016.07-.031.083-.022.067.215.143.321.256.406m2.8.136c-.119 0-.268-.009-.46-.009-.284 0-.427.01-.522.01-.012-.016-.012-.074 0-.083a1.32 1.32 0 0 0 .19-.026c.073-.019.098-.053.106-.195.013-.3.01-.914.01-1.378 0-.005-.007-.02-.016-.02a2.67 2.67 0 0 0-.304 0c-.071.005-.114.036-.153.102-.04.07-.082.166-.113.257-.009.01-.082-.003-.088-.02a4.72 4.72 0 0 0 .055-.494c0-.006.018-.021.024-.019.098.034.201.04.275.04h1.081c.156 0 .242-.012.327-.036.01 0 .015.011.018.018a2.98 2.98 0 0 0-.07.511c-.01.01-.083.013-.089.004a1.232 1.232 0 0 0-.063-.264c-.03-.07-.062-.09-.123-.097a4.245 4.245 0 0 0-.332-.003.028.028 0 0 0-.015.025c0 .423 0 1.216.009 1.42.003.075.018.12.083.145.051.015.072.015.173.03.013.009.01.073-.002.082m2.965 0c-.112 0-.307-.012-.488-.012-.22 0-.34.012-.432.012-.01-.012-.013-.076 0-.084l.155-.021c.089-.022.097-.104.101-.198.006-.124.006-.302.009-.59 0-.245 0-.473-.009-.554-.004-.052-.022-.104-.076-.113a2.176 2.176 0 0 0-.141-.024c-.01-.015-.003-.076.007-.084a1.87 1.87 0 0 0 .603-.146c.01-.003.037.01.037.018-.01.124-.013.23-.013.48 0 .244 0 .753.01 1.001.006.11.018.191.096.21.065.01.11.014.15.02.006.01.006.073-.009.085m1.035-1.484c0 .158.085.246.396.43.003 0 .01 0 .015-.003a.462.462 0 0 0 .1-.296c0-.195-.103-.37-.288-.37-.134 0-.223.119-.223.24m.515 1.174c0-.16-.104-.275-.442-.479-.003-.005-.012 0-.016.004a.452.452 0 0 0-.134.31c0 .193.147.399.351.399.144 0 .241-.091.241-.234m.266-1.065c0 .112-.067.22-.3.36-.002.006-.002.012 0 .015.238.15.375.276.375.493 0 .267-.252.527-.655.527-.43 0-.586-.248-.586-.457 0-.127.084-.24.37-.4.003 0 .005-.008 0-.012-.166-.115-.305-.254-.305-.46 0-.149.07-.294.185-.375a.66.66 0 0 1 .406-.13c.295 0 .51.172.51.439m1.097-.11c0 .158.086.246.396.43.004 0 .01 0 .016-.003a.465.465 0 0 0 .1-.296c0-.195-.103-.37-.289-.37-.134 0-.223.119-.223.24m.516 1.174c0-.16-.104-.275-.442-.479-.003-.005-.013 0-.016.004a.452.452 0 0 0-.134.31c0 .193.147.399.35.399.144 0 .242-.091.242-.234m.265-1.065c0 .112-.067.22-.3.36-.002.006-.002.012 0 .015.239.15.375.276.375.493 0 .267-.252.527-.654.527-.43 0-.586-.248-.586-.457 0-.127.083-.24.369-.4.004 0 .006-.008 0-.012-.165-.115-.305-.254-.305-.46 0-.149.07-.294.186-.375a.658.658 0 0 1 .405-.13c.296 0 .51.172.51.439m1.737-.419a.79.79 0 0 1-.146.294.227.227 0 0 1-.15.073c-.198 0-.333-.022-.378-.022-.006 0-.024.007-.027.016-.025.054-.04.088-.059.142 0 .004.01.028.02.03.09.043.425.181.557.258.192.102.317.23.317.47 0 .399-.43.647-.793.647a.542.542 0 0 1-.393-.142.158.158 0 0 1-.05-.103.47.47 0 0 1 .09-.194c.006-.006.027-.015.035-.018.123.179.306.318.523.318.155 0 .25-.115.25-.26 0-.13-.05-.258-.235-.376-.16-.106-.455-.226-.525-.27a.372.372 0 0 1-.003-.1c.055-.181.22-.59.302-.708.03-.04.058-.055.083-.055.048 0 .197.015.359.015.104 0 .13-.008.18-.047.012 0 .043.017.043.032m-16.323-3.235c-.231.362-.525.734-.747.91-.267.212-.524.238-.746.238-1.477 0-1.957-1.369-1.957-2.358 0-1.52.605-2.235 1.539-2.235.364 0 .693.062.977.222.356.203.41.485.534 1.05.018.062.4.027.444-.044 0-.477.072-1.228.116-1.537-.338-.008-1.023-.159-1.876-.159-.729 0-1.298.133-1.787.363-.996.468-1.503 1.404-1.503 2.42 0 1.925 1.236 2.888 3.254 2.888.659 0 1.032-.133 1.317-.23.266-.15.666-.874.8-1.263a.747.747 0 0 0-.365-.265"/><path fill="#FFF" d="M19.753 64.378c-.143.08-.578.106-.943.106-.044 0-.062-.052-.062-.088 0-.644 0-1.626.018-1.899 0-.036.035-.106.062-.132.035-.027.195-.044.284-.044.64 0 1.085.432 1.085 1.166 0 .538-.195.768-.444.891m4.756 2.315c-.231-.071-.25-.247-.258-.406-.018-.345-.009-1.228-.009-2.04 0-.76-.009-1.211.009-1.502.009-.16.009-.336.214-.398.142-.044.329-.07.524-.097.045-.054.036-.371 0-.424-.23 0-.524.026-1.476.026-.649 0-1.094-.026-1.396-.026-.053.062-.053.362-.017.424.186.026.337.044.542.106.151.044.222.168.231.353.018.354.018.654.018 1.608 0 .432 0 1.748-.018 1.96-.026.336-.08.407-.338.46a.501.501 0 0 1-.197-.005c-.2-.055-.278-.133-.478-.33-.391-.39-1.17-1.39-1.36-1.75-.014-.026-.016-.057.009-.07.595-.256 1.04-.645 1.04-1.343 0-.778-.64-1.413-1.779-1.413-.302 0-.835.026-1.75.026-.357 0-1.112-.026-1.335-.026-.062.035-.098.344-.035.424.195.035.4.07.507.106.16.035.23.141.248.335.018.318.018.937.018 1.802 0 .548-.009 1.546-.027 1.828-.008.24-.07.363-.266.407a6.168 6.168 0 0 1-.462.08c-.072.043-.036.388.008.423.258 0 .729-.026 1.44-.026.739 0 1.237.026 1.388.026.062 0 .08-.415.027-.424-.24-.035-.33-.044-.534-.106-.169-.053-.223-.185-.231-.38a38.752 38.752 0 0 1-.018-1.227c0-.018.026-.062.045-.062.026 0 .168 0 .257.01.125.007.187.026.258.132.294.459.613 1.006.987 1.465.053.089.22.27.471.399.442.223 1.335.217 1.832.182.237-.007.538-.015.986-.015.783 0 1.174.018 1.45.026.062-.044.106-.353.07-.424-.204-.035-.488-.08-.595-.114m19.826-.009c-.231-.062-.294-.256-.302-.468-.054-.61-.125-2.765-.116-3.419 0-.194.027-.353.231-.424.125-.043.338-.07.596-.123.062-.044.044-.407 0-.424-.444 0-.836.026-2.134.026-.018.168-.089.354-.169.557-.258.627-.978 2.12-1.227 2.579-.018.018-.045.026-.07 0a61.47 61.47 0 0 1-1.21-2.526 1.958 1.958 0 0 1-.196-.61c-.667 0-1.627-.026-2.312-.026-.026.026-.061.37-.035.424.293.052.551.106.711.16.178.07.232.255.222.405-.026.636-.213 2.685-.293 3.365-.036.327-.133.468-.391.539-.09.028-.248.049-.394.07a.962.962 0 0 1-.259 0c-.256-.043-.401-.068-.511-.114-.16-.07-.187-.247-.196-.406-.017-.398-.017-1.113-.017-1.714 0-.733-.01-1.166.008-1.74.01-.283.036-.397.205-.46.098-.053.302-.088.49-.105.061-.062.061-.362 0-.424-.33 0-.588.026-1.37.026-.73 0-.96-.026-1.414-.026-.062.044-.071.38-.017.424.284.035.453.052.578.115.124.044.15.203.159.317.01.504.01.964.01 1.396 0 .018-.036.044-.063.053-.089.018-.32.018-.96.018-.871 0-1.005 0-1.085-.018-.018-.018-.026-.026-.045-.07 0-.495 0-.938.01-1.308 0-.212.026-.344.204-.415a2.2 2.2 0 0 1 .462-.088c.054-.044.054-.371.009-.424-.195 0-.649.026-1.405.026-.844 0-1.129-.026-1.36-.026-.044.035-.063.389-.018.424.16.017.338.044.516.097.187.053.213.16.222.442.01.265.01.777.01 1.651 0 .796 0 1.617-.01 1.75-.018.308-.08.458-.32.52-.133.035-.24.062-.444.097-.063.063-.036.38 0 .424.15 0 .604-.026 1.342-.026.951 0 1.378.026 1.538.026.053-.044.098-.353.044-.424-.195-.035-.444-.08-.56-.123-.204-.071-.23-.23-.23-.442-.01-.318-.01-.777-.01-1.342 0-.01.01-.044.019-.053.035-.018.124-.027 1.075-.027.4 0 .845 0 1.014.009.027 0 .044.036.044.053 0 .574.01 1.042-.01 1.466-.007.194-.07.318-.203.362a3.029 3.029 0 0 1-.507.097c-.062.071-.053.371.009.424.178 0 .65-.026 1.405-.026.791 0 1.236.026 1.44.026h.08c.337 0 .746-.026 1.102-.026.738 0 1.2.026 1.414.026.053-.053.08-.38.026-.424a4.219 4.219 0 0 1-.614-.123c-.284-.088-.31-.221-.31-.477 0-.618.053-1.855.115-2.774.009-.017.054-.026.062-.017.56 1.262 1.298 2.967 1.539 3.71.035.017.435.026.47 0 .259-.68 1.263-2.863 1.654-3.764.01-.008.036-.008.045 0-.018 1.043 0 2.165-.018 2.88-.009.336-.053.406-.195.46-.125.043-.285.06-.507.105-.036.063-.045.371 0 .424.489 0 .853-.026 1.351-.026.863 0 1.307.026 1.627.026.062-.053.08-.353.035-.424a8.02 8.02 0 0 1-.586-.123"/><path fill="#FFF" d="M48.664 66.596a.966.966 0 0 1-.64.238c-.364 0-.614-.124-.862-.318-.605-.512-.827-1.502-.827-2.252 0-.813.15-1.555.648-1.89.17-.124.41-.177.632-.177.338 0 .56.097.809.3.534.45.774 1.333.774 2.261 0 .76-.125 1.467-.534 1.838m-.774-4.902c-.826 0-1.51.247-2.018.6-.835.592-1.075 1.502-1.075 2.235 0 .68.187 1.457.755 2.031.49.486 1.138.804 2.223.804.89 0 1.787-.345 2.41-1.122.373-.486.55-1.139.55-1.802 0-1.466-.977-2.746-2.845-2.746"/><path fill="#FFF" d="M61.066 66.243c-.294.361-.587.52-1.005.52-.16 0-.534-.062-.694-.22a.54.54 0 0 1-.15-.292c-.028-.256-.018-.857-.018-1.696 0-.795 0-1.828.008-2.128 0-.018.036-.089.072-.098a.958.958 0 0 1 .266-.035c.365 0 .818.08 1.138.318.578.406.881 1.148.881 1.908 0 .865-.205 1.342-.498 1.723m1.004-3.86c-.488-.39-1.11-.557-1.93-.557-.71 0-.897.018-1.653.026-.258 0-1.186-.026-1.382-.026-.213 0-.51.026-1.16.026-.675 0-1.075-.026-1.271-.026-.027.018-.045.389 0 .424.204.026.374.053.578.097.302.062.39.22.409.512.044.68.044 1.37.053 2.5-.018 0-.036.009-.053.009-.551-.61-1.725-2.084-2.472-3.003-.187-.23-.285-.371-.356-.53a18.89 18.89 0 0 1-.809.017c-.693 0-1.04-.026-1.343-.026-.026.035-.035.397 0 .441.267.027.454.089.615.15.23.08.302.345.302.54 0 .936-.027 2.72-.08 3.206-.018.238-.098.433-.303.512-.204.07-.347.097-.56.132-.027.036-.044.371 0 .424.382 0 .898-.026 1.271-.026.41 0 .827.026 1.236.026.054-.078.063-.38.018-.424-.25-.044-.409-.07-.56-.106-.24-.062-.392-.203-.41-.6a80.35 80.35 0 0 1-.026-2.773c0-.01.018-.044.054-.01.79.972 2.41 3.1 3.085 3.966.133-.017.845-.035.986-.008a59.384 59.384 0 0 1-.017-1.254c-.009-1.166.017-2.439.071-3.136.045-.442.178-.486.418-.557.045-.013.113-.024.15-.033.08-.02.275-.015.362.002.092.02.203.036.252.05.24.07.258.176.285.422.017.416.008.83.008 1.803 0 .697-.008 1.572-.018 1.73-.017.24-.124.372-.338.416-.195.035-.284.062-.524.088-.053.01-.053.337 0 .424h.418c.8.01 1.618.036 2.107.036.925 0 1.796-.14 2.525-.716.551-.432.996-1.121.996-2.173 0-.821-.356-1.537-.934-1.995M26.614 28.24c.145.956.42 1.853.836 2.613.33-.706.925-1.26 1.358-1.552.021.074.035.123.058.195-.38.385-.687.834-.97 1.339.37-.434.726-.71 1.093-.99.562 1.43 1.593 2.339 2.72 2.952.266-1.363.75-2.541 1.346-3.118.027.046.064.115.092.16-.432.683-.562 1.04-.74 1.745.362-.612.648-.997.99-1.371.316.44.622.744.904 1.024 1.013-1.006 3.14-1.05 4.294-1.162-1.348-1.074-6.363-.13-8.383-2.988.122-.232.28-.441.527-.702-.508.303-1.384 1.084-1.916 1.714.12-.331.247-.594.394-.822-.827-1.574-.693-3.574-.525-5.071.234-.172.483-.33.76-.46-.742.172-1.288.427-1.981.909-.261-1.964.564-4.098 1.237-5.554-.307.056-.531.163-.802.335.34-1.622.942-2.999 2.13-4.29a10.127 10.127 0 0 0-3.146 4.884c.327-.163.462-.214.716-.283-.024.043-.068.11-.093.153-.47.256-.753.463-1.176.935.42-.27.664-.398.94-.506-1.058 1.878-2.018 3.875-1.56 6.807.289-.354.743-.701.976-.811-.01.054-.018.11-.027.164a4.685 4.685 0 0 0-1.069 1.52c.286-.378.583-.683.983-.93a11.788 11.788 0 0 0 .034 3.16"/><path fill="#FFD300" d="M48.139 25.7a4.044 4.044 0 0 0-.052.877c.594.156 1.283-.75 1.582-2.105.269.228.522.465.807.794-.218-.537-.406-.825-.734-1.193.01-.065.046-.155.054-.222 0 0 .25.176.434.437.145-.418.259-1.36.328-2.657-.225.436-.623.765-1.02.962-.339 1.774-.935 2.79-1.4 3.107m2.527-7.93c0-.406-.028-.703-.13-1.051.096.029.242.098.319.137-.066-.846-.003-1.29-.338-2.059-.012.439-.03 1.003-.305 1.248-.227.201-.46.358-.697.463.405.278.86.714 1.151 1.262m-20.45 7.368a2.31 2.31 0 0 1 .828-.455l.048.09c-.502.332-.809.61-1.231 1.172a7.506 7.506 0 0 1 1.443-.83c.933 1.338 2.936 2.405 5.164 2.688-.302-.631-1.446-1.423-1.857-2.049-.778-1.182-.32-2.579.352-3.422-1.615.712-2.038 1.208-2.247 2.302-1.946-1.893-2.186-6.657-1.846-9.288-1.082 1.952-1.945 3.36-1.945 6.114.313-.135.659-.265 1.037-.314-.205 1.045-.156 2.724.254 3.992"/><path fill="#FFF" d="M35.671 14.01c.64.531.95.92 2.258 1.19.224.047.533.047.787.027-.521.381-1.232.536-1.972.624-.966.116-2.468-.625-3.556-.835-.406-.423-.48-.857-.29-1.143.078-.119.184-.401.445-.635.053 0 .109-.001.162.003.346.03.693.073 1.032.151.394.091.829.37 1.134.617m1.042 4.09c1.013.059 1.88.319 2.633.502.118.027.233.06.352.091 1.338.37 2.603.777 3.711 1.188.41.27-1.563-.226-3.7-.804.041.188.14.368.322.528.199.175.341.34.446.498a15.55 15.55 0 0 0-1.759-.391c-.737-.116-1.46-.16-2.117-.086.841.056 1.896.188 2.983.46.023.005.045.01.067.013l.074.016a47.28 47.28 0 0 1 3.827.931c.383.211-1.022.002-2.805-.33.143.557.064.974 1.05 1.275 1.213.37 3.109.174 3.864-.153.501-.216 1.027-.68 1.12-.883.034-.074.064-.139.089-.2-.686-.22-.45-1.028-1.228-1.507-.557-.343-.562-.675-.854-1.225a4.872 4.872 0 0 0-.482-.71c-.805-.946-1.135-1.086-1.92-1.01-.523.05-1.353.238-1.983 1.025a20.135 20.135 0 0 0-.584-.224c-1.028-.375-2.08-.645-3.114-.664 1.073.144 1.793.366 3.12.837 1.386.46 2.679.949 3.799 1.434.37.277-1.48-.262-3.545-.933a2.638 2.638 0 0 0-.349.753 13.5 13.5 0 0 0-.876-.227c-.726-.16-1.446-.247-2.141-.205m4.092-4.372a2.215 2.215 0 0 1-.176-.105.87.87 0 0 1-.047.18c-.608.04-1.413-.81-1.792-1.15-.567-.513-1.17-.643-2.01-.722-.393.028-.458-.104.023-.226a3.757 3.757 0 0 1 1.459.054c-.296-.253-.61-.478-.992-.612-.289-.102-.606-.224-.914-.24-.186-.01-.426.046-.631.109a6.03 6.03 0 0 0-1.053.456c.01.386-.134.771-.08 1.161.026.206-.019.337.157.45.104.066.21.176.311.23.108.059.348.025.526.015.43-.076.77-.225 1.133-.248.962-.064 1.89.073 2.514.52.613.471 1.371.936 1.562 1.038.067.036.162.12.274.113.07-.043.14-.083.21-.123.004-.04.006-.076.006-.106 0-.187-.102-.6-.48-.794m8.48-.766c-.042-.212-.121-.56-.206-.698a3.669 3.669 0 0 0-.521-.685c-.346-.22-.789-.378-1.4-.546-.285-.079-.866-.135-.973-.113-.178.034-.263.154-.321.272-.09.178.288.618.562 1.035.22-.3.509-.438 1.052-.484.394.013.398.131.101.18-.178.026-.488.225-.704.745-.145.347-.146.89-.708 1.041a.771.771 0 0 1-.115-.17c-.074.12-.212.348-.1.575l.14.12c.05.026.103.054.157.085-.044-.416.534-.773.761-.993.493-.478 1.177-.309 1.492-.197.228.082.413.289.621.383.189.041.194-.177.223-.264.03-.09-.043-.194-.06-.286m-8.409 18.647c-.017.284.107.613.291.93.182.31.447.573.743.671.06.232.081.443.06.684.414.099.71 0 1.074-.18.091.18.111.421.081.743.345-.03.567-.09.834-.284.016.153.006.385-.044.576.172-.252.252-.433.294-.66.034-.013.069-.027.103-.043.038.27.048.502-.023.944.263-.473.354-.744.404-1.186.032-.023.043-.013.076-.036.065.235.118.457.107.794.72-.14 1.083-.507 1.345-1.105.113.11.268.296.365.477.607-.287.845-1.006.952-1.478.058-.255.113-.716.057-.893.063.025.121.055.18.087.242-.503.117-1.206.42-1.63.242-.339.06-.676-.051-1.066-.102 2.06-.878 1.159-1.068 1.06-.686-.356-3.11-.327-4.088-.065-.405.109-.708.17-.935.388-.7.671-.936.406-1.061-.196a4.03 4.03 0 0 0-.098-.653l-.015-.122c.004.028.002.051.003.076.01.53-.574.542-.607 1.032a.798.798 0 0 0 .02.233c.056.206.604.601.581.902"/><path fill="#FFF" d="M38.52 14.047c-.188-.032-.328-.14-.311-.238.017-.1.185-.153.374-.12.19.033.33.139.313.238-.017.098-.185.153-.376.12m9.564-.428c.025.087-.09.197-.256.246-.167.048-.322.018-.348-.07-.026-.087.087-.197.254-.246.168-.049.324-.017.35.07m1.55 1.892c.066-.22.23-.464.25-.671.019-.211-.075-.567-.173-.928l-.005-.001c-.492-.113-.613.026-.798.254-.355.435-.42.545-.823.747-.291.147-.561.14-.834.084.344.285.761.481 1.165.522.43.043.86.193 1.218-.007"/><path fill="#FFD300" d="M49.904 13.303c.001.242.233.511.144.625-.078.028-.21.012-.336-.016.097.362.19.717.172.927-.02.208-.184.451-.25.672l.017-.008a.7.7 0 0 0 .15-.12c.443-.474.627-.717.572-1.245-.04-.14.33.034.588.481-.236-.496-.48-.945-.71-1.303l-.219-.337c-.087-.083-.128.142-.128.324"/><path fill="#7E5300" d="M48.3 13.621a.866.866 0 0 0-.026-.076 2.486 2.486 0 0 0-.108-.005.704.704 0 0 1-.506.82c-.382.112-.78-.093-.888-.458l-.005-.019c-.08.079-.15.159-.192.24v.002a.9.9 0 0 0 1.726-.504m-9.102.237c-.09.467-.556.775-1.047.69-.495-.085-.832-.539-.75-1.013a.772.772 0 0 1 .015-.062c-.115.004-.22.013-.314.024a1.131 1.131 0 0 0 .877 1.489 1.137 1.137 0 0 0 1.33-1.053 2.028 2.028 0 0 0-.11-.075"/><path fill="#D52B1E" d="M42.504 29.151c-.436.257-.318-.114-.42-.366-.174-.433-.518-.817-.588-1.783-.054-.417-.077-1.11.357-1.24.673-.202 1.673.453 2.245.453.571 0 1.133-.587 1.695-.483.384.07.534.553.657 1.02.135.509.086.881.139 1.225.034.23.061.297.135.403-.006.008-.142.183-.147.192-.008-.008-.014-.014-.001.002a.292.292 0 0 0-.204-.083.322.322 0 0 0-.217.089.608.608 0 0 0-.118.157.266.266 0 0 0-.121-.028.292.292 0 0 0-.193.076l-.001.001a.261.261 0 0 0-.16-.052.284.284 0 0 0-.177.064.263.263 0 0 0-.174-.064.284.284 0 0 0-.164.053.262.262 0 0 0-.19-.078.279.279 0 0 0-.134.035.96.96 0 0 0-.14-.17.288.288 0 0 0-.203-.083.324.324 0 0 0-.217.089.443.443 0 0 0-.065.073c-.148-.46-.23-.799-.308-1.128l-.085-.342c-.07-.272-.168-.526-.409-.526-.284 0-.389.343-.452.541-.157.527-.302 1.415-.34 1.953"/><path fill="#FFF" d="M46.307 28.722c.039-.036.08-.04.111-.01.16.156.207.317.209.43-.002.06-.157.112-.254.112-.098 0-.244-.056-.242-.106 0-.097.074-.333.176-.426m-1.672.42c-.002.06-.156.112-.254.112-.097 0-.243-.056-.242-.106 0-.097.075-.333.175-.426.04-.036.083-.04.112-.01.16.156.207.317.209.43m.38.045c0 .039-.096.07-.156.07s-.151-.034-.15-.066a.462.462 0 0 1 .108-.263c.025-.023.051-.024.07-.007.099.097.127.197.128.266m.224-.24c.1.097.128.197.13.267-.002.037-.097.068-.158.068-.06 0-.152-.034-.15-.065 0-.06.046-.206.109-.264.024-.022.05-.024.069-.006m.483.267c-.002.037-.097.068-.158.068-.06 0-.15-.034-.15-.065 0-.06.046-.206.109-.264.024-.022.05-.024.069-.006.099.097.128.197.13.267m.352-.027c-.001.039-.097.07-.157.07s-.151-.034-.15-.066c0-.06.046-.206.108-.263.024-.023.051-.024.07-.007.099.097.128.197.129.266m.502-6.725c-.001-.036.105-.076.176-.076.07 0 .182.037.183.08a.458.458 0 0 1-.152.312c-.02.022-.051.02-.08-.007a.545.545 0 0 1-.127-.31m.71-.071c.114 0 .294.06.296.13-.003.132-.057.321-.244.504-.035.034-.085.03-.131-.013-.118-.108-.205-.384-.205-.498-.001-.058.169-.123.284-.123m-.587 6.635c.483-.824.64-1.311.831-1.79.142-.357.28-.454.322.131.033.454.049.965-.127 1.663-.057.163-.385.259-.569.259-.183 0-.527-.117-.457-.263m-2.704 0c.042.18-.309.276-.481.276s-.566-.07-.587-.227c-.018-.9.093-1.403.183-1.837.104-.491.255-.518.384-.008.134.529.222.983.501 1.796m5.091-6.226a6.984 6.984 0 0 1-.798 1.98c-.417.696-.536.58-.498.155.05-.571.15-1.151.035-2.133 0-.173.387-.34.632-.34s.657.143.63.338m-2.924-.367c0-.036.105-.076.176-.076.07 0 .182.037.184.08a.457.457 0 0 1-.151.312c-.022.02-.053.02-.08-.008a.546.546 0 0 1-.129-.308m-.412 0c-.001-.036.105-.076.175-.076.071 0 .183.037.185.08a.458.458 0 0 1-.152.312c-.022.02-.052.02-.081-.008a.547.547 0 0 1-.127-.308m-.412.03c-.001-.036.104-.076.175-.076s.183.037.184.08a.454.454 0 0 1-.151.312c-.022.022-.053.02-.081-.007a.547.547 0 0 1-.127-.31m-.666.052c-.002-.058.168-.123.283-.123.114 0 .294.06.297.13-.003.132-.058.321-.244.504-.035.034-.084.03-.131-.013-.118-.108-.206-.384-.205-.498m-1.78.243c0-.192.51-.311.738-.311.229 0 .694.15.67.37-.222.986-.256 1.537-.338 2.177-.08.618-.295.586-.523-.008-.2-.527-.407-1.137-.547-2.228"/><path fill="#FFD300" d="M55.157 42.545a7.744 7.744 0 0 0-.162-.685c-.474-1.52-1.298-2.674-2.146-3.568a13.98 13.98 0 0 0-1.055-.993c-1.474-1.258-2.26-1.948-2.093-4.139l.012-.146a2.43 2.43 0 0 1 .172-.72c-.47.357-.98.67-1.495.9-.054.227-.246.931-.67 1.423.468 1.57 1.644 3.227 2.26 3.976-.327-.648-.42-1.042-.677-1.76.951 1.228 2.07 2.962 2.173 4.762-.603-.632-1.23-1.163-1.672-1.38.836 1.874.747 3.076.232 4.875-1.027 3.597-2.817 4.16-5.052 8.014.52-.564.977-.996 1.503-1.324-1.068 1.18-2.064 3.093-2.048 4.883 5.285-3.869 8.713-8.765 10.718-14.118m-.414-7.942c-.744-1.298-1.079-2.374-2.156-3.446-.192-.19-.501-.472-.803-.834-.212.311-.42.563-.736.893.011.137.047.568.057.81.081 2.07 1.354 3.337 2.867 4.7.65.588 1.666 1.444 2.288 2.298.161-.628.305-1.26.432-1.898-.79-.84-1.56-1.846-1.95-2.523m-.526-2.74c.483.928 1.762 2.567 2.781 3.52.065-.432.124-.864.176-1.296-.904-.457-2-1.376-2.957-2.224m-24.154 1.572a8.626 8.626 0 0 1-.928-1.203c-.703 1.23-1.668 2.986-2.179 4.85a28.79 28.79 0 0 1 .778-1.293c-.374 1.2-.778 2.75-1.026 4.607-.246 1.833-.315 4.222-.073 6.636a30 30 0 0 0 2.49 3.719c-1.926-5.807-2.044-12.05.938-17.316m10.346 2.296a6.55 6.55 0 0 1-.588-.836c-.516-.233-.947-.466-1.262-.708-.578.304-1.176.717-1.906 1.288a8.159 8.159 0 0 1 1.618-1.495 3.851 3.851 0 0 1-.713-.719c-.588.276-1.112.486-1.737.98.461-.668.815-.874 1.518-1.342-.02-.035-.082-.114-.1-.15-.974.348-1.768.77-2.299 1.24-.289-.288-.635-.751-.943-1.223-.19.419-.38.885-.53 1.38-.11.4-.19.736-.218.889l-.007.022a6.54 6.54 0 0 0-.034.2c-.302-.045-.843-.209-1.287-.401-.161 1.342.019 3.073.661 4.806-.07-.61-.076-.937-.026-1.401.306 1.31.65 2.126 1.305 2.81.974-1.443 2.875-2.97 4.745-3.684-.713.117-1.247.265-1.986.531.952-.637 1.698-.968 2.598-1.443.48-.254.887-.511 1.19-.744"/><path fill="#FFF" d="M52.251 29.482c.897-1.344.816-3.77.557-5.643.188.1.372.23.57.405a2.604 2.604 0 0 0-.637-.833c-.01-.062-.02-.157-.034-.222.168.118.293.215.408.339.136-1.63.086-2.91-.435-4.369 0 0 .168-.026.32.035-.036-.105-.09-.258-.157-.443-.234.127-.48.235-.753.338.054.277.1.562.135.846-.464.001-.97.117-1.491.295.002-.02.005-.04.005-.059.01-.243.007-.453-.005-.64-.992.309-1.868.53-1.645.326.404-.195.843-.38 1.299-.547l.092-.035.217-.074a13.245 13.245 0 0 1 2.392-.59 2.163 2.163 0 0 0-.31-.036c-.11-.299-.243-.654-.381-1.01-.174.105-.376.214-.6.329.068.227.135.48.197.748a6.814 6.814 0 0 0-1.32.44 2.501 2.501 0 0 0-.2-.603c-.736.285-1.27.45-1.102.275 1.128-.657 2.066-1.144 3.417-1.494.031-.008.061-.014.086-.022a2.62 2.62 0 0 0-.596.028 45.92 45.92 0 0 0-.136-.341l-.131-.32.13.016c-.596-1.642-1.502-3.313-2.765-4.585.436.596.569.813.874 1.28.613.958 1.34 2.569 1.713 4.022-.553.158-1.084.466-1.66.829a6.802 6.802 0 0 0-.13-.213c-.102-.16-.464-.471-.745-.621.098.206.136.504.031.848-.185.615-.48.96-.827 1.381-.298.36-.659 1.184-1.325 1.244-.005.068-.007.13-.007.167 0 .403.456.944.704 1.062.482.228.57.245 1.14.117.57-.13.884-.505 1.077-.743.152-.188.286-.408.38-.641-1.016.258-1.94.437-1.702.24a13.06 13.06 0 0 1 1.408-.506l.024-.007c.82-.242 1.688-.417 2.519-.477-.18.105-.377.188-.589.264.053.56.057 1.1-.015 1.54.196.175.359.392.538.71a6.232 6.232 0 0 0-.412-.315c-.48-.348-.823-.516-1.362-.609.304.142.569.325.812.524-.033 1.43-.228 3.474-.695 4.5a2.265 2.265 0 0 0-.575-.57c-.005.02-.042.088-.047.109.355.415.542.712.755 1.29-.337-.385-.611-.674-.872-.912-.5 1.414-1.163 1.709-1.722 1.75 0 0 .533 1.095.053 2.157a1.055 1.055 0 0 0-.07.32c.143.286.104.459.21.801.888-.369 1.93-1.44 2.538-2.296.268.244.526.506.872.89-.203-.522-.382-.81-.684-1.166.033-.051.057-.066.09-.118.239.174.38.304.574.595"/><path fill="#FFD300" d="M43.237 12.66c-.61-.632-1.372-1.051-2.856-1.296.808-.142 1.929.038 2.465.366.577-.45 1.175-.561 1.874-.463-.677.2-1.62.75-1.483 1.392M37.71 9.898c1.301-.252 3.075-.069 3.72.423.506-.355 1.392-.584 2.895-.336-1.25.084-1.594.158-1.884.378.37-.083.771-.104 1.472.06-.825.058-1.853.292-1.85.756-.553-.4-1.739-.743-2.81-.743.541-.16.948-.154 1.27-.073-.667-.31-1.247-.438-2.813-.465m9.962 7.962c.332.018.833.005 1.13-.142.016.217-.788.576-.961.587-.19.012-.398-.134-.578-.178a10.739 10.739 0 0 0-.63-.136c-.12-.02-.283-.075-.3-.24.45.022.888.086 1.339.11m-10.742-.44c-.515.375-1.303.686-2.064.543-.1.314-.058.867.18 1.508-1.285-.57-2.062-1.53-2.144-2.253.826-.393 2.574.186 4.028.202m15.706-5.932c-.86.103-1.81.01-2.57-.401.642.02 1.115-.095 2.282-.444-.357.029-3.891.132-5.954-.393-.903-.4-3.829-1.558-5.59-.599-2.883-.939-6.518.035-7.58.834-1.933 0-3.973-.138-5.127-.511.939.654 1.68.763 2.244.884-1.417.057-2.433-.15-3.957-.48.507.492.874.696 1.63.92-.448.04-.908.018-1.399-.07.582.477 2.057 1.268 3.312.718.362-.16 1.517-.773 2.494-.881-.54.288-1.4 1.062-1.887 1.618a3.19 3.19 0 0 0-.05.083c.45-.317.973-.567 1.495-.663-.783.578-1.124 1.176-1.156 1.811.274-.29.484-.592.795-.688.075-.023.135.056.196.19.113.16.193.531.345.873.166.342.395.644.757.683.087.01.177.025.27.043-.405-.422-.48-.857-.29-1.143.08-.119.185-.401.446-.635-.163.002-.317.006-.42-.137a1.322 1.322 0 0 1-.179-.406c-.04-.138-.18-.386-.141-.516.337.003.666.101.998.006.515-.146.382-.666.999-1.097.049.128.068.255.072.382a5.98 5.98 0 0 1 1.053-.456c.205-.064.445-.12.631-.11.308.017.625.14.914.241.382.134.696.36.992.612.884.22 1.53.775 2.169 1.391.146.151.226.276.198.473a2.5 2.5 0 0 0 .176.105c.378.194.48.608.48.794 0 .03-.002.067-.006.106.967-.546 1.777-.874 2.763-.436-.918-.07-1.815.4-2.561 1.035-.499.422-1.53 1.354-2.305 1.392-.076-.336.046-.508.295-.742.322-.25.65-.497.978-.724a1.975 1.975 0 0 0-.589-.014c-.277.38-.688.593-.949.718-.907.41-1.37.598-3.087.466-1.092-.083-1.893.088-2.469.088-.578 0-.867-.13-1.198-.415-.33-.287-.479-.708-.644-1.198-.034 1.463.373 5.094 1.878 5.921.239-.168.697-.292 1.1-.287-.59.282-1.22.845-1.571 1.533 1.365-1.181 2.399-1.478 4.1-1.485-.707 1.204-.86 2.237-.833 3.26.018.637.103 1.128.24 1.528.268.848.72 1.714 1.284 2.351-.136-.31-.255-.621-.355-.928.402.426.88.87 1.387 1.558.642.877 1.076 1.007 1.533 2.225.033-.49.618-.502.607-1.032-.087-.339-.232-.674-.475-1.158-.461-.916-2.047-4.082-2.114-6.017-.022-.67.414-1.053.561-1.346a.834.834 0 0 0 .064-.572c-.814-.195-1.736-.47-2.317-.722.657-.073 1.378-.03 2.116.085-.082-.262-.137-.55-.06-.892l.011-.043a23.868 23.868 0 0 1-1.956-.677c.696-.042 1.415.044 2.14.205.134-.253.319-.506.539-.754-1.224-.422-2.131-.825-2.686-1.11 1.033.019 2.084.29 3.114.664a9.42 9.42 0 0 1 .798-.677c.266-.209.555-.5.827-.691.833-.573 1.964-1.305 2.938-.69-.16.007-.33.02-.502.043-.575.06-.234.896.417 1.562.351.36.693.875 1.1 1.455.27.382.297.5.595.59.506.154 1.054.399.937.708-.087.224-.456.13-.38.402.16.58.581.694.935.627l.172-.048c.055-.021.107-.046.154-.073.169-.112.243-.287.426-.574.073-.178-.055-.168-.055-.32 0-.105.196-.348.46-.57.327-.276.533-.826.533-1.062 0-.298.007-.497-.122-.708-.507-.712-1.842-1.52-2.007-1.644-.454-.343-.885-.392-1.372-.424.252-.229.46-.211.657-.146-.148-.145-.224-.225-.34-.305-.412-.281-.88-.38-1.462-.416.644-.296 1.011-.277 1.563.09l-.14-.12c-.112-.227.026-.455.1-.576a.62.62 0 0 1-.022-.476c.136-.366.25-.636.396-.835-.274-.417-.653-.857-.562-1.035.058-.118.143-.238.32-.272.108-.022.69.034.973.112.612.17 1.055.326 1.4.547a3.384 3.384 0 0 0-.125-.118c-.34-.27-.75-.542-1.263-.822a52.19 52.19 0 0 1 1.798.829c.824.412 1.47 1.051 2.906.968-.372-.078-.965-.353-1.532-.758.256.01.99.224 2.296-.187"/><path d="M0 0h80v80H0z"/></g></svg>
