<svg xmlns="http://www.w3.org/2000/svg" xmlns:xlink="http://www.w3.org/1999/xlink" viewBox="0 0 80 80"><defs><path id="a" d="M.148.315a44.602 44.602 0 0 0 2.603 7.187h36.14c1.155-2.504 2-4.916 2.607-7.187H.148z"/><path id="c" d="M.146.305a44.603 44.603 0 0 0 2.61 7.206h36.13A44.712 44.712 0 0 0 41.5.305H.146z"/></defs><g fill="none" fill-rule="evenodd"><path fill="#FFF" d="M64.35 38.47s.264 3.16.4 5.236l1.151-.974c3.148-2.652 3.148-2.652 3.765-2.23l.599.41-.239.687c-2.762 7.928-6.414 13.542-8.99 16.856-.192.246-4.701 6.017-6.281 5.75l-.68-.115-.139-.855.031.21c-.259-.666-2.983-4.02-3.377-4.453l-.619-.676.637-.66c8.467-8.318 11.894-19.486 11.927-19.598 0 0 .243-.732.348-1.294.565.31 1.386.465 1.466 1.706"/><path fill="#FFF" d="M57.135 57.409l-7.163.908 3.859 6.425 7.197-1.212-3.322-6.125zM15.433 38.47s-.265 3.16-.401 5.236l-1.152-.974c-3.147-2.652-3.147-2.652-3.763-2.23l-.6.41.239.687c2.762 7.928 6.414 13.542 8.991 16.856.19.246 4.7 6.017 6.28 5.75l.68-.115.138-.855-.031.21c.26-.666 2.983-4.02 3.378-4.453l.618-.676-.637-.66C20.706 49.339 17.28 38.17 17.247 38.059c0 0-.244-.732-.349-1.294-.565.31-1.385.465-1.465 1.706"/><path fill="#FFF" d="M22.036 57.907l-3.872 5.185 7.103 1.175 4.543-5.951-7.495-.866z"/><path fill="#FFF" d="M56.533 57.637c-7.092 5.166-13.86 5.606-16.44 5.556l-.201.063-.2-.063c-2.58.05-9.347-.39-16.439-5.556l-.774-.564-4.315 6.02.552.57c.296.306 7.408 7.489 21.176 7.489 13.767 0 20.881-7.183 21.177-7.49l.552-.569-4.314-6.02-.774.564z"/><path fill="#FFF" d="M61.2 12.448H17.867l-.197.69c-.072.253-6.863 25.533 21.642 47.5l.58.448.58-.447c28.506-21.968 21.715-47.248 21.643-47.5l-.197-.691H61.2z"/><path fill="#000" d="M63.913 45.649l-.477-7.317s-3.274 11.39-12.028 19.99c-.01-.003 3.197 5.209 3.206 5.2.426-.408 9.167-6.92 14.505-22.235.025-.07-5.206 4.362-5.206 4.362"/><path fill="#000" d="M63.387 38.739l.46 7.063.115-.097c1.223-1.036 4.185-3.54 4.988-4.193-4.498 12.725-11.414 19.477-14.196 21.792l-.123.106c-.251-.393-2.936-4.75-3.13-5.078 7.773-7.66 11.244-17.593 11.886-19.593M51.356 58.268c-.056.105 3.17 5.281 3.212 5.315l.048.037.235-.2c2.81-2.34 9.832-9.176 14.338-22.11l.02-.052-.048-.034c-.015-.01-.036-.01-.113.039-.25.161-1.181.937-5.07 4.232l-.467-7.168-.147-.016c-.032.114-3.37 11.47-12.008 19.957"/><path fill="#FFF" d="M57.142 58.36l2.377 4.382-4.878.547-3.082-4.891z"/><path fill="#000" d="M57.107 58.419l2.319 4.274c-.167.02-4.79.536-4.79.536h-.001c0-.056-2.677-4.308-2.97-4.774.201 0 5.374-.036 5.442-.036zm.034-.118l-5.688.039 3.138 4.98c.056.027 4.934-.52 4.934-.52l.087-.01-2.435-4.49h-.036z"/><path fill="#E00034" d="M15.858 45.649l.478-7.317s3.417 11.402 12.171 20.003c-.024-.004-3.612 4.309-3.612 4.9 0 .59-8.905-6.633-14.241-21.948-.025-.07 5.204 4.362 5.204 4.362"/><path fill="#000" d="M15.933 45.653l.453-6.926c.654 1.97 4.236 11.936 12.02 19.611-.285.33-3.587 4.284-3.587 4.897-.646-.022-8.963-7.454-14.003-21.728.785.638 3.764 3.157 4.994 4.199l.113.096.01-.149zm.328-7.326l-.468 7.168c-3.89-3.297-4.82-4.071-5.069-4.233-.077-.049-.098-.048-.113-.038l-.048.032.019.055c5.18 14.867 13.706 22.13 14.299 22.03l.062-.01.027-.096c0-.513 3.374-4.64 3.585-4.843l.057-.054-.052-.057c-8.64-8.488-12.118-19.857-12.152-19.97l-.147.016z"/><path fill="#000" d="M22.656 58.424h5.82v-.15h-5.82z"/><path fill="#FFF" d="M22.848 58.402l-2.642 4.34 4.437.171 3.689-4.495z"/><path fill="#FFF" d="M39.892 64.145c0-.06-8.314.732-17.2-5.74L19.4 63.001s6.97 7.2 20.493 7.2 20.494-7.2 20.494-7.2l-3.294-4.596c-8.885 6.472-17.2 5.68-17.2 5.74"/><path fill="#000" d="M22.712 58.508c7.32 5.305 14.323 5.763 17 5.71h.36c2.676.053 9.68-.405 17-5.71l3.215 4.485c-.466.46-7.455 7.133-20.395 7.133s-19.929-6.672-20.394-7.133c.071-.102 3.134-4.372 3.214-4.485zm34.335-.163c-7.307 5.322-14.303 5.776-16.972 5.724l-.183.017a19.877 19.877 0 0 1-.183-.017c-2.669.052-9.664-.402-16.971-5.724l-.062-.045-3.375 4.709.044.045c.07.072 7.147 7.222 20.547 7.222s20.478-7.15 20.547-7.222l.044-.045L57.11 58.3l-.062.045z"/><path fill="#000" d="M48.39 67.46c.774-.238.688-1.013.497-1.719-.192-.713-.536-1.4-1.43-1.128l-.787.241.876 2.862.844-.257zm-7.208-.518c.036.83.168 1.628 1.042 1.599.873-.031.954-.837.929-1.667-.02-.687-.156-1.489-1.03-1.458-.89.03-.966.84-.941 1.526m-3.026 1.165c.212-.256.266-.985.273-1.193.024-.687-.056-1.495-.945-1.527-.874-.03-1.006.772-1.03 1.458-.02.83.055 1.635.929 1.666.219.008.473-.071.606-.194l.325.29.174-.201-.332-.3z"/><path fill="#FFF" d="M18.584 13.399s-7.016 24.658 21.308 46.487C68.217 38.057 61.201 13.4 61.201 13.4H18.584z"/><path fill="#000" d="M61.142 13.474c.08.298.715 2.848.715 6.898 0 8.88-3.09 24.847-21.965 39.417C21.017 45.219 17.93 29.254 17.93 20.373c0-4.05.635-6.6.714-6.899h42.5zm.058-.15H18.528l-.016.054c-.07.247-6.706 24.957 21.334 46.567l.046.036.046-.036c28.04-21.61 21.405-46.32 21.334-46.567l-.015-.054H61.2z"/><path fill="#000" d="M39.892 59.79C22.696 46.515 18.464 32.24 17.945 22.596l-.15.008c.521 9.683 4.77 24.022 22.05 37.34l.047.036.046-.035c17.264-13.305 21.529-27.65 22.068-37.34l-.15-.01C61.32 32.249 57.07 46.53 39.891 59.79"/><path fill="#000" d="M36.175 22.601h7.453v34.224l-3.736 3.061-3.717-3.053z"/><path fill="#000" d="M43.628 22.61l-.01 34.215c-.001-.003-3.732 3.053-3.732 3.053 0-.01-3.705-3.052-3.705-3.052l.004-34.216h7.443zm-7.463-.019v34.242c.004.007 3.72 3.06 3.72 3.06.013 0 3.75-3.06 3.75-3.06l.003-34.232-7.463-.01h-.01z"/><path fill="#E00034" d="M61.914 22.6c.302-5.628-.714-9.201-.714-9.201H18.585s-1.017 3.573-.715 9.202h44.044z"/><path fill="#000" d="M61.142 13.474c.077.284.753 2.92.753 7.067 0 .627-.018 1.293-.054 1.985H17.943a39.027 39.027 0 0 1-.053-1.988c0-4.145.677-6.78.752-7.064h42.5zm-42.557-.15h-.057l-.016.054c-.01.036-1.016 3.65-.716 9.227l.003.071h44.187l.004-.071c.298-5.578-.707-9.19-.718-9.227l-.015-.054H18.585zm5.805 49.528c-.37.744-.643 1.506.137 1.902.779.397 1.239-.268 1.62-1.006.315-.61.586-1.378-.194-1.775-.793-.404-1.251.267-1.563.879"/><path fill="#FFF" d="M28.535 16.276h.823v-1.158h-2.93v1.158h.787v2.433h1.32v-2.433zm12.416 3.137c-.502 0-.91.4-.91.9 0 .502.408.921.91.921a.92.92 0 0 0 .91-.92c0-.501-.41-.9-.91-.9zM25.778 15.44c-.443-.417-1.34-.686-1.985-.686-1.226 0-2.123.825-2.123 1.845 0 .955.685 1.355 1.62 1.681.57.189 1.263.368 1.263 1.005 0 .473-.356.89-.935.89-.607 0-1.12-.425-1.312-.899l-.915.76c.501.71 1.234 1.2 2.237 1.2 1.485 0 2.392-.874 2.392-2.107 0-2.065-2.884-1.633-2.884-2.669 0-.4.434-.693.886-.693.475 0 .822.196 1.09.506l.666-.833zm9.665 2.291l-.02-2.556h-1.368v6.06h1.369V18.51l2.262 2.724h1.76l-2.812-3.263 2.662-2.797h-1.685l-2.168 2.556zm-7.56 1.683c-.5 0-.91.4-.91.9 0 .502.41.921.91.921a.92.92 0 0 0 .91-.92c0-.501-.408-.9-.91-.9zm20.791 0c-.501 0-.91.4-.91.9 0 .502.409.921.91.921a.92.92 0 0 0 .91-.92c0-.501-.409-.9-.91-.9zm10.46 0c-.501 0-.911.4-.911.9 0 .502.41.921.91.921.501 0 .91-.419.91-.92 0-.501-.409-.9-.91-.9zm-1.887-4.08a3.322 3.322 0 0 0-1.466-.347c-1.93 0-3.247 1.487-3.247 3.171 0 1.637 1.37 3.077 3.22 3.077.534 0 1.013-.149 1.493-.353v-1.379c-.357.371-.907.63-1.457.63-1.196 0-1.93-.999-1.93-1.999 0-1.022.708-2.045 1.938-2.045.55 0 1.092.236 1.449.63v-1.385zm-9.258.835v-1.036h-3.535v6.102h1.389v-2.686h2.014V17.51h-2.014v-1.343h2.146z"/><path fill="#000" d="M22.543 63.479l.77-1.185.837.543.164-.251-.838-.543.535-.825.902.586.162-.251-1.178-.766-1.631 2.512z"/><path fill="#FFF" d="M25.837 63.599c-.396.77-.683 1.14-1.174.89-.491-.251-.36-.7.03-1.473.298-.596.655-1.015 1.11-.783.47.24.34.774.034 1.366"/><path fill="#000" d="M26.707 64.353l.537.216c.362.148.378.429.266.707-.076.185-.184.541-.19.746l.359.145.026-.063c-.075-.03-.047-.161-.038-.217.055-.22.119-.43.191-.643.105-.387.062-.538-.283-.716l.003-.008c.34.086.634-.067.777-.388.277-.633-.032-.934-.613-1.17l-.714-.288-1.122 2.776.307.124.494-1.22z"/><path fill="#FFF" d="M27.223 63.076l.433.175c.207.084.576.246.391.727-.189.488-.597.348-.743.293l-.485-.195.404-1z"/><path fill="#000" d="M28.831 63.726l.718.289-1.009 2.5.307.123 1.01-2.498.717.289.113-.276-1.743-.704zM30.305 67.129l.926-2.848-.316-.101-.925 2.846zM31.12 66.66c-.112.523.182.85.713.963.531.113.932-.067 1.043-.59l.473-2.22-.324-.07-.448 2.105c-.045.23-.163.594-.682.484-.52-.111-.48-.49-.427-.72l.448-2.105-.325-.069-.471 2.222zm4.246-.614c.148-.545-.122-.892-.657-1.005-.476-.102-.883.143-.986.626-.062.29-.04.54.206.739.14.114.38.252.526.348.273.176.452.218.358.664-.074.343-.34.462-.668.393-.488-.104-.512-.395-.404-.825l-.324-.068c-.03.155-.083.39-.051.547.086.419.412.574.701.635.562.12.979-.13 1.097-.685.082-.387.022-.604-.489-.929l-.427-.274c-.172-.11-.235-.254-.193-.457.049-.226.162-.513.635-.412.325.069.439.334.352.634l.324.069z"/><path fill="#FFF" d="M37.748 68.113a.584.584 0 0 1-.363.099c-.511-.002-.62-.557-.593-1.223.034-.866.138-1.321.69-1.302.55.018.622.48.6 1.347-.008.319-.094.739-.167.853l-.271-.233-.184.213.288.246z"/><path fill="#000" d="M38.931 67.79c-.019.534.326.805.87.825.542.019.906-.228.926-.764l.078-2.27-.33-.01-.076 2.15c-.004.235-.057.612-.588.594-.53-.018-.557-.4-.545-.634l.076-2.15-.332-.011-.079 2.27z"/><path fill="#FFF" d="M42.81 66.894c.026.866-.046 1.327-.597 1.346-.55.02-.653-.436-.687-1.302-.028-.665.08-1.205.591-1.222.527-.02.674.51.692 1.178"/><path fill="#000" d="M45.02 68.154l-.172-1.402.99-.122-.035-.297-.992.121-.119-.974 1.066-.131-.037-.297-1.395.172.366 2.971zM46.841 67.807l-.623-2.929-.323.069.622 2.929z"/><path fill="#FFF" d="M47.075 65.042l.507-.154c.512-.157.737.25.96.896.291.846.207 1.252-.26 1.394l-.507.156-.7-2.292z"/><path fill="#000" d="M51.274 66.594l-.088-.287-1.122.343-.324-1.057 1.046-.32-.087-.287-1.046.32-.29-.946 1.115-.341-.087-.286-1.432.437.876 2.864zM53.181 65.797l-.111-.277-1.134.458-1.008-2.499-.308.123 1.121 2.777zM53.93 65.466l-1.359-2.668-.296.151 1.359 2.667zM54.23 64.51c.244.477.678.547 1.162.3.484-.246.682-.639.44-1.115L54.8 61.67l-.295.15.976 1.917c.11.208.247.564-.225.805-.474.241-.682-.078-.785-.29l-.978-1.917-.294.15 1.03 2.025zm2.651-3.222c-.271-.495-.706-.557-1.17-.268-.412.258-.536.718-.274 1.137.157.25.345.416.661.387.18-.013.448-.082.62-.114.32-.062.478-.157.718.229.186.298.078.568-.207.746-.423.265-.641.072-.863-.312l-.282.175c.089.134.212.339.345.43.353.241.695.126.946-.03.487-.305.613-.775.312-1.255-.209-.335-.402-.45-.995-.328l-.499.099c-.2.041-.346-.02-.456-.195-.123-.197-.24-.482.17-.738.28-.175.548-.064.693.212l.281-.175zM23.137 60.394l.042.127.909-.303-.042-.127zM55.671 60.218l.909.303.042-.127-.91-.303z"/><g transform="translate(19.073 30.728)"><mask id="b" fill="#fff"><use xlink:href="#a"/></mask><path fill="#000" mask="url(#b)" d="M42.796.315l-2.281 7.187H.923L-1.653.315z"/><mask id="d" fill="#fff"><use xlink:href="#c"/></mask><path fill="#000" d="M.922 7.492C.932 7.5-1.644.312-1.644.312l44.427.012-2.277 7.175L.922 7.492zM42.796.305h-44.45c-.009.013 2.567 7.2 2.567 7.2l39.602.006c.01-.007 2.29-7.193 2.29-7.193l.004-.013h-.013z" mask="url(#d)"/></g><path d="M0 0h80v80H0z"/></g></svg>
