<svg xmlns="http://www.w3.org/2000/svg" viewBox="0 0 80 80"><g fill="none" fill-rule="evenodd"><path fill="#FFF" d="M17.232 21.328h17.036l5.702 11.121 5.607-11.105h17.119L39.902 69.049z"/><path fill="#FFF" d="M33.89 21.948c.324.635 6.084 11.87 6.084 11.87l5.985-11.854h15.753L39.904 67.607c-1.043-2.196-20.9-43.994-21.69-45.66H33.89zm.378-1.24H16.25L39.9 70.491l23.78-49.769H45.195l-5.23 10.358-5.317-10.374h-.38z"/><path fill="#EE1E31" d="M34.268 21.344l5.702 11.105 5.607-11.105h17.119L49.609 48.678c-.943-4.883 1.208-7.516 1.208-7.516s-2.996-.44-5.535 1.957c-.46-.825-2.272-5.318-9.427-6.116 1.548 1.813 1.86 4.14 1.74 5.753-1.293-1.167-3.19-2.079-4.81-2.127.823 1.136.847 4.158.823 4.134-1.79-1.693-4.158-2.127-4.158-2.127.253 1.545.697 3.3.266 4.907-1.405-2.84-12.484-26.216-12.484-26.216l17.036.017z"/><path fill="#EE1E31" d="M39.976 55.215c-2.37 2.647-3.436 4.566-1.98 5 2.345.702 2.663-8.671 11.613-11.561l-9.707 20.395-3.875-8.24c.203-1.8 1.906-3.858 3.672-5.78 2.995-3.257 2.616-6.787.445-8.635-1.972-1.679-6.268-1.075-7.166 1.341.2.334.49-.43.774-.28.527.28-.81 1.126 0 1.55.327.155.357.284.62.34 1.177.248 1.125-1.217 2.554-1.259.768-.023 1.759.445 2.049 1.793.27 1.26-.223 2.705-2.094 4.175-.487.383-1.704.99-2.757 2.848l-.155-.403c1.109-2.422 5.285-3.28 4.65-6.576-.242-1.25-1.412-1.74-2.204-1.414-.897.371-.742 1.27-2.043 1.084-.892.832-1.824 1.872-2.85 2.57-.163.023-.038-.523-.03-.65.305-.981.61-1.79.96-2.756.26.342.154.899.11 1.49.266-.223.715-1.032.664-1.18-.527-.465-.887-.547-.744-1.023 1.084-3.592 6.314-3.477 7.918-1.873 2.96 2.96 1.948 6.395-.424 9.044"/><path fill="#FFF" d="M35.317 13.577v.992h-1.016v1.04h.859v.942h-.883v1.113h1.016v.967h-2.065v-5.054zM25.597 17.735v-3.173c.519-.012.938.61.938 1.614 0 1.296-.636 1.601-.938 1.56m-.943-4.142l-.076-.016-.012 5.053c1.156.01 2.96.34 2.985-2.48.022-2.465-1.55-2.643-2.897-2.557M21.92 15.206l.599-1.629h1.089l-1.163 2.596-.024 2.458h-.992v-2.458l-1.196-2.596h1.099zM30.884 16.309v-2.678h1.049v5.034h-.951l-1.169-2.796v2.796h-1.01v-5.034h.971zM19.227 13.763a1.697 1.697 0 0 0-.878-.246c-.853 0-1.34.68-1.34 1.472 0 .733.38 1.111.953 1.497.28.2.575.387.575.773 0 .333-.26.465-.58.465-.292 0-.5-.066-.734-.226v.946c.226.166.573.253.852.253.933 0 1.445-.673 1.445-1.565 0-1.358-1.511-1.404-1.511-2.23 0-.307.172-.454.479-.454.273 0 .54.108.739.28v-.965zm43.39 0a1.7 1.7 0 0 0-.88-.246c-.853 0-1.338.68-1.338 1.472 0 .733.379 1.111.952 1.497.28.2.575.387.575.773 0 .333-.26.465-.58.465-.293 0-.501-.066-.734-.226v.946c.226.166.573.253.852.253.933 0 1.445-.673 1.445-1.565 0-1.358-1.511-1.404-1.511-2.23 0-.307.173-.454.479-.454.273 0 .54.108.74.28v-.965zm-17.747 0a1.696 1.696 0 0 0-.878-.246c-.853 0-1.34.68-1.34 1.472 0 .733.38 1.111.953 1.497.28.2.575.387.575.773 0 .333-.26.465-.58.465-.292 0-.5-.066-.734-.226v.946c.227.166.573.253.852.253.933 0 1.446-.673 1.446-1.565 0-1.358-1.512-1.404-1.512-2.23 0-.307.172-.454.479-.454.273 0 .54.108.74.28v-.965zm8.169 3.215l.264-1.845.295 1.845h-.56zm.853-3.347h-1.089l-1.168 5.034h1.05l.197-.854h.912l.216.854h1.078l-1.196-5.034zM58.199 16.309v-2.678h1.049v5.034h-.951l-1.168-2.796v2.796h-1.011v-5.034h.972zM47.093 13.631l.539 3.21.538-3.21h.885l.617 3.21.433-3.21h1.098l-1.051 5.034h-.892l-.618-3.346-.696 3.346h-.912l-.991-5.034zM37.839 15.206l.599-1.629h1.089l-1.163 2.596-.025 2.458h-.991v-2.458l-1.197-2.596h1.099z"/><path d="M0 0h80v80H0z"/></g></svg>
